%TF.GenerationSoftware,KiCad,Pcbnew,9.0.2*%
%TF.CreationDate,2025-06-10T03:02:45+08:00*%
%TF.ProjectId,quad_audio_switch,71756164-5f61-4756-9469-6f5f73776974,rev?*%
%TF.SameCoordinates,Original*%
%TF.FileFunction,Soldermask,Top*%
%TF.FilePolarity,Negative*%
%FSLAX46Y46*%
G04 Gerber Fmt 4.6, Leading zero omitted, Abs format (unit mm)*
G04 Created by KiCad (PCBNEW 9.0.2) date 2025-06-10 03:02:45*
%MOMM*%
%LPD*%
G01*
G04 APERTURE LIST*
G04 Aperture macros list*
%AMRoundRect*
0 Rectangle with rounded corners*
0 $1 Rounding radius*
0 $2 $3 $4 $5 $6 $7 $8 $9 X,Y pos of 4 corners*
0 Add a 4 corners polygon primitive as box body*
4,1,4,$2,$3,$4,$5,$6,$7,$8,$9,$2,$3,0*
0 Add four circle primitives for the rounded corners*
1,1,$1+$1,$2,$3*
1,1,$1+$1,$4,$5*
1,1,$1+$1,$6,$7*
1,1,$1+$1,$8,$9*
0 Add four rect primitives between the rounded corners*
20,1,$1+$1,$2,$3,$4,$5,0*
20,1,$1+$1,$4,$5,$6,$7,0*
20,1,$1+$1,$6,$7,$8,$9,0*
20,1,$1+$1,$8,$9,$2,$3,0*%
%AMFreePoly0*
4,1,37,1.600000,0.796148,1.678414,0.796148,1.832228,0.765552,1.977117,0.705537,2.107515,0.618408,2.218408,0.507515,2.305537,0.377117,2.365552,0.232228,2.396148,0.078414,2.396148,-0.078414,2.365552,-0.232228,2.305537,-0.377117,2.218408,-0.507515,2.107515,-0.618408,1.977117,-0.705537,1.832228,-0.765552,1.678414,-0.796148,1.600000,-0.796148,1.600000,-0.800000,-0.600000,-0.800000,
-0.603843,-0.796157,-0.639018,-0.796157,-0.711114,-0.766294,-0.766294,-0.711114,-0.796157,-0.639018,-0.796157,-0.603843,-0.800000,-0.600000,-0.800000,0.600000,-0.796157,0.603843,-0.796157,0.639018,-0.766294,0.711114,-0.711114,0.766294,-0.639018,0.796157,-0.603843,0.796157,-0.600000,0.800000,1.600000,0.800000,1.600000,0.796148,1.600000,0.796148,$1*%
%AMFreePoly1*
4,1,37,0.800000,0.796148,0.878414,0.796148,1.032228,0.765552,1.177117,0.705537,1.307515,0.618408,1.418408,0.507515,1.505537,0.377117,1.565552,0.232228,1.596148,0.078414,1.596148,-0.078414,1.565552,-0.232228,1.505537,-0.377117,1.418408,-0.507515,1.307515,-0.618408,1.177117,-0.705537,1.032228,-0.765552,0.878414,-0.796148,0.800000,-0.796148,0.800000,-0.800000,-1.400000,-0.800000,
-1.403843,-0.796157,-1.439018,-0.796157,-1.511114,-0.766294,-1.566294,-0.711114,-1.596157,-0.639018,-1.596157,-0.603843,-1.600000,-0.600000,-1.600000,0.600000,-1.596157,0.603843,-1.596157,0.639018,-1.566294,0.711114,-1.511114,0.766294,-1.439018,0.796157,-1.403843,0.796157,-1.400000,0.800000,0.800000,0.800000,0.800000,0.796148,0.800000,0.796148,$1*%
%AMFreePoly2*
4,1,37,1.403843,0.796157,1.439018,0.796157,1.511114,0.766294,1.566294,0.711114,1.596157,0.639018,1.596157,0.603843,1.600000,0.600000,1.600000,-0.600000,1.596157,-0.603843,1.596157,-0.639018,1.566294,-0.711114,1.511114,-0.766294,1.439018,-0.796157,1.403843,-0.796157,1.400000,-0.800000,-0.800000,-0.800000,-0.800000,-0.796148,-0.878414,-0.796148,-1.032228,-0.765552,-1.177117,-0.705537,
-1.307515,-0.618408,-1.418408,-0.507515,-1.505537,-0.377117,-1.565552,-0.232228,-1.596148,-0.078414,-1.596148,0.078414,-1.565552,0.232228,-1.505537,0.377117,-1.418408,0.507515,-1.307515,0.618408,-1.177117,0.705537,-1.032228,0.765552,-0.878414,0.796148,-0.800000,0.796148,-0.800000,0.800000,1.400000,0.800000,1.403843,0.796157,1.403843,0.796157,$1*%
G04 Aperture macros list end*
%ADD10C,1.800000*%
%ADD11R,1.800000X1.800000*%
%ADD12RoundRect,0.250000X-0.262500X-0.450000X0.262500X-0.450000X0.262500X0.450000X-0.262500X0.450000X0*%
%ADD13RoundRect,0.162500X0.162500X-0.825000X0.162500X0.825000X-0.162500X0.825000X-0.162500X-0.825000X0*%
%ADD14RoundRect,0.250000X-0.337500X-0.475000X0.337500X-0.475000X0.337500X0.475000X-0.337500X0.475000X0*%
%ADD15R,3.000000X1.500000*%
%ADD16C,1.200000*%
%ADD17R,0.800000X1.800000*%
%ADD18R,1.800000X0.800000*%
%ADD19RoundRect,0.250000X0.475000X-0.337500X0.475000X0.337500X-0.475000X0.337500X-0.475000X-0.337500X0*%
%ADD20RoundRect,0.162500X-0.825000X-0.162500X0.825000X-0.162500X0.825000X0.162500X-0.825000X0.162500X0*%
%ADD21RoundRect,0.800000X0.000010X-0.800000X0.000010X0.800000X-0.000010X0.800000X-0.000010X-0.800000X0*%
%ADD22FreePoly0,270.000000*%
%ADD23RoundRect,0.800000X-0.800000X-0.000010X0.800000X-0.000010X0.800000X0.000010X-0.800000X0.000010X0*%
%ADD24FreePoly1,0.000000*%
%ADD25FreePoly2,0.000000*%
%ADD26C,2.200000*%
%ADD27C,1.850000*%
%ADD28RoundRect,0.875000X-0.875000X0.875000X-0.875000X-0.875000X0.875000X-0.875000X0.875000X0.875000X0*%
%ADD29RoundRect,0.750000X-1.000000X0.750000X-1.000000X-0.750000X1.000000X-0.750000X1.000000X0.750000X0*%
%ADD30R,3.500000X3.500000*%
%ADD31C,2.100000*%
%ADD32C,1.750000*%
G04 APERTURE END LIST*
D10*
%TO.C,D6*%
X101392545Y-108700000D03*
D11*
X98852545Y-108700000D03*
%TD*%
D12*
%TO.C,R6*%
X106125000Y-108700000D03*
X104300000Y-108700000D03*
%TD*%
D10*
%TO.C,D1*%
X118580364Y-108700000D03*
D11*
X116040364Y-108700000D03*
%TD*%
D12*
%TO.C,R1*%
X123312819Y-108700000D03*
X121487819Y-108700000D03*
%TD*%
D10*
%TO.C,D2*%
X128760273Y-108700000D03*
D11*
X126220273Y-108700000D03*
%TD*%
D12*
%TO.C,R2*%
X133492728Y-108700000D03*
X131667728Y-108700000D03*
%TD*%
D10*
%TO.C,D3*%
X138940182Y-108700000D03*
D11*
X136400182Y-108700000D03*
%TD*%
D12*
%TO.C,R3*%
X143672637Y-108700000D03*
X141847637Y-108700000D03*
%TD*%
D10*
%TO.C,D4*%
X149120091Y-108700000D03*
D11*
X146580091Y-108700000D03*
%TD*%
D12*
%TO.C,R4*%
X153852546Y-108700000D03*
X152027546Y-108700000D03*
%TD*%
D11*
%TO.C,D5*%
X156760000Y-108700000D03*
D10*
X159300000Y-108700000D03*
%TD*%
D12*
%TO.C,R5*%
X162207455Y-108700000D03*
X164032455Y-108700000D03*
%TD*%
D13*
%TO.C,U1*%
X148895000Y-84537500D03*
X150165000Y-84537500D03*
X151435000Y-84537500D03*
X152705000Y-84537500D03*
X152705000Y-79462500D03*
X151435000Y-79462500D03*
X150165000Y-79462500D03*
X148895000Y-79462500D03*
%TD*%
D14*
%TO.C,C2*%
X116962500Y-75600000D03*
X119037500Y-75600000D03*
%TD*%
D15*
%TO.C,J1*%
X166800000Y-68800000D03*
X159800000Y-67100000D03*
X166800000Y-62700000D03*
X166800000Y-59100000D03*
X159800000Y-60100000D03*
D16*
X163300000Y-66500000D03*
X163300000Y-60500000D03*
%TD*%
D17*
%TO.C,K5*%
X124900000Y-93900000D03*
X128100000Y-93900000D03*
X130300000Y-93900000D03*
X132500000Y-93900000D03*
X132500000Y-100900000D03*
X130300000Y-100900000D03*
X128100000Y-100900000D03*
X124900000Y-100900000D03*
%TD*%
%TO.C,K1*%
X157237500Y-85400000D03*
X160437500Y-85400000D03*
X162637500Y-85400000D03*
X164837500Y-85400000D03*
X164837500Y-78400000D03*
X162637500Y-78400000D03*
X160437500Y-78400000D03*
X157237500Y-78400000D03*
%TD*%
D18*
%TO.C,K3*%
X138062500Y-89795000D03*
X138062500Y-92995000D03*
X138062500Y-95195000D03*
X138062500Y-97395000D03*
X145062500Y-97395000D03*
X145062500Y-95195000D03*
X145062500Y-92995000D03*
X145062500Y-89795000D03*
%TD*%
D13*
%TO.C,U4*%
X148657500Y-94762500D03*
X149927500Y-94762500D03*
X151197500Y-94762500D03*
X152467500Y-94762500D03*
X152467500Y-99837500D03*
X151197500Y-99837500D03*
X149927500Y-99837500D03*
X148657500Y-99837500D03*
%TD*%
%TO.C,U2*%
X116095000Y-84537500D03*
X117365000Y-84537500D03*
X118635000Y-84537500D03*
X119905000Y-84537500D03*
X119905000Y-79462500D03*
X118635000Y-79462500D03*
X117365000Y-79462500D03*
X116095000Y-79462500D03*
%TD*%
D15*
%TO.C,J3*%
X136800000Y-68800000D03*
X129800000Y-67100000D03*
X136800000Y-62700000D03*
X136800000Y-59100000D03*
X129800000Y-60100000D03*
D16*
X133300000Y-66500000D03*
X133300000Y-60500000D03*
%TD*%
D14*
%TO.C,C4*%
X151595000Y-90862500D03*
X149520000Y-90862500D03*
%TD*%
D17*
%TO.C,K4*%
X157000000Y-93800000D03*
X160200000Y-93800000D03*
X162400000Y-93800000D03*
X164600000Y-93800000D03*
X164600000Y-100800000D03*
X162400000Y-100800000D03*
X160200000Y-100800000D03*
X157000000Y-100800000D03*
%TD*%
%TO.C,K2*%
X124900000Y-85500000D03*
X128100000Y-85500000D03*
X130300000Y-85500000D03*
X132500000Y-85500000D03*
X132500000Y-78500000D03*
X130300000Y-78500000D03*
X128100000Y-78500000D03*
X124900000Y-78500000D03*
%TD*%
D13*
%TO.C,U5*%
X116395000Y-94862500D03*
X117665000Y-94862500D03*
X118935000Y-94862500D03*
X120205000Y-94862500D03*
X120205000Y-99937500D03*
X118935000Y-99937500D03*
X117665000Y-99937500D03*
X116395000Y-99937500D03*
%TD*%
D15*
%TO.C,J2*%
X151800000Y-68800000D03*
X144800000Y-67100000D03*
X151800000Y-62700000D03*
X151800000Y-59100000D03*
X144800000Y-60100000D03*
D16*
X148300000Y-66500000D03*
X148300000Y-60500000D03*
%TD*%
D14*
%TO.C,C5*%
X119432500Y-90962500D03*
X117357500Y-90962500D03*
%TD*%
%TO.C,C1*%
X149762500Y-75500000D03*
X151837500Y-75500000D03*
%TD*%
D16*
%TO.C,J4*%
X118300000Y-60500000D03*
X118300000Y-66500000D03*
D15*
X114800000Y-60100000D03*
X121800000Y-59100000D03*
X121800000Y-62700000D03*
X114800000Y-67100000D03*
X121800000Y-68800000D03*
%TD*%
D19*
%TO.C,C3*%
X144200000Y-79337500D03*
X144200000Y-77262500D03*
%TD*%
D20*
%TO.C,U3*%
X139025000Y-82190000D03*
X139025000Y-83460000D03*
X139025000Y-84730000D03*
X139025000Y-86000000D03*
X144100000Y-86000000D03*
X144100000Y-84730000D03*
X144100000Y-83460000D03*
X144100000Y-82190000D03*
%TD*%
D15*
%TO.C,J9*%
X106800000Y-68800000D03*
X99800000Y-67100000D03*
X106800000Y-62700000D03*
X106800000Y-59100000D03*
X99800000Y-60100000D03*
D16*
X103300000Y-66500000D03*
X103300000Y-60500000D03*
%TD*%
D21*
%TO.C,A1*%
X185850000Y-108100000D03*
D22*
X183310000Y-107300000D03*
D21*
X180770000Y-108100000D03*
D23*
X193000000Y-59270000D03*
X193000000Y-61810000D03*
D24*
X193000000Y-64350000D03*
D23*
X193000000Y-66890000D03*
X193000000Y-69430000D03*
X193000000Y-71970000D03*
X193000000Y-74510000D03*
D24*
X193000000Y-77050000D03*
D23*
X193000000Y-79590000D03*
X193000000Y-82130000D03*
X193000000Y-84670000D03*
X193000000Y-87210000D03*
D24*
X193000000Y-89750000D03*
D23*
X193000000Y-92290000D03*
X193000000Y-94830000D03*
X193000000Y-97370000D03*
X193000000Y-99910000D03*
D24*
X193000000Y-102450000D03*
D23*
X193000000Y-104990000D03*
X193000000Y-107530000D03*
X173620000Y-107530000D03*
X173620000Y-104990000D03*
D25*
X173620000Y-102450000D03*
D23*
X173620000Y-99910000D03*
X173620000Y-97370000D03*
X173620000Y-94830000D03*
X173620000Y-92290000D03*
D25*
X173620000Y-89750000D03*
D23*
X173620000Y-87210000D03*
X173620000Y-84670000D03*
X173620000Y-82130000D03*
X173620000Y-79590000D03*
D25*
X173620000Y-77050000D03*
D23*
X173620000Y-74510000D03*
X173620000Y-71970000D03*
X173620000Y-69430000D03*
X173620000Y-66890000D03*
D25*
X173620000Y-64350000D03*
D23*
X173620000Y-61810000D03*
D24*
X173620000Y-59270000D03*
D26*
X186035000Y-59400000D03*
D27*
X185735000Y-62430000D03*
X180885000Y-62430000D03*
D26*
X180585000Y-59400000D03*
%TD*%
D28*
%TO.C,J11*%
X199300000Y-68200000D03*
D29*
X204000000Y-65200000D03*
D30*
X204000000Y-71200000D03*
%TD*%
D19*
%TO.C,C6*%
X168300000Y-107562500D03*
X168300000Y-109637500D03*
%TD*%
D31*
%TO.C,SW1*%
X207100000Y-106900000D03*
X200090000Y-106899999D03*
D32*
X205850000Y-109389999D03*
X201349999Y-109389999D03*
%TD*%
M02*
