M48
; DRILL file {KiCad 9.0.2} date 2025-06-10T03:02:56+0800
; FORMAT={-:-/ absolute / inch / decimal}
; #@! TF.CreationDate,2025-06-10T03:02:56+08:00
; #@! TF.GenerationSoftware,Kicad,Pcbnew,9.0.2
; #@! TF.FileFunction,Plated,1,2,PTH
FMAT,2
INCH
; #@! TA.AperFunction,Plated,PTH,ViaDrill
T1C0.0118
; #@! TA.AperFunction,Plated,PTH,ComponentDrill
T2C0.0354
; #@! TA.AperFunction,Plated,PTH,ComponentDrill
T3C0.0390
; #@! TA.AperFunction,Plated,PTH,ComponentDrill
T4C0.0394
; #@! TA.AperFunction,Plated,PTH,ComponentDrill
T5C0.0512
%
G90
G05
T1
X3.8976Y-4.0984
X4.0Y-2.8307
X4.0Y-3.1378
X4.0Y-3.748
X4.2559Y-4.0394
X4.2598Y-3.1457
X4.3504Y-3.5197
X4.3622Y-2.5787
X4.3858Y-2.9685
X4.4528Y-4.1496
X4.6204Y-3.5812
X4.622Y-3.0512
X4.6339Y-3.6614
X4.6693Y-3.3898
X4.6811Y-3.9764
X4.7165Y-2.8228
X4.7325Y-3.9345
X4.7598Y-3.0394
X4.7992Y-3.9291
X4.8031Y-3.9646
X4.8976Y-4.2008
X4.9488Y-2.3583
X4.9764Y-2.5236
X4.9803Y-3.2323
X5.0039Y-4.0906
X5.0433Y-3.8701
X5.1299Y-3.3701
X5.1299Y-3.8031
X5.1299Y-3.9724
X5.1378Y-2.7756
X5.1575Y-2.9173
X5.189Y-2.5079
X5.2205Y-3.2283
X5.2874Y-3.4016
X5.3071Y-3.4803
X5.311Y-3.6654
X5.3504Y-3.0433
X5.3543Y-3.7047
X5.3543Y-4.1969
X5.3583Y-3.9134
X5.3858Y-2.9173
X5.3898Y-2.7874
X5.4134Y-2.6024
X5.4355Y-3.7478
X5.5433Y-3.1024
X5.5827Y-2.3543
X5.5827Y-3.689
X5.6024Y-3.2874
X5.6024Y-3.3346
X5.6535Y-3.9567
X5.6575Y-2.9173
X5.6772Y-3.0418
X5.6811Y-4.1811
X5.6929Y-2.4685
X5.7111Y-3.7478
X5.7362Y-2.9724
X5.8268Y-3.8504
X5.8307Y-3.811
X5.8583Y-2.9724
X5.8622Y-3.5551
X5.8701Y-2.5472
X5.878Y-2.7795
X5.878Y-3.2165
X5.9134Y-3.6339
X5.9173Y-3.0551
X5.9331Y-4.1969
X5.9528Y-3.9449
X5.9646Y-3.378
X6.0027Y-3.9306
X6.0394Y-3.5236
X6.0591Y-3.9449
X6.063Y-3.0315
X6.0945Y-3.9882
X6.1024Y-2.3543
X6.1496Y-3.4488
X6.189Y-3.1811
X6.2362Y-2.5157
X6.2835Y-3.878
X6.3071Y-3.2717
X6.4031Y-3.0866
X6.4094Y-3.811
X6.4291Y-3.2205
X6.4724Y-3.1693
X6.6299Y-3.5945
X6.7362Y-4.1024
X6.8307Y-2.3307
X6.8346Y-2.9331
X6.8354Y-2.4335
X6.8354Y-2.6335
X6.8354Y-2.7335
X6.8354Y-2.8335
X6.8354Y-3.1335
X6.8354Y-3.2335
X6.8354Y-3.3335
X6.8354Y-3.4335
X6.8354Y-4.0335
X6.8354Y-4.2335
X6.9606Y-4.0551
X7.0591Y-3.3504
X7.063Y-3.1575
X7.063Y-3.9606
X7.0906Y-3.6732
X7.2835Y-2.7717
X7.3346Y-3.9291
X7.378Y-3.6417
X7.3858Y-2.6142
X7.3898Y-3.3189
X7.7638Y-3.189
X7.7992Y-3.815
X7.8425Y-3.5945
X8.0827Y-4.0512
X8.122Y-2.3425
X8.1339Y-3.2717
X8.1496Y-3.5472
X8.1654Y-3.8622
X8.185Y-3.0394
T2
X3.8918Y-4.2795
X3.9918Y-4.2795
X4.5685Y-4.2795
X4.6685Y-4.2795
X4.9693Y-4.2795
X5.0693Y-4.2795
X5.3701Y-4.2795
X5.4701Y-4.2795
X5.7709Y-4.2795
X5.8709Y-4.2795
X6.1717Y-4.2795
X6.2717Y-4.2795
T3
X7.9272Y-4.3067
X8.1043Y-4.3067
T5
X7.8776Y-4.2087
X8.1535Y-4.2087
T4
G00X7.8465Y-2.6457
M15
G01X7.8465Y-2.7244
M16
G05
G00X8.0709Y-2.5669
M15
G01X7.9921Y-2.5669
M16
G05
G00X8.0709Y-2.8031
M15
G01X7.9921Y-2.8031
M16
G05
M30
