  0
SECTION
  2
HEADER
  9
$ANGBASE
  50
0.0
  9
$ANGDIR
  70
1
  9
$MEASUREMENT
  70
0
  0
ENDSEC
  0
SECTION
  2
TABLES
  0
TABLE
  2
LTYPE
  70
4
  0
LTYPE
  5
40F
  2
CONTINUOUS
  70
0
  3
Solid line
  72
65
  73
0
  40
0.0
  0
LTYPE
  5
410
  2
DASHDOT
 70
0
  3
Dash Dot ____ _ ____ _
 72
65
 73
4
 40
2.0
 49
1.25
 49
-0.25
 49
0.25
 49
-0.25
  0
LTYPE
  5
411
  2
DASHED
 70
0
  3
Dashed __ __ __ __ __
 72
65
 73
2
 40
0.75
 49
0.5
 49
-0.25
  0
LTYPE
  5
43B
  2
DOTTED
 70
0
  3
Dotted .  .  .  .
 72
65
 73
2
 40
0.2
 49
0.0
 49
-0.2
  0
ENDTAB
  0
TABLE
  2
STYLE
  70
4
  0
STYLE
  2
KICAD
  70
0
  40
0
  41
1
  42
1
  50
0
  71
0
  3
isocp.shx
  0
STYLE
  2
KICADB
  70
0
  40
0
  41
1
  42
1
  50
0
  71
0
  3
isocp.shx
  0
STYLE
  2
KICADI
  70
0
  40
0
  41
1
  42
1
  50
15
  71
0
  3
isocp.shx
  0
STYLE
  2
KICADBI
  70
0
  40
0
  41
1
  42
1
  50
15
  71
0
  3
isocp.shx
  0
ENDTAB
  0
TABLE
  2
LAYER
  70
1
  0
LAYER
  2
BLACK
  70
0
  62
7
  6
CONTINUOUS
  0
ENDTAB
  0
ENDSEC
  0
SECTION
  2
ENTITIES
0
LINE
8
BLACK
6
CONTINUOUS
10
3.7244094488188977
20
-2.2637795275590551
11
8.3070866141732278
21
-2.2637795275590551
0
LINE
8
BLACK
6
CONTINUOUS
10
8.3070866141732278
20
-2.2637795275590551
11
8.3070866141732278
21
-4.4173228346456694
0
LINE
8
BLACK
6
CONTINUOUS
10
8.3070866141732278
20
-4.4173228346456694
11
3.7244094488188977
21
-4.4173228346456694
0
LINE
8
BLACK
6
CONTINUOUS
10
3.7244094488188977
20
-4.4173228346456694
11
3.7244094488188977
21
-2.2637795275590551
0
LINE
8
BLACK
6
CONTINUOUS
10
4.0433070866141732
20
-2.3582677165354329
11
4.090551181102362
21
-2.4055118110236218
0
LINE
8
BLACK
6
CONTINUOUS
10
4.090551181102362
20
-2.3582677165354329
11
4.0433070866141732
21
-2.4055118110236218
0
LINE
8
BLACK
6
CONTINUOUS
10
4.0433070866141732
20
-2.5944881889763778
11
4.090551181102362
21
-2.6417322834645667
0
LINE
8
BLACK
6
CONTINUOUS
10
4.090551181102362
20
-2.5944881889763778
11
4.0433070866141732
21
-2.6417322834645667
0
LINE
8
BLACK
6
CONTINUOUS
10
4.6338582677165352
20
-2.3582677165354329
11
4.6811023622047241
21
-2.4055118110236218
0
LINE
8
BLACK
6
CONTINUOUS
10
4.6811023622047241
20
-2.3582677165354329
11
4.6338582677165352
21
-2.4055118110236218
0
LINE
8
BLACK
6
CONTINUOUS
10
4.6338582677165352
20
-2.5944881889763778
11
4.6811023622047241
21
-2.6417322834645667
0
LINE
8
BLACK
6
CONTINUOUS
10
4.6811023622047241
20
-2.5944881889763778
11
4.6338582677165352
21
-2.6417322834645667
0
LINE
8
BLACK
6
CONTINUOUS
10
5.2244094488188972
20
-2.3582677165354329
11
5.2716535433070861
21
-2.4055118110236218
0
LINE
8
BLACK
6
CONTINUOUS
10
5.2716535433070861
20
-2.3582677165354329
11
5.2244094488188972
21
-2.4055118110236218
0
LINE
8
BLACK
6
CONTINUOUS
10
5.2244094488188972
20
-2.5944881889763778
11
5.2716535433070861
21
-2.6417322834645667
0
LINE
8
BLACK
6
CONTINUOUS
10
5.2716535433070861
20
-2.5944881889763778
11
5.2244094488188972
21
-2.6417322834645667
0
LINE
8
BLACK
6
CONTINUOUS
10
5.8149606299212593
20
-2.3582677165354329
11
5.8622047244094491
21
-2.4055118110236218
0
LINE
8
BLACK
6
CONTINUOUS
10
5.8622047244094491
20
-2.3582677165354329
11
5.8149606299212593
21
-2.4055118110236218
0
LINE
8
BLACK
6
CONTINUOUS
10
5.8149606299212593
20
-2.5944881889763778
11
5.8622047244094491
21
-2.6417322834645667
0
LINE
8
BLACK
6
CONTINUOUS
10
5.8622047244094491
20
-2.5944881889763778
11
5.8149606299212593
21
-2.6417322834645667
0
LINE
8
BLACK
6
CONTINUOUS
10
6.4055118110236222
20
-2.3582677165354329
11
6.4527559055118111
21
-2.4055118110236218
0
LINE
8
BLACK
6
CONTINUOUS
10
6.4527559055118111
20
-2.3582677165354329
11
6.4055118110236222
21
-2.4055118110236218
0
LINE
8
BLACK
6
CONTINUOUS
10
6.4055118110236222
20
-2.5944881889763778
11
6.4527559055118111
21
-2.6417322834645667
0
LINE
8
BLACK
6
CONTINUOUS
10
6.4527559055118111
20
-2.5944881889763778
11
6.4055118110236222
21
-2.6417322834645667
0
CIRCLE
8
BLACK
10
7.1214566929133856
20
-2.4578740157480317
40
0.0364173228346457
0
CIRCLE
8
BLACK
10
7.3124015748031495
20
-2.4578740157480317
40
0.0364173228346457
0
LINE
8
BLACK
6
CONTINUOUS
10
7.1096456692913383
20
-2.295275590551181
11
7.1096456692913383
21
-2.3818897637795273
0
LINE
8
BLACK
6
CONTINUOUS
10
7.0663385826771652
20
-2.3385826771653542
11
7.1529527559055115
21
-2.3385826771653542
0
LINE
8
BLACK
6
CONTINUOUS
10
7.3242125984251967
20
-2.295275590551181
11
7.3242125984251967
21
-2.3818897637795273
0
LINE
8
BLACK
6
CONTINUOUS
10
7.2809055118110235
20
-2.3385826771653542
11
7.3675196850393698
21
-2.3385826771653542
0
LINE
8
BLACK
6
CONTINUOUS
10
3.8260932283464566
20
-4.5409385039370074
11
3.8260932283464566
21
-4.4621983464566926
0
LINE
8
BLACK
6
CONTINUOUS
10
3.8260932283464566
20
-4.4621983464566926
11
3.8448408661417321
21
-4.4621983464566926
0
LINE
8
BLACK
6
CONTINUOUS
10
3.8448408661417321
20
-4.4621983464566926
11
3.8560894881889762
21
-4.4659478740157477
0
LINE
8
BLACK
6
CONTINUOUS
10
3.8560894881889762
20
-4.4659478740157477
11
3.8635885433070865
21
-4.4734469291338579
0
LINE
8
BLACK
6
CONTINUOUS
10
3.8635885433070865
20
-4.4734469291338579
11
3.8673380708661416
21
-4.4809459842519681
0
LINE
8
BLACK
6
CONTINUOUS
10
3.8673380708661416
20
-4.4809459842519681
11
3.8710875984251967
21
-4.4959440944881885
0
LINE
8
BLACK
6
CONTINUOUS
10
3.8710875984251967
20
-4.4959440944881885
11
3.8710875984251967
21
-4.5071927165354326
0
LINE
8
BLACK
6
CONTINUOUS
10
3.8710875984251967
20
-4.5071927165354326
11
3.8673380708661416
21
-4.5221908267716531
0
LINE
8
BLACK
6
CONTINUOUS
10
3.8673380708661416
20
-4.5221908267716531
11
3.8635885433070865
21
-4.5296898818897633
0
LINE
8
BLACK
6
CONTINUOUS
10
3.8635885433070865
20
-4.5296898818897633
11
3.8560894881889762
21
-4.5371889763779523
0
LINE
8
BLACK
6
CONTINUOUS
10
3.8560894881889762
20
-4.5371889763779523
11
3.8448408661417321
21
-4.5409385039370074
0
LINE
8
BLACK
6
CONTINUOUS
10
3.8448408661417321
20
-4.5409385039370074
11
3.8260932283464566
21
-4.5409385039370074
0
LINE
8
BLACK
6
CONTINUOUS
10
3.9048333858267714
20
-4.5409385039370074
11
3.9048333858267714
21
-4.4884450393700783
0
LINE
8
BLACK
6
CONTINUOUS
10
3.9048333858267714
20
-4.5034431889763775
11
3.9085829133858265
21
-4.4959440944881885
0
LINE
8
BLACK
6
CONTINUOUS
10
3.9085829133858265
20
-4.4959440944881885
11
3.9123324409448816
21
-4.4921945669291334
0
LINE
8
BLACK
6
CONTINUOUS
10
3.9123324409448816
20
-4.4921945669291334
11
3.9198314960629919
21
-4.4884450393700783
0
LINE
8
BLACK
6
CONTINUOUS
10
3.9198314960629919
20
-4.4884450393700783
11
3.9273305905511808
21
-4.4884450393700783
0
LINE
8
BLACK
6
CONTINUOUS
10
3.953577283464567
20
-4.5409385039370074
11
3.953577283464567
21
-4.4884450393700783
0
LINE
8
BLACK
6
CONTINUOUS
10
3.953577283464567
20
-4.4621983464566926
11
3.9498277559055119
21
-4.4659478740157477
0
LINE
8
BLACK
6
CONTINUOUS
10
3.9498277559055119
20
-4.4659478740157477
11
3.953577283464567
21
-4.4696974015748028
0
LINE
8
BLACK
6
CONTINUOUS
10
3.953577283464567
20
-4.4696974015748028
11
3.9573268110236222
21
-4.4659478740157477
0
LINE
8
BLACK
6
CONTINUOUS
10
3.9573268110236222
20
-4.4659478740157477
11
3.953577283464567
21
-4.4621983464566926
0
LINE
8
BLACK
6
CONTINUOUS
10
3.953577283464567
20
-4.4621983464566926
11
3.953577283464567
21
-4.4696974015748028
0
LINE
8
BLACK
6
CONTINUOUS
10
4.0023211811023618
20
-4.5409385039370074
11
3.994822125984252
21
-4.5371889763779523
0
LINE
8
BLACK
6
CONTINUOUS
10
3.994822125984252
20
-4.5371889763779523
11
3.9910725984251969
21
-4.5296898818897633
0
LINE
8
BLACK
6
CONTINUOUS
10
3.9910725984251969
20
-4.5296898818897633
11
3.9910725984251969
21
-4.4621983464566926
0
LINE
8
BLACK
6
CONTINUOUS
10
4.0435660236220468
20
-4.5409385039370074
11
4.0360669685039365
21
-4.5371889763779523
0
LINE
8
BLACK
6
CONTINUOUS
10
4.0360669685039365
20
-4.5371889763779523
11
4.0323174409448814
21
-4.5296898818897633
0
LINE
8
BLACK
6
CONTINUOUS
10
4.0323174409448814
20
-4.5296898818897633
11
4.0323174409448814
21
-4.4621983464566926
0
LINE
8
BLACK
6
CONTINUOUS
10
4.1335548031496065
20
-4.5409385039370074
11
4.1335548031496065
21
-4.4621983464566926
0
LINE
8
BLACK
6
CONTINUOUS
10
4.1335548031496065
20
-4.4621983464566926
11
4.1598015354330711
21
-4.518441299212598
0
LINE
8
BLACK
6
CONTINUOUS
10
4.1598015354330711
20
-4.518441299212598
11
4.1860482283464568
21
-4.4621983464566926
0
LINE
8
BLACK
6
CONTINUOUS
10
4.1860482283464568
20
-4.4621983464566926
11
4.1860482283464568
21
-4.5409385039370074
0
LINE
8
BLACK
6
CONTINUOUS
10
4.2572893307086614
20
-4.5409385039370074
11
4.2572893307086614
21
-4.4996936614173224
0
LINE
8
BLACK
6
CONTINUOUS
10
4.2572893307086614
20
-4.4996936614173224
11
4.2535398031496063
21
-4.4921945669291334
0
LINE
8
BLACK
6
CONTINUOUS
10
4.2535398031496063
20
-4.4921945669291334
11
4.2460407480314961
21
-4.4884450393700783
0
LINE
8
BLACK
6
CONTINUOUS
10
4.2460407480314961
20
-4.4884450393700783
11
4.2310425984251969
21
-4.4884450393700783
0
LINE
8
BLACK
6
CONTINUOUS
10
4.2310425984251969
20
-4.4884450393700783
11
4.2235435433070867
21
-4.4921945669291334
0
LINE
8
BLACK
6
CONTINUOUS
10
4.2572893307086614
20
-4.5371889763779523
11
4.2497902755905512
21
-4.5409385039370074
0
LINE
8
BLACK
6
CONTINUOUS
10
4.2497902755905512
20
-4.5409385039370074
11
4.2310425984251969
21
-4.5409385039370074
0
LINE
8
BLACK
6
CONTINUOUS
10
4.2310425984251969
20
-4.5409385039370074
11
4.2235435433070867
21
-4.5371889763779523
0
LINE
8
BLACK
6
CONTINUOUS
10
4.2235435433070867
20
-4.5371889763779523
11
4.2197940157480316
21
-4.5296898818897633
0
LINE
8
BLACK
6
CONTINUOUS
10
4.2197940157480316
20
-4.5296898818897633
11
4.2197940157480316
21
-4.5221908267716531
0
LINE
8
BLACK
6
CONTINUOUS
10
4.2197940157480316
20
-4.5221908267716531
11
4.2235435433070867
21
-4.5146917716535429
0
LINE
8
BLACK
6
CONTINUOUS
10
4.2235435433070867
20
-4.5146917716535429
11
4.2310425984251969
21
-4.5109422440944877
0
LINE
8
BLACK
6
CONTINUOUS
10
4.2310425984251969
20
-4.5109422440944877
11
4.2497902755905512
21
-4.5109422440944877
0
LINE
8
BLACK
6
CONTINUOUS
10
4.2497902755905512
20
-4.5109422440944877
11
4.2572893307086614
21
-4.5071927165354326
0
LINE
8
BLACK
6
CONTINUOUS
10
4.2947846456692913
20
-4.4884450393700783
11
4.2947846456692913
21
-4.567185196850394
0
LINE
8
BLACK
6
CONTINUOUS
10
4.2947846456692913
20
-4.4921945669291334
11
4.3022837007874015
21
-4.4884450393700783
0
LINE
8
BLACK
6
CONTINUOUS
10
4.3022837007874015
20
-4.4884450393700783
11
4.3172818503937007
21
-4.4884450393700783
0
LINE
8
BLACK
6
CONTINUOUS
10
4.3172818503937007
20
-4.4884450393700783
11
4.3247809055118109
21
-4.4921945669291334
0
LINE
8
BLACK
6
CONTINUOUS
10
4.3247809055118109
20
-4.4921945669291334
11
4.328530433070866
21
-4.4959440944881885
0
LINE
8
BLACK
6
CONTINUOUS
10
4.328530433070866
20
-4.4959440944881885
11
4.3322799606299212
21
-4.5034431889763775
0
LINE
8
BLACK
6
CONTINUOUS
10
4.3322799606299212
20
-4.5034431889763775
11
4.3322799606299212
21
-4.5259403543307082
0
LINE
8
BLACK
6
CONTINUOUS
10
4.3322799606299212
20
-4.5259403543307082
11
4.328530433070866
21
-4.5334394094488184
0
LINE
8
BLACK
6
CONTINUOUS
10
4.328530433070866
20
-4.5334394094488184
11
4.3247809055118109
21
-4.5371889763779523
0
LINE
8
BLACK
6
CONTINUOUS
10
4.3247809055118109
20
-4.5371889763779523
11
4.3172818503937007
21
-4.5409385039370074
0
LINE
8
BLACK
6
CONTINUOUS
10
4.3172818503937007
20
-4.5409385039370074
11
4.3022837007874015
21
-4.5409385039370074
0
LINE
8
BLACK
6
CONTINUOUS
10
4.3022837007874015
20
-4.5409385039370074
11
4.2947846456692913
21
-4.5371889763779523
0
LINE
8
BLACK
6
CONTINUOUS
10
4.3660257480314959
20
-4.5334394094488184
11
4.369775275590551
21
-4.5371889763779523
0
LINE
8
BLACK
6
CONTINUOUS
10
4.369775275590551
20
-4.5371889763779523
11
4.3660257480314959
21
-4.5409385039370074
0
LINE
8
BLACK
6
CONTINUOUS
10
4.3660257480314959
20
-4.5409385039370074
11
4.3622762204724408
21
-4.5371889763779523
0
LINE
8
BLACK
6
CONTINUOUS
10
4.3622762204724408
20
-4.5371889763779523
11
4.3660257480314959
21
-4.5334394094488184
0
LINE
8
BLACK
6
CONTINUOUS
10
4.3660257480314959
20
-4.5334394094488184
11
4.3660257480314959
21
-4.5409385039370074
0
LINE
8
BLACK
6
CONTINUOUS
10
4.3660257480314959
20
-4.4921945669291334
11
4.369775275590551
21
-4.4959440944881885
0
LINE
8
BLACK
6
CONTINUOUS
10
4.369775275590551
20
-4.4959440944881885
11
4.3660257480314959
21
-4.4996936614173224
0
LINE
8
BLACK
6
CONTINUOUS
10
4.3660257480314959
20
-4.4996936614173224
11
4.3622762204724408
21
-4.4959440944881885
0
LINE
8
BLACK
6
CONTINUOUS
10
4.3622762204724408
20
-4.4959440944881885
11
4.3660257480314959
21
-4.4921945669291334
0
LINE
8
BLACK
6
CONTINUOUS
10
4.3660257480314959
20
-4.4921945669291334
11
4.3660257480314959
21
-4.4996936614173224
0
LINE
8
BLACK
6
CONTINUOUS
10
3.6761811023622046
20
-4.6466535433070861
11
3.7234251968503935
21
-4.6938976377952759
0
LINE
8
BLACK
6
CONTINUOUS
10
3.7234251968503935
20
-4.6466535433070861
11
3.6761811023622046
21
-4.6938976377952759
0
LINE
8
BLACK
6
CONTINUOUS
10
3.8673380708661416
20
-4.7062928346456694
11
3.8223437007874015
21
-4.7062928346456694
0
LINE
8
BLACK
6
CONTINUOUS
10
3.8448408661417321
20
-4.7062928346456694
11
3.8448408661417321
21
-4.6275526771653546
0
LINE
8
BLACK
6
CONTINUOUS
10
3.8448408661417321
20
-4.6275526771653546
11
3.8373418110236219
21
-4.6388012598425199
0
LINE
8
BLACK
6
CONTINUOUS
10
3.8373418110236219
20
-4.6388012598425199
11
3.8298427559055117
21
-4.6463003149606301
0
LINE
8
BLACK
6
CONTINUOUS
10
3.8298427559055117
20
-4.6463003149606301
11
3.8223437007874015
21
-4.6500498425196852
0
LINE
8
BLACK
6
CONTINUOUS
10
3.9010838582677163
20
-4.6987937401574804
11
3.9048333858267714
21
-4.7025433070866143
0
LINE
8
BLACK
6
CONTINUOUS
10
3.9048333858267714
20
-4.7025433070866143
11
3.9010838582677163
21
-4.7062928346456694
0
LINE
8
BLACK
6
CONTINUOUS
10
3.9010838582677163
20
-4.7062928346456694
11
3.8973343307086612
21
-4.7025433070866143
0
LINE
8
BLACK
6
CONTINUOUS
10
3.8973343307086612
20
-4.7025433070866143
11
3.9010838582677163
21
-4.6987937401574804
0
LINE
8
BLACK
6
CONTINUOUS
10
3.9010838582677163
20
-4.6987937401574804
11
3.9010838582677163
21
-4.7062928346456694
0
LINE
8
BLACK
6
CONTINUOUS
10
3.9348296456692911
20
-4.6350517322834648
11
3.9385791732283462
21
-4.6313022047244097
0
LINE
8
BLACK
6
CONTINUOUS
10
3.9385791732283462
20
-4.6313022047244097
11
3.9460782283464564
21
-4.6275526771653546
0
LINE
8
BLACK
6
CONTINUOUS
10
3.9460782283464564
20
-4.6275526771653546
11
3.9648259055118111
21
-4.6275526771653546
0
LINE
8
BLACK
6
CONTINUOUS
10
3.9648259055118111
20
-4.6275526771653546
11
3.9723249606299214
21
-4.6313022047244097
0
LINE
8
BLACK
6
CONTINUOUS
10
3.9723249606299214
20
-4.6313022047244097
11
3.9760744881889765
21
-4.6350517322834648
0
LINE
8
BLACK
6
CONTINUOUS
10
3.9760744881889765
20
-4.6350517322834648
11
3.9798240157480316
21
-4.642550787401575
0
LINE
8
BLACK
6
CONTINUOUS
10
3.9798240157480316
20
-4.642550787401575
11
3.9798240157480316
21
-4.6500498425196852
0
LINE
8
BLACK
6
CONTINUOUS
10
3.9798240157480316
20
-4.6500498425196852
11
3.9760744881889765
21
-4.6612984251968506
0
LINE
8
BLACK
6
CONTINUOUS
10
3.9760744881889765
20
-4.6612984251968506
11
3.9310801181102359
21
-4.7062928346456694
0
LINE
8
BLACK
6
CONTINUOUS
10
3.9310801181102359
20
-4.7062928346456694
11
3.9798240157480316
21
-4.7062928346456694
0
LINE
8
BLACK
6
CONTINUOUS
10
4.0285679133858263
20
-4.6275526771653546
11
4.0360670078740153
21
-4.6275526771653546
0
LINE
8
BLACK
6
CONTINUOUS
10
4.0360670078740153
20
-4.6275526771653546
11
4.0435660629921255
21
-4.6313022047244097
0
LINE
8
BLACK
6
CONTINUOUS
10
4.0435660629921255
20
-4.6313022047244097
11
4.0473155905511806
21
-4.6350517322834648
0
LINE
8
BLACK
6
CONTINUOUS
10
4.0473155905511806
20
-4.6350517322834648
11
4.0510651181102357
21
-4.642550787401575
0
LINE
8
BLACK
6
CONTINUOUS
10
4.0510651181102357
20
-4.642550787401575
11
4.0548146456692908
21
-4.6575488976377954
0
LINE
8
BLACK
6
CONTINUOUS
10
4.0548146456692908
20
-4.6575488976377954
11
4.0548146456692908
21
-4.6762965748031498
0
LINE
8
BLACK
6
CONTINUOUS
10
4.0548146456692908
20
-4.6762965748031498
11
4.0510651181102357
21
-4.6912946850393702
0
LINE
8
BLACK
6
CONTINUOUS
10
4.0510651181102357
20
-4.6912946850393702
11
4.0473155905511806
21
-4.6987937401574804
0
LINE
8
BLACK
6
CONTINUOUS
10
4.0473155905511806
20
-4.6987937401574804
11
4.0435660629921255
21
-4.7025433070866143
0
LINE
8
BLACK
6
CONTINUOUS
10
4.0435660629921255
20
-4.7025433070866143
11
4.0360670078740153
21
-4.7062928346456694
0
LINE
8
BLACK
6
CONTINUOUS
10
4.0360670078740153
20
-4.7062928346456694
11
4.0285679133858263
21
-4.7062928346456694
0
LINE
8
BLACK
6
CONTINUOUS
10
4.0285679133858263
20
-4.7062928346456694
11
4.0210688582677161
21
-4.7025433070866143
0
LINE
8
BLACK
6
CONTINUOUS
10
4.0210688582677161
20
-4.7025433070866143
11
4.017319330708661
21
-4.6987937401574804
0
LINE
8
BLACK
6
CONTINUOUS
10
4.017319330708661
20
-4.6987937401574804
11
4.0135698031496059
21
-4.6912946850393702
0
LINE
8
BLACK
6
CONTINUOUS
10
4.0135698031496059
20
-4.6912946850393702
11
4.0098202755905508
21
-4.6762965748031498
0
LINE
8
BLACK
6
CONTINUOUS
10
4.0098202755905508
20
-4.6762965748031498
11
4.0098202755905508
21
-4.6575488976377954
0
LINE
8
BLACK
6
CONTINUOUS
10
4.0098202755905508
20
-4.6575488976377954
11
4.0135698031496059
21
-4.642550787401575
0
LINE
8
BLACK
6
CONTINUOUS
10
4.0135698031496059
20
-4.642550787401575
11
4.017319330708661
21
-4.6350517322834648
0
LINE
8
BLACK
6
CONTINUOUS
10
4.017319330708661
20
-4.6350517322834648
11
4.0210688582677161
21
-4.6313022047244097
0
LINE
8
BLACK
6
CONTINUOUS
10
4.0210688582677161
20
-4.6313022047244097
11
4.0285679133858263
21
-4.6275526771653546
0
LINE
8
BLACK
6
CONTINUOUS
10
4.1035585433070869
20
-4.6275526771653546
11
4.1110576377952759
21
-4.6275526771653546
0
LINE
8
BLACK
6
CONTINUOUS
10
4.1110576377952759
20
-4.6275526771653546
11
4.1185566929133861
21
-4.6313022047244097
0
LINE
8
BLACK
6
CONTINUOUS
10
4.1185566929133861
20
-4.6313022047244097
11
4.1223062204724412
21
-4.6350517322834648
0
LINE
8
BLACK
6
CONTINUOUS
10
4.1223062204724412
20
-4.6350517322834648
11
4.1260557480314963
21
-4.642550787401575
0
LINE
8
BLACK
6
CONTINUOUS
10
4.1260557480314963
20
-4.642550787401575
11
4.1298052755905514
21
-4.6575488976377954
0
LINE
8
BLACK
6
CONTINUOUS
10
4.1298052755905514
20
-4.6575488976377954
11
4.1298052755905514
21
-4.6762965748031498
0
LINE
8
BLACK
6
CONTINUOUS
10
4.1298052755905514
20
-4.6762965748031498
11
4.1260557480314963
21
-4.6912946850393702
0
LINE
8
BLACK
6
CONTINUOUS
10
4.1260557480314963
20
-4.6912946850393702
11
4.1223062204724412
21
-4.6987937401574804
0
LINE
8
BLACK
6
CONTINUOUS
10
4.1223062204724412
20
-4.6987937401574804
11
4.1185566929133861
21
-4.7025433070866143
0
LINE
8
BLACK
6
CONTINUOUS
10
4.1185566929133861
20
-4.7025433070866143
11
4.1110576377952759
21
-4.7062928346456694
0
LINE
8
BLACK
6
CONTINUOUS
10
4.1110576377952759
20
-4.7062928346456694
11
4.1035585433070869
21
-4.7062928346456694
0
LINE
8
BLACK
6
CONTINUOUS
10
4.1035585433070869
20
-4.7062928346456694
11
4.0960594881889767
21
-4.7025433070866143
0
LINE
8
BLACK
6
CONTINUOUS
10
4.0960594881889767
20
-4.7025433070866143
11
4.0923099606299216
21
-4.6987937401574804
0
LINE
8
BLACK
6
CONTINUOUS
10
4.0923099606299216
20
-4.6987937401574804
11
4.0885604330708665
21
-4.6912946850393702
0
LINE
8
BLACK
6
CONTINUOUS
10
4.0885604330708665
20
-4.6912946850393702
11
4.0848109055118114
21
-4.6762965748031498
0
LINE
8
BLACK
6
CONTINUOUS
10
4.0848109055118114
20
-4.6762965748031498
11
4.0848109055118114
21
-4.6575488976377954
0
LINE
8
BLACK
6
CONTINUOUS
10
4.0848109055118114
20
-4.6575488976377954
11
4.0885604330708665
21
-4.642550787401575
0
LINE
8
BLACK
6
CONTINUOUS
10
4.0885604330708665
20
-4.642550787401575
11
4.0923099606299216
21
-4.6350517322834648
0
LINE
8
BLACK
6
CONTINUOUS
10
4.0923099606299216
20
-4.6350517322834648
11
4.0960594881889767
21
-4.6313022047244097
0
LINE
8
BLACK
6
CONTINUOUS
10
4.0960594881889767
20
-4.6313022047244097
11
4.1035585433070869
21
-4.6275526771653546
0
LINE
8
BLACK
6
CONTINUOUS
10
4.1635510629921262
20
-4.7062928346456694
11
4.1635510629921262
21
-4.6537993700787403
0
LINE
8
BLACK
6
CONTINUOUS
10
4.1635510629921262
20
-4.6612984251968506
11
4.1673005905511813
21
-4.6575488976377954
0
LINE
8
BLACK
6
CONTINUOUS
10
4.1673005905511813
20
-4.6575488976377954
11
4.1747996456692915
21
-4.6537993700787403
0
LINE
8
BLACK
6
CONTINUOUS
10
4.1747996456692915
20
-4.6537993700787403
11
4.1860482677165356
21
-4.6537993700787403
0
LINE
8
BLACK
6
CONTINUOUS
10
4.1860482677165356
20
-4.6537993700787403
11
4.1935473228346458
21
-4.6575488976377954
0
LINE
8
BLACK
6
CONTINUOUS
10
4.1935473228346458
20
-4.6575488976377954
11
4.1972968503937009
21
-4.6650479921259844
0
LINE
8
BLACK
6
CONTINUOUS
10
4.1972968503937009
20
-4.6650479921259844
11
4.1972968503937009
21
-4.7062928346456694
0
LINE
8
BLACK
6
CONTINUOUS
10
4.1972968503937009
20
-4.6650479921259844
11
4.201046377952756
21
-4.6575488976377954
0
LINE
8
BLACK
6
CONTINUOUS
10
4.201046377952756
20
-4.6575488976377954
11
4.2085454330708663
21
-4.6537993700787403
0
LINE
8
BLACK
6
CONTINUOUS
10
4.2085454330708663
20
-4.6537993700787403
11
4.2197940157480316
21
-4.6537993700787403
0
LINE
8
BLACK
6
CONTINUOUS
10
4.2197940157480316
20
-4.6537993700787403
11
4.2272931102362206
21
-4.6575488976377954
0
LINE
8
BLACK
6
CONTINUOUS
10
4.2272931102362206
20
-4.6575488976377954
11
4.2310426377952757
21
-4.6650479921259844
0
LINE
8
BLACK
6
CONTINUOUS
10
4.2310426377952757
20
-4.6650479921259844
11
4.2310426377952757
21
-4.7062928346456694
0
LINE
8
BLACK
6
CONTINUOUS
10
4.2685379527559055
20
-4.7062928346456694
11
4.2685379527559055
21
-4.6537993700787403
0
LINE
8
BLACK
6
CONTINUOUS
10
4.2685379527559055
20
-4.6612984251968506
11
4.2722874803149606
21
-4.6575488976377954
0
LINE
8
BLACK
6
CONTINUOUS
10
4.2722874803149606
20
-4.6575488976377954
11
4.2797865354330709
21
-4.6537993700787403
0
LINE
8
BLACK
6
CONTINUOUS
10
4.2797865354330709
20
-4.6537993700787403
11
4.2910351574803149
21
-4.6537993700787403
0
LINE
8
BLACK
6
CONTINUOUS
10
4.2910351574803149
20
-4.6537993700787403
11
4.2985342125984252
21
-4.6575488976377954
0
LINE
8
BLACK
6
CONTINUOUS
10
4.2985342125984252
20
-4.6575488976377954
11
4.3022837401574803
21
-4.6650479921259844
0
LINE
8
BLACK
6
CONTINUOUS
10
4.3022837401574803
20
-4.6650479921259844
11
4.3022837401574803
21
-4.7062928346456694
0
LINE
8
BLACK
6
CONTINUOUS
10
4.3022837401574803
20
-4.6650479921259844
11
4.3060332677165354
21
-4.6575488976377954
0
LINE
8
BLACK
6
CONTINUOUS
10
4.3060332677165354
20
-4.6575488976377954
11
4.3135323228346456
21
-4.6537993700787403
0
LINE
8
BLACK
6
CONTINUOUS
10
4.3135323228346456
20
-4.6537993700787403
11
4.3247809055118109
21
-4.6537993700787403
0
LINE
8
BLACK
6
CONTINUOUS
10
4.3247809055118109
20
-4.6537993700787403
11
4.3322799999999999
21
-4.6575488976377954
0
LINE
8
BLACK
6
CONTINUOUS
10
4.3322799999999999
20
-4.6575488976377954
11
4.336029527559055
21
-4.6650479921259844
0
LINE
8
BLACK
6
CONTINUOUS
10
4.336029527559055
20
-4.6650479921259844
11
4.336029527559055
21
-4.7062928346456694
0
LINE
8
BLACK
6
CONTINUOUS
10
4.4897603149606296
20
-4.6238031496062995
11
4.4222687795275588
21
-4.7250404724409449
0
LINE
8
BLACK
6
CONTINUOUS
10
4.5909976771653538
20
-4.6275526771653546
11
4.5984967716535428
21
-4.6275526771653546
0
LINE
8
BLACK
6
CONTINUOUS
10
4.5984967716535428
20
-4.6275526771653546
11
4.6059958267716539
21
-4.6313022047244097
0
LINE
8
BLACK
6
CONTINUOUS
10
4.6059958267716539
20
-4.6313022047244097
11
4.609745354330709
21
-4.6350517322834648
0
LINE
8
BLACK
6
CONTINUOUS
10
4.609745354330709
20
-4.6350517322834648
11
4.6134948818897641
21
-4.642550787401575
0
LINE
8
BLACK
6
CONTINUOUS
10
4.6134948818897641
20
-4.642550787401575
11
4.6172444094488192
21
-4.6575488976377954
0
LINE
8
BLACK
6
CONTINUOUS
10
4.6172444094488192
20
-4.6575488976377954
11
4.6172444094488192
21
-4.6762965748031498
0
LINE
8
BLACK
6
CONTINUOUS
10
4.6172444094488192
20
-4.6762965748031498
11
4.6134948818897641
21
-4.6912946850393702
0
LINE
8
BLACK
6
CONTINUOUS
10
4.6134948818897641
20
-4.6912946850393702
11
4.609745354330709
21
-4.6987937401574804
0
LINE
8
BLACK
6
CONTINUOUS
10
4.609745354330709
20
-4.6987937401574804
11
4.6059958267716539
21
-4.7025433070866143
0
LINE
8
BLACK
6
CONTINUOUS
10
4.6059958267716539
20
-4.7025433070866143
11
4.5984967716535428
21
-4.7062928346456694
0
LINE
8
BLACK
6
CONTINUOUS
10
4.5984967716535428
20
-4.7062928346456694
11
4.5909976771653538
21
-4.7062928346456694
0
LINE
8
BLACK
6
CONTINUOUS
10
4.5909976771653538
20
-4.7062928346456694
11
4.5834986220472436
21
-4.7025433070866143
0
LINE
8
BLACK
6
CONTINUOUS
10
4.5834986220472436
20
-4.7025433070866143
11
4.5797490944881885
21
-4.6987937401574804
0
LINE
8
BLACK
6
CONTINUOUS
10
4.5797490944881885
20
-4.6987937401574804
11
4.5759995669291333
21
-4.6912946850393702
0
LINE
8
BLACK
6
CONTINUOUS
10
4.5759995669291333
20
-4.6912946850393702
11
4.5722500393700782
21
-4.6762965748031498
0
LINE
8
BLACK
6
CONTINUOUS
10
4.5722500393700782
20
-4.6762965748031498
11
4.5722500393700782
21
-4.6575488976377954
0
LINE
8
BLACK
6
CONTINUOUS
10
4.5722500393700782
20
-4.6575488976377954
11
4.5759995669291333
21
-4.642550787401575
0
LINE
8
BLACK
6
CONTINUOUS
10
4.5759995669291333
20
-4.642550787401575
11
4.5797490944881885
21
-4.6350517322834648
0
LINE
8
BLACK
6
CONTINUOUS
10
4.5797490944881885
20
-4.6350517322834648
11
4.5834986220472436
21
-4.6313022047244097
0
LINE
8
BLACK
6
CONTINUOUS
10
4.5834986220472436
20
-4.6313022047244097
11
4.5909976771653538
21
-4.6275526771653546
0
LINE
8
BLACK
6
CONTINUOUS
10
4.6509901968503939
20
-4.6987937401574804
11
4.6547397244094491
21
-4.7025433070866143
0
LINE
8
BLACK
6
CONTINUOUS
10
4.6547397244094491
20
-4.7025433070866143
11
4.6509901968503939
21
-4.7062928346456694
0
LINE
8
BLACK
6
CONTINUOUS
10
4.6509901968503939
20
-4.7062928346456694
11
4.6472406692913388
21
-4.7025433070866143
0
LINE
8
BLACK
6
CONTINUOUS
10
4.6472406692913388
20
-4.7025433070866143
11
4.6509901968503939
21
-4.6987937401574804
0
LINE
8
BLACK
6
CONTINUOUS
10
4.6509901968503939
20
-4.6987937401574804
11
4.6509901968503939
21
-4.7062928346456694
0
LINE
8
BLACK
6
CONTINUOUS
10
4.7034836220472442
20
-4.6275526771653546
11
4.7109827165354332
21
-4.6275526771653546
0
LINE
8
BLACK
6
CONTINUOUS
10
4.7109827165354332
20
-4.6275526771653546
11
4.7184817716535434
21
-4.6313022047244097
0
LINE
8
BLACK
6
CONTINUOUS
10
4.7184817716535434
20
-4.6313022047244097
11
4.7222312992125985
21
-4.6350517322834648
0
LINE
8
BLACK
6
CONTINUOUS
10
4.7222312992125985
20
-4.6350517322834648
11
4.7259808267716537
21
-4.642550787401575
0
LINE
8
BLACK
6
CONTINUOUS
10
4.7259808267716537
20
-4.642550787401575
11
4.7297303543307088
21
-4.6575488976377954
0
LINE
8
BLACK
6
CONTINUOUS
10
4.7297303543307088
20
-4.6575488976377954
11
4.7297303543307088
21
-4.6762965748031498
0
LINE
8
BLACK
6
CONTINUOUS
10
4.7297303543307088
20
-4.6762965748031498
11
4.7259808267716537
21
-4.6912946850393702
0
LINE
8
BLACK
6
CONTINUOUS
10
4.7259808267716537
20
-4.6912946850393702
11
4.7222312992125985
21
-4.6987937401574804
0
LINE
8
BLACK
6
CONTINUOUS
10
4.7222312992125985
20
-4.6987937401574804
11
4.7184817716535434
21
-4.7025433070866143
0
LINE
8
BLACK
6
CONTINUOUS
10
4.7184817716535434
20
-4.7025433070866143
11
4.7109827165354332
21
-4.7062928346456694
0
LINE
8
BLACK
6
CONTINUOUS
10
4.7109827165354332
20
-4.7062928346456694
11
4.7034836220472442
21
-4.7062928346456694
0
LINE
8
BLACK
6
CONTINUOUS
10
4.7034836220472442
20
-4.7062928346456694
11
4.695984566929134
21
-4.7025433070866143
0
LINE
8
BLACK
6
CONTINUOUS
10
4.695984566929134
20
-4.7025433070866143
11
4.6922350393700789
21
-4.6987937401574804
0
LINE
8
BLACK
6
CONTINUOUS
10
4.6922350393700789
20
-4.6987937401574804
11
4.6884855118110238
21
-4.6912946850393702
0
LINE
8
BLACK
6
CONTINUOUS
10
4.6884855118110238
20
-4.6912946850393702
11
4.6847359842519687
21
-4.6762965748031498
0
LINE
8
BLACK
6
CONTINUOUS
10
4.6847359842519687
20
-4.6762965748031498
11
4.6847359842519687
21
-4.6575488976377954
0
LINE
8
BLACK
6
CONTINUOUS
10
4.6847359842519687
20
-4.6575488976377954
11
4.6884855118110238
21
-4.642550787401575
0
LINE
8
BLACK
6
CONTINUOUS
10
4.6884855118110238
20
-4.642550787401575
11
4.6922350393700789
21
-4.6350517322834648
0
LINE
8
BLACK
6
CONTINUOUS
10
4.6922350393700789
20
-4.6350517322834648
11
4.695984566929134
21
-4.6313022047244097
0
LINE
8
BLACK
6
CONTINUOUS
10
4.695984566929134
20
-4.6313022047244097
11
4.7034836220472442
21
-4.6275526771653546
0
LINE
8
BLACK
6
CONTINUOUS
10
4.7972219291338583
20
-4.6537993700787403
11
4.7972219291338583
21
-4.7062928346456694
0
LINE
8
BLACK
6
CONTINUOUS
10
4.7784742519685039
20
-4.6238031496062995
11
4.7597266141732284
21
-4.6800461023622049
0
LINE
8
BLACK
6
CONTINUOUS
10
4.7597266141732284
20
-4.6800461023622049
11
4.8084705118110236
21
-4.6800461023622049
0
LINE
8
BLACK
6
CONTINUOUS
10
4.830967716535433
20
-4.6275526771653546
11
4.8834611417322833
21
-4.6275526771653546
0
LINE
8
BLACK
6
CONTINUOUS
10
4.8834611417322833
20
-4.6275526771653546
11
4.8497153543307085
21
-4.7062928346456694
0
LINE
8
BLACK
6
CONTINUOUS
10
4.9097078740157478
20
-4.6350517322834648
11
4.9134574015748029
21
-4.6313022047244097
0
LINE
8
BLACK
6
CONTINUOUS
10
4.9134574015748029
20
-4.6313022047244097
11
4.9209564566929132
21
-4.6275526771653546
0
LINE
8
BLACK
6
CONTINUOUS
10
4.9209564566929132
20
-4.6275526771653546
11
4.9397041338582675
21
-4.6275526771653546
0
LINE
8
BLACK
6
CONTINUOUS
10
4.9397041338582675
20
-4.6275526771653546
11
4.9472031889763777
21
-4.6313022047244097
0
LINE
8
BLACK
6
CONTINUOUS
10
4.9472031889763777
20
-4.6313022047244097
11
4.9509527165354328
21
-4.6350517322834648
0
LINE
8
BLACK
6
CONTINUOUS
10
4.9509527165354328
20
-4.6350517322834648
11
4.9547022440944879
21
-4.642550787401575
0
LINE
8
BLACK
6
CONTINUOUS
10
4.9547022440944879
20
-4.642550787401575
11
4.9547022440944879
21
-4.6500498425196852
0
LINE
8
BLACK
6
CONTINUOUS
10
4.9547022440944879
20
-4.6500498425196852
11
4.9509527165354328
21
-4.6612984251968506
0
LINE
8
BLACK
6
CONTINUOUS
10
4.9509527165354328
20
-4.6612984251968506
11
4.9059583464566927
21
-4.7062928346456694
0
LINE
8
BLACK
6
CONTINUOUS
10
4.9059583464566927
20
-4.7062928346456694
11
4.9547022440944879
21
-4.7062928346456694
0
LINE
8
BLACK
6
CONTINUOUS
10
4.9846985039370075
20
-4.6275526771653546
11
4.9846985039370075
21
-4.642550787401575
0
LINE
8
BLACK
6
CONTINUOUS
10
5.0146947637795272
20
-4.6275526771653546
11
5.0146947637795272
21
-4.642550787401575
0
LINE
8
BLACK
6
CONTINUOUS
10
5.1309302755905515
20
-4.7362890551181103
11
5.1271807086614176
21
-4.7325395275590552
0
LINE
8
BLACK
6
CONTINUOUS
10
5.1271807086614176
20
-4.7325395275590552
11
5.1196816535433074
21
-4.7212909448818898
0
LINE
8
BLACK
6
CONTINUOUS
10
5.1196816535433074
20
-4.7212909448818898
11
5.1159321259842523
21
-4.7137918897637796
0
LINE
8
BLACK
6
CONTINUOUS
10
5.1159321259842523
20
-4.7137918897637796
11
5.1121825984251972
21
-4.7025433070866143
0
LINE
8
BLACK
6
CONTINUOUS
10
5.1121825984251972
20
-4.7025433070866143
11
5.1084330708661412
21
-4.68379562992126
0
LINE
8
BLACK
6
CONTINUOUS
10
5.1084330708661412
20
-4.68379562992126
11
5.1084330708661412
21
-4.6687975196850395
0
LINE
8
BLACK
6
CONTINUOUS
10
5.1084330708661412
20
-4.6687975196850395
11
5.1121825984251972
21
-4.6500498425196852
0
LINE
8
BLACK
6
CONTINUOUS
10
5.1121825984251972
20
-4.6500498425196852
11
5.1159321259842523
21
-4.6388012598425199
0
LINE
8
BLACK
6
CONTINUOUS
10
5.1159321259842523
20
-4.6388012598425199
11
5.1196816535433074
21
-4.6313022047244097
0
LINE
8
BLACK
6
CONTINUOUS
10
5.1196816535433074
20
-4.6313022047244097
11
5.1271807086614176
21
-4.6200535826771656
0
LINE
8
BLACK
6
CONTINUOUS
10
5.1271807086614176
20
-4.6200535826771656
11
5.1309302755905515
21
-4.6163040551181105
0
LINE
8
BLACK
6
CONTINUOUS
10
5.2021713385826773
20
-4.7062928346456694
11
5.1571769685039373
21
-4.7062928346456694
0
LINE
8
BLACK
6
CONTINUOUS
10
5.1796741338582679
20
-4.7062928346456694
11
5.1796741338582679
21
-4.6275526771653546
0
LINE
8
BLACK
6
CONTINUOUS
10
5.1796741338582679
20
-4.6275526771653546
11
5.1721750787401577
21
-4.6388012598425199
0
LINE
8
BLACK
6
CONTINUOUS
10
5.1721750787401577
20
-4.6388012598425199
11
5.1646760236220475
21
-4.6463003149606301
0
LINE
8
BLACK
6
CONTINUOUS
10
5.1646760236220475
20
-4.6463003149606301
11
5.1571769685039373
21
-4.6500498425196852
0
LINE
8
BLACK
6
CONTINUOUS
10
5.2509152362204725
20
-4.6275526771653546
11
5.2584143307086615
21
-4.6275526771653546
0
LINE
8
BLACK
6
CONTINUOUS
10
5.2584143307086615
20
-4.6275526771653546
11
5.2659133858267717
21
-4.6313022047244097
0
LINE
8
BLACK
6
CONTINUOUS
10
5.2659133858267717
20
-4.6313022047244097
11
5.2696629133858268
21
-4.6350517322834648
0
LINE
8
BLACK
6
CONTINUOUS
10
5.2696629133858268
20
-4.6350517322834648
11
5.2734124409448819
21
-4.642550787401575
0
LINE
8
BLACK
6
CONTINUOUS
10
5.2734124409448819
20
-4.642550787401575
11
5.277161968503937
21
-4.6575488976377954
0
LINE
8
BLACK
6
CONTINUOUS
10
5.277161968503937
20
-4.6575488976377954
11
5.277161968503937
21
-4.6762965748031498
0
LINE
8
BLACK
6
CONTINUOUS
10
5.277161968503937
20
-4.6762965748031498
11
5.2734124409448819
21
-4.6912946850393702
0
LINE
8
BLACK
6
CONTINUOUS
10
5.2734124409448819
20
-4.6912946850393702
11
5.2696629133858268
21
-4.6987937401574804
0
LINE
8
BLACK
6
CONTINUOUS
10
5.2696629133858268
20
-4.6987937401574804
11
5.2659133858267717
21
-4.7025433070866143
0
LINE
8
BLACK
6
CONTINUOUS
10
5.2659133858267717
20
-4.7025433070866143
11
5.2584143307086615
21
-4.7062928346456694
0
LINE
8
BLACK
6
CONTINUOUS
10
5.2584143307086615
20
-4.7062928346456694
11
5.2509152362204725
21
-4.7062928346456694
0
LINE
8
BLACK
6
CONTINUOUS
10
5.2509152362204725
20
-4.7062928346456694
11
5.2434161811023623
21
-4.7025433070866143
0
LINE
8
BLACK
6
CONTINUOUS
10
5.2434161811023623
20
-4.7025433070866143
11
5.2396666535433072
21
-4.6987937401574804
0
LINE
8
BLACK
6
CONTINUOUS
10
5.2396666535433072
20
-4.6987937401574804
11
5.2359171259842521
21
-4.6912946850393702
0
LINE
8
BLACK
6
CONTINUOUS
10
5.2359171259842521
20
-4.6912946850393702
11
5.232167598425197
21
-4.6762965748031498
0
LINE
8
BLACK
6
CONTINUOUS
10
5.232167598425197
20
-4.6762965748031498
11
5.232167598425197
21
-4.6575488976377954
0
LINE
8
BLACK
6
CONTINUOUS
10
5.232167598425197
20
-4.6575488976377954
11
5.2359171259842521
21
-4.642550787401575
0
LINE
8
BLACK
6
CONTINUOUS
10
5.2359171259842521
20
-4.642550787401575
11
5.2396666535433072
21
-4.6350517322834648
0
LINE
8
BLACK
6
CONTINUOUS
10
5.2396666535433072
20
-4.6350517322834648
11
5.2434161811023623
21
-4.6313022047244097
0
LINE
8
BLACK
6
CONTINUOUS
10
5.2434161811023623
20
-4.6313022047244097
11
5.2509152362204725
21
-4.6275526771653546
0
LINE
8
BLACK
6
CONTINUOUS
10
5.3709002755905511
20
-4.7062928346456694
11
5.3709002755905511
21
-4.6275526771653546
0
LINE
8
BLACK
6
CONTINUOUS
10
5.4046460629921258
20
-4.7062928346456694
11
5.4046460629921258
21
-4.6650479921259844
0
LINE
8
BLACK
6
CONTINUOUS
10
5.4046460629921258
20
-4.6650479921259844
11
5.4008965354330707
21
-4.6575488976377954
0
LINE
8
BLACK
6
CONTINUOUS
10
5.4008965354330707
20
-4.6575488976377954
11
5.3933974803149605
21
-4.6537993700787403
0
LINE
8
BLACK
6
CONTINUOUS
10
5.3933974803149605
20
-4.6537993700787403
11
5.3821488582677164
21
-4.6537993700787403
0
LINE
8
BLACK
6
CONTINUOUS
10
5.3821488582677164
20
-4.6537993700787403
11
5.3746498031496062
21
-4.6575488976377954
0
LINE
8
BLACK
6
CONTINUOUS
10
5.3746498031496062
20
-4.6575488976377954
11
5.3709002755905511
21
-4.6612984251968506
0
LINE
8
BLACK
6
CONTINUOUS
10
5.453389960629921
20
-4.7062928346456694
11
5.4458909055118108
21
-4.7025433070866143
0
LINE
8
BLACK
6
CONTINUOUS
10
5.4458909055118108
20
-4.7025433070866143
11
5.4421413779527557
21
-4.6987937401574804
0
LINE
8
BLACK
6
CONTINUOUS
10
5.4421413779527557
20
-4.6987937401574804
11
5.4383918503937005
21
-4.6912946850393702
0
LINE
8
BLACK
6
CONTINUOUS
10
5.4383918503937005
20
-4.6912946850393702
11
5.4383918503937005
21
-4.6687975196850395
0
LINE
8
BLACK
6
CONTINUOUS
10
5.4383918503937005
20
-4.6687975196850395
11
5.4421413779527557
21
-4.6612984251968506
0
LINE
8
BLACK
6
CONTINUOUS
10
5.4421413779527557
20
-4.6612984251968506
11
5.4458909055118108
21
-4.6575488976377954
0
LINE
8
BLACK
6
CONTINUOUS
10
5.4458909055118108
20
-4.6575488976377954
11
5.453389960629921
21
-4.6537993700787403
0
LINE
8
BLACK
6
CONTINUOUS
10
5.453389960629921
20
-4.6537993700787403
11
5.4646385826771651
21
-4.6537993700787403
0
LINE
8
BLACK
6
CONTINUOUS
10
5.4646385826771651
20
-4.6537993700787403
11
5.4721376377952753
21
-4.6575488976377954
0
LINE
8
BLACK
6
CONTINUOUS
10
5.4721376377952753
20
-4.6575488976377954
11
5.4758871653543304
21
-4.6612984251968506
0
LINE
8
BLACK
6
CONTINUOUS
10
5.4758871653543304
20
-4.6612984251968506
11
5.4796366929133855
21
-4.6687975196850395
0
LINE
8
BLACK
6
CONTINUOUS
10
5.4796366929133855
20
-4.6687975196850395
11
5.4796366929133855
21
-4.6912946850393702
0
LINE
8
BLACK
6
CONTINUOUS
10
5.4796366929133855
20
-4.6912946850393702
11
5.4758871653543304
21
-4.6987937401574804
0
LINE
8
BLACK
6
CONTINUOUS
10
5.4758871653543304
20
-4.6987937401574804
11
5.4721376377952753
21
-4.7025433070866143
0
LINE
8
BLACK
6
CONTINUOUS
10
5.4721376377952753
20
-4.7025433070866143
11
5.4646385826771651
21
-4.7062928346456694
0
LINE
8
BLACK
6
CONTINUOUS
10
5.4646385826771651
20
-4.7062928346456694
11
5.453389960629921
21
-4.7062928346456694
0
LINE
8
BLACK
6
CONTINUOUS
10
5.5246310629921256
20
-4.7062928346456694
11
5.5171320078740154
21
-4.7025433070866143
0
LINE
8
BLACK
6
CONTINUOUS
10
5.5171320078740154
20
-4.7025433070866143
11
5.5133824803149603
21
-4.6950442125984253
0
LINE
8
BLACK
6
CONTINUOUS
10
5.5133824803149603
20
-4.6950442125984253
11
5.5133824803149603
21
-4.6275526771653546
0
LINE
8
BLACK
6
CONTINUOUS
10
5.5846235826771649
20
-4.7025433070866143
11
5.5771245275590546
21
-4.7062928346456694
0
LINE
8
BLACK
6
CONTINUOUS
10
5.5771245275590546
20
-4.7062928346456694
11
5.5621263779527554
21
-4.7062928346456694
0
LINE
8
BLACK
6
CONTINUOUS
10
5.5621263779527554
20
-4.7062928346456694
11
5.5546273228346452
21
-4.7025433070866143
0
LINE
8
BLACK
6
CONTINUOUS
10
5.5546273228346452
20
-4.7025433070866143
11
5.5508777952755901
21
-4.6950442125984253
0
LINE
8
BLACK
6
CONTINUOUS
10
5.5508777952755901
20
-4.6950442125984253
11
5.5508777952755901
21
-4.6650479921259844
0
LINE
8
BLACK
6
CONTINUOUS
10
5.5508777952755901
20
-4.6650479921259844
11
5.5546273228346452
21
-4.6575488976377954
0
LINE
8
BLACK
6
CONTINUOUS
10
5.5546273228346452
20
-4.6575488976377954
11
5.5621263779527554
21
-4.6537993700787403
0
LINE
8
BLACK
6
CONTINUOUS
10
5.5621263779527554
20
-4.6537993700787403
11
5.5771245275590546
21
-4.6537993700787403
0
LINE
8
BLACK
6
CONTINUOUS
10
5.5771245275590546
20
-4.6537993700787403
11
5.5846235826771649
21
-4.6575488976377954
0
LINE
8
BLACK
6
CONTINUOUS
10
5.5846235826771649
20
-4.6575488976377954
11
5.58837311023622
21
-4.6650479921259844
0
LINE
8
BLACK
6
CONTINUOUS
10
5.58837311023622
20
-4.6650479921259844
11
5.58837311023622
21
-4.6725470472440946
0
LINE
8
BLACK
6
CONTINUOUS
10
5.58837311023622
20
-4.6725470472440946
11
5.5508777952755901
21
-4.6800461023622049
0
LINE
8
BLACK
6
CONTINUOUS
10
5.6183693700787396
20
-4.7025433070866143
11
5.6258684251968507
21
-4.7062928346456694
0
LINE
8
BLACK
6
CONTINUOUS
10
5.6258684251968507
20
-4.7062928346456694
11
5.6408665354330711
21
-4.7062928346456694
0
LINE
8
BLACK
6
CONTINUOUS
10
5.6408665354330711
20
-4.7062928346456694
11
5.6483656299212601
21
-4.7025433070866143
0
LINE
8
BLACK
6
CONTINUOUS
10
5.6483656299212601
20
-4.7025433070866143
11
5.6521151574803152
21
-4.6950442125984253
0
LINE
8
BLACK
6
CONTINUOUS
10
5.6521151574803152
20
-4.6950442125984253
11
5.6521151574803152
21
-4.6912946850393702
0
LINE
8
BLACK
6
CONTINUOUS
10
5.6521151574803152
20
-4.6912946850393702
11
5.6483656299212601
21
-4.68379562992126
0
LINE
8
BLACK
6
CONTINUOUS
10
5.6483656299212601
20
-4.68379562992126
11
5.6408665354330711
21
-4.6800461023622049
0
LINE
8
BLACK
6
CONTINUOUS
10
5.6408665354330711
20
-4.6800461023622049
11
5.6296179527559058
21
-4.6800461023622049
0
LINE
8
BLACK
6
CONTINUOUS
10
5.6296179527559058
20
-4.6800461023622049
11
5.6221188976377947
21
-4.6762965748031498
0
LINE
8
BLACK
6
CONTINUOUS
10
5.6221188976377947
20
-4.6762965748031498
11
5.6183693700787396
21
-4.6687975196850395
0
LINE
8
BLACK
6
CONTINUOUS
10
5.6183693700787396
20
-4.6687975196850395
11
5.6183693700787396
21
-4.6650479921259844
0
LINE
8
BLACK
6
CONTINUOUS
10
5.6183693700787396
20
-4.6650479921259844
11
5.6221188976377947
21
-4.6575488976377954
0
LINE
8
BLACK
6
CONTINUOUS
10
5.6221188976377947
20
-4.6575488976377954
11
5.6296179527559058
21
-4.6537993700787403
0
LINE
8
BLACK
6
CONTINUOUS
10
5.6296179527559058
20
-4.6537993700787403
11
5.6408665354330711
21
-4.6537993700787403
0
LINE
8
BLACK
6
CONTINUOUS
10
5.6408665354330711
20
-4.6537993700787403
11
5.6483656299212601
21
-4.6575488976377954
0
LINE
8
BLACK
6
CONTINUOUS
10
5.6783618897637798
20
-4.7362890551181103
11
5.6821114173228349
21
-4.7325395275590552
0
LINE
8
BLACK
6
CONTINUOUS
10
5.6821114173228349
20
-4.7325395275590552
11
5.6896104724409451
21
-4.7212909448818898
0
LINE
8
BLACK
6
CONTINUOUS
10
5.6896104724409451
20
-4.7212909448818898
11
5.6933600000000002
21
-4.7137918897637796
0
LINE
8
BLACK
6
CONTINUOUS
10
5.6933600000000002
20
-4.7137918897637796
11
5.6971095275590553
21
-4.7025433070866143
0
LINE
8
BLACK
6
CONTINUOUS
10
5.6971095275590553
20
-4.7025433070866143
11
5.7008590551181104
21
-4.68379562992126
0
LINE
8
BLACK
6
CONTINUOUS
10
5.7008590551181104
20
-4.68379562992126
11
5.7008590551181104
21
-4.6687975196850395
0
LINE
8
BLACK
6
CONTINUOUS
10
5.7008590551181104
20
-4.6687975196850395
11
5.6971095275590553
21
-4.6500498425196852
0
LINE
8
BLACK
6
CONTINUOUS
10
5.6971095275590553
20
-4.6500498425196852
11
5.6933600000000002
21
-4.6388012598425199
0
LINE
8
BLACK
6
CONTINUOUS
10
5.6933600000000002
20
-4.6388012598425199
11
5.6896104724409451
21
-4.6313022047244097
0
LINE
8
BLACK
6
CONTINUOUS
10
5.6896104724409451
20
-4.6313022047244097
11
5.6821114173228349
21
-4.6200535826771656
0
LINE
8
BLACK
6
CONTINUOUS
10
5.6821114173228349
20
-4.6200535826771656
11
5.6783618897637798
21
-4.6163040551181105
0
LINE
8
BLACK
6
CONTINUOUS
10
5.820844094488189
20
-4.7362890551181103
11
5.8170945275590551
21
-4.7325395275590552
0
LINE
8
BLACK
6
CONTINUOUS
10
5.8170945275590551
20
-4.7325395275590552
11
5.8095954724409449
21
-4.7212909448818898
0
LINE
8
BLACK
6
CONTINUOUS
10
5.8095954724409449
20
-4.7212909448818898
11
5.8058459448818898
21
-4.7137918897637796
0
LINE
8
BLACK
6
CONTINUOUS
10
5.8058459448818898
20
-4.7137918897637796
11
5.8020964173228347
21
-4.7025433070866143
0
LINE
8
BLACK
6
CONTINUOUS
10
5.8020964173228347
20
-4.7025433070866143
11
5.7983468897637795
21
-4.68379562992126
0
LINE
8
BLACK
6
CONTINUOUS
10
5.7983468897637795
20
-4.68379562992126
11
5.7983468897637795
21
-4.6687975196850395
0
LINE
8
BLACK
6
CONTINUOUS
10
5.7983468897637795
20
-4.6687975196850395
11
5.8020964173228347
21
-4.6500498425196852
0
LINE
8
BLACK
6
CONTINUOUS
10
5.8020964173228347
20
-4.6500498425196852
11
5.8058459448818898
21
-4.6388012598425199
0
LINE
8
BLACK
6
CONTINUOUS
10
5.8058459448818898
20
-4.6388012598425199
11
5.8095954724409449
21
-4.6313022047244097
0
LINE
8
BLACK
6
CONTINUOUS
10
5.8095954724409449
20
-4.6313022047244097
11
5.8170945275590551
21
-4.6200535826771656
0
LINE
8
BLACK
6
CONTINUOUS
10
5.8170945275590551
20
-4.6200535826771656
11
5.820844094488189
21
-4.6163040551181105
0
LINE
8
BLACK
6
CONTINUOUS
10
5.8508403149606298
20
-4.6537993700787403
11
5.8508403149606298
21
-4.7062928346456694
0
LINE
8
BLACK
6
CONTINUOUS
10
5.8508403149606298
20
-4.6612984251968506
11
5.854589842519685
21
-4.6575488976377954
0
LINE
8
BLACK
6
CONTINUOUS
10
5.854589842519685
20
-4.6575488976377954
11
5.8620888976377952
21
-4.6537993700787403
0
LINE
8
BLACK
6
CONTINUOUS
10
5.8620888976377952
20
-4.6537993700787403
11
5.8733375196850393
21
-4.6537993700787403
0
LINE
8
BLACK
6
CONTINUOUS
10
5.8733375196850393
20
-4.6537993700787403
11
5.8808365748031495
21
-4.6575488976377954
0
LINE
8
BLACK
6
CONTINUOUS
10
5.8808365748031495
20
-4.6575488976377954
11
5.8845861023622046
21
-4.6650479921259844
0
LINE
8
BLACK
6
CONTINUOUS
10
5.8845861023622046
20
-4.6650479921259844
11
5.8845861023622046
21
-4.7062928346456694
0
LINE
8
BLACK
6
CONTINUOUS
10
5.9333299999999998
20
-4.7062928346456694
11
5.9258309448818896
21
-4.7025433070866143
0
LINE
8
BLACK
6
CONTINUOUS
10
5.9258309448818896
20
-4.7025433070866143
11
5.9220814173228344
21
-4.6987937401574804
0
LINE
8
BLACK
6
CONTINUOUS
10
5.9220814173228344
20
-4.6987937401574804
11
5.9183318897637793
21
-4.6912946850393702
0
LINE
8
BLACK
6
CONTINUOUS
10
5.9183318897637793
20
-4.6912946850393702
11
5.9183318897637793
21
-4.6687975196850395
0
LINE
8
BLACK
6
CONTINUOUS
10
5.9183318897637793
20
-4.6687975196850395
11
5.9220814173228344
21
-4.6612984251968506
0
LINE
8
BLACK
6
CONTINUOUS
10
5.9220814173228344
20
-4.6612984251968506
11
5.9258309448818896
21
-4.6575488976377954
0
LINE
8
BLACK
6
CONTINUOUS
10
5.9258309448818896
20
-4.6575488976377954
11
5.9333299999999998
21
-4.6537993700787403
0
LINE
8
BLACK
6
CONTINUOUS
10
5.9333299999999998
20
-4.6537993700787403
11
5.9445786220472439
21
-4.6537993700787403
0
LINE
8
BLACK
6
CONTINUOUS
10
5.9445786220472439
20
-4.6537993700787403
11
5.9520776771653541
21
-4.6575488976377954
0
LINE
8
BLACK
6
CONTINUOUS
10
5.9520776771653541
20
-4.6575488976377954
11
5.9558272047244092
21
-4.6612984251968506
0
LINE
8
BLACK
6
CONTINUOUS
10
5.9558272047244092
20
-4.6612984251968506
11
5.9595767322834643
21
-4.6687975196850395
0
LINE
8
BLACK
6
CONTINUOUS
10
5.9595767322834643
20
-4.6687975196850395
11
5.9595767322834643
21
-4.6912946850393702
0
LINE
8
BLACK
6
CONTINUOUS
10
5.9595767322834643
20
-4.6912946850393702
11
5.9558272047244092
21
-4.6987937401574804
0
LINE
8
BLACK
6
CONTINUOUS
10
5.9558272047244092
20
-4.6987937401574804
11
5.9520776771653541
21
-4.7025433070866143
0
LINE
8
BLACK
6
CONTINUOUS
10
5.9520776771653541
20
-4.7025433070866143
11
5.9445786220472439
21
-4.7062928346456694
0
LINE
8
BLACK
6
CONTINUOUS
10
5.9445786220472439
20
-4.7062928346456694
11
5.9333299999999998
21
-4.7062928346456694
0
LINE
8
BLACK
6
CONTINUOUS
10
5.9820739370078737
20
-4.6537993700787403
11
6.0120701574803146
21
-4.6537993700787403
0
LINE
8
BLACK
6
CONTINUOUS
10
5.993322519685039
20
-4.6275526771653546
11
5.993322519685039
21
-4.6950442125984253
0
LINE
8
BLACK
6
CONTINUOUS
10
5.993322519685039
20
-4.6950442125984253
11
5.9970720472440942
21
-4.7025433070866143
0
LINE
8
BLACK
6
CONTINUOUS
10
5.9970720472440942
20
-4.7025433070866143
11
6.0045711023622044
21
-4.7062928346456694
0
LINE
8
BLACK
6
CONTINUOUS
10
6.0045711023622044
20
-4.7062928346456694
11
6.0120701574803146
21
-4.7062928346456694
0
LINE
8
BLACK
6
CONTINUOUS
10
6.0983094094488184
20
-4.6537993700787403
11
6.0983094094488184
21
-4.7325395275590552
0
LINE
8
BLACK
6
CONTINUOUS
10
6.0983094094488184
20
-4.6575488976377954
11
6.1058084645669286
21
-4.6537993700787403
0
LINE
8
BLACK
6
CONTINUOUS
10
6.1058084645669286
20
-4.6537993700787403
11
6.1208066141732278
21
-4.6537993700787403
0
LINE
8
BLACK
6
CONTINUOUS
10
6.1208066141732278
20
-4.6537993700787403
11
6.128305669291338
21
-4.6575488976377954
0
LINE
8
BLACK
6
CONTINUOUS
10
6.128305669291338
20
-4.6575488976377954
11
6.1320551968503931
21
-4.6612984251968506
0
LINE
8
BLACK
6
CONTINUOUS
10
6.1320551968503931
20
-4.6612984251968506
11
6.1358047244094482
21
-4.6687975196850395
0
LINE
8
BLACK
6
CONTINUOUS
10
6.1358047244094482
20
-4.6687975196850395
11
6.1358047244094482
21
-4.6912946850393702
0
LINE
8
BLACK
6
CONTINUOUS
10
6.1358047244094482
20
-4.6912946850393702
11
6.1320551968503931
21
-4.6987937401574804
0
LINE
8
BLACK
6
CONTINUOUS
10
6.1320551968503931
20
-4.6987937401574804
11
6.128305669291338
21
-4.7025433070866143
0
LINE
8
BLACK
6
CONTINUOUS
10
6.128305669291338
20
-4.7025433070866143
11
6.1208066141732278
21
-4.7062928346456694
0
LINE
8
BLACK
6
CONTINUOUS
10
6.1208066141732278
20
-4.7062928346456694
11
6.1058084645669286
21
-4.7062928346456694
0
LINE
8
BLACK
6
CONTINUOUS
10
6.1058084645669286
20
-4.7062928346456694
11
6.0983094094488184
21
-4.7025433070866143
0
LINE
8
BLACK
6
CONTINUOUS
10
6.1807990944881892
20
-4.7062928346456694
11
6.173300039370079
21
-4.7025433070866143
0
LINE
8
BLACK
6
CONTINUOUS
10
6.173300039370079
20
-4.7025433070866143
11
6.1695505118110239
21
-4.6950442125984253
0
LINE
8
BLACK
6
CONTINUOUS
10
6.1695505118110239
20
-4.6950442125984253
11
6.1695505118110239
21
-4.6275526771653546
0
LINE
8
BLACK
6
CONTINUOUS
10
6.2445411417322836
20
-4.7062928346456694
11
6.2445411417322836
21
-4.6650479921259844
0
LINE
8
BLACK
6
CONTINUOUS
10
6.2445411417322836
20
-4.6650479921259844
11
6.2407916141732285
21
-4.6575488976377954
0
LINE
8
BLACK
6
CONTINUOUS
10
6.2407916141732285
20
-4.6575488976377954
11
6.2332925590551183
21
-4.6537993700787403
0
LINE
8
BLACK
6
CONTINUOUS
10
6.2332925590551183
20
-4.6537993700787403
11
6.2182944094488191
21
-4.6537993700787403
0
LINE
8
BLACK
6
CONTINUOUS
10
6.2182944094488191
20
-4.6537993700787403
11
6.2107953543307088
21
-4.6575488976377954
0
LINE
8
BLACK
6
CONTINUOUS
10
6.2445411417322836
20
-4.7025433070866143
11
6.2370420866141734
21
-4.7062928346456694
0
LINE
8
BLACK
6
CONTINUOUS
10
6.2370420866141734
20
-4.7062928346456694
11
6.2182944094488191
21
-4.7062928346456694
0
LINE
8
BLACK
6
CONTINUOUS
10
6.2182944094488191
20
-4.7062928346456694
11
6.2107953543307088
21
-4.7025433070866143
0
LINE
8
BLACK
6
CONTINUOUS
10
6.2107953543307088
20
-4.7025433070866143
11
6.2070458267716537
21
-4.6950442125984253
0
LINE
8
BLACK
6
CONTINUOUS
10
6.2070458267716537
20
-4.6950442125984253
11
6.2070458267716537
21
-4.6875451574803151
0
LINE
8
BLACK
6
CONTINUOUS
10
6.2070458267716537
20
-4.6875451574803151
11
6.2107953543307088
21
-4.6800461023622049
0
LINE
8
BLACK
6
CONTINUOUS
10
6.2107953543307088
20
-4.6800461023622049
11
6.2182944094488191
21
-4.6762965748031498
0
LINE
8
BLACK
6
CONTINUOUS
10
6.2182944094488191
20
-4.6762965748031498
11
6.2370420866141734
21
-4.6762965748031498
0
LINE
8
BLACK
6
CONTINUOUS
10
6.2370420866141734
20
-4.6762965748031498
11
6.2445411417322836
21
-4.6725470472440946
0
LINE
8
BLACK
6
CONTINUOUS
10
6.2707878740157481
20
-4.6537993700787403
11
6.300784094488189
21
-4.6537993700787403
0
LINE
8
BLACK
6
CONTINUOUS
10
6.2820364566929134
20
-4.6275526771653546
11
6.2820364566929134
21
-4.6950442125984253
0
LINE
8
BLACK
6
CONTINUOUS
10
6.2820364566929134
20
-4.6950442125984253
11
6.2857859842519686
21
-4.7025433070866143
0
LINE
8
BLACK
6
CONTINUOUS
10
6.2857859842519686
20
-4.7025433070866143
11
6.2932850393700788
21
-4.7062928346456694
0
LINE
8
BLACK
6
CONTINUOUS
10
6.2932850393700788
20
-4.7062928346456694
11
6.300784094488189
21
-4.7062928346456694
0
LINE
8
BLACK
6
CONTINUOUS
10
6.3570270866141732
20
-4.7025433070866143
11
6.3495280314960629
21
-4.7062928346456694
0
LINE
8
BLACK
6
CONTINUOUS
10
6.3495280314960629
20
-4.7062928346456694
11
6.3345298818897637
21
-4.7062928346456694
0
LINE
8
BLACK
6
CONTINUOUS
10
6.3345298818897637
20
-4.7062928346456694
11
6.3270308267716535
21
-4.7025433070866143
0
LINE
8
BLACK
6
CONTINUOUS
10
6.3270308267716535
20
-4.7025433070866143
11
6.3232812992125984
21
-4.6950442125984253
0
LINE
8
BLACK
6
CONTINUOUS
10
6.3232812992125984
20
-4.6950442125984253
11
6.3232812992125984
21
-4.6650479921259844
0
LINE
8
BLACK
6
CONTINUOUS
10
6.3232812992125984
20
-4.6650479921259844
11
6.3270308267716535
21
-4.6575488976377954
0
LINE
8
BLACK
6
CONTINUOUS
10
6.3270308267716535
20
-4.6575488976377954
11
6.3345298818897637
21
-4.6537993700787403
0
LINE
8
BLACK
6
CONTINUOUS
10
6.3345298818897637
20
-4.6537993700787403
11
6.3495280314960629
21
-4.6537993700787403
0
LINE
8
BLACK
6
CONTINUOUS
10
6.3495280314960629
20
-4.6537993700787403
11
6.3570270866141732
21
-4.6575488976377954
0
LINE
8
BLACK
6
CONTINUOUS
10
6.3570270866141732
20
-4.6575488976377954
11
6.3607766141732283
21
-4.6650479921259844
0
LINE
8
BLACK
6
CONTINUOUS
10
6.3607766141732283
20
-4.6650479921259844
11
6.3607766141732283
21
-4.6725470472440946
0
LINE
8
BLACK
6
CONTINUOUS
10
6.3607766141732283
20
-4.6725470472440946
11
6.3232812992125984
21
-4.6800461023622049
0
LINE
8
BLACK
6
CONTINUOUS
10
6.4282681889763778
20
-4.7062928346456694
11
6.4282681889763778
21
-4.6275526771653546
0
LINE
8
BLACK
6
CONTINUOUS
10
6.4282681889763778
20
-4.7025433070866143
11
6.4207691338582675
21
-4.7062928346456694
0
LINE
8
BLACK
6
CONTINUOUS
10
6.4207691338582675
20
-4.7062928346456694
11
6.4057709842519683
21
-4.7062928346456694
0
LINE
8
BLACK
6
CONTINUOUS
10
6.4057709842519683
20
-4.7062928346456694
11
6.3982719291338581
21
-4.7025433070866143
0
LINE
8
BLACK
6
CONTINUOUS
10
6.3982719291338581
20
-4.7025433070866143
11
6.394522401574803
21
-4.6987937401574804
0
LINE
8
BLACK
6
CONTINUOUS
10
6.394522401574803
20
-4.6987937401574804
11
6.3907728740157479
21
-4.6912946850393702
0
LINE
8
BLACK
6
CONTINUOUS
10
6.3907728740157479
20
-4.6912946850393702
11
6.3907728740157479
21
-4.6687975196850395
0
LINE
8
BLACK
6
CONTINUOUS
10
6.3907728740157479
20
-4.6687975196850395
11
6.394522401574803
21
-4.6612984251968506
0
LINE
8
BLACK
6
CONTINUOUS
10
6.394522401574803
20
-4.6612984251968506
11
6.3982719291338581
21
-4.6575488976377954
0
LINE
8
BLACK
6
CONTINUOUS
10
6.3982719291338581
20
-4.6575488976377954
11
6.4057709842519683
21
-4.6537993700787403
0
LINE
8
BLACK
6
CONTINUOUS
10
6.4057709842519683
20
-4.6537993700787403
11
6.4207691338582675
21
-4.6537993700787403
0
LINE
8
BLACK
6
CONTINUOUS
10
6.4207691338582675
20
-4.6537993700787403
11
6.4282681889763778
21
-4.6575488976377954
0
LINE
8
BLACK
6
CONTINUOUS
10
6.4582644488188974
20
-4.7362890551181103
11
6.4620139763779525
21
-4.7325395275590552
0
LINE
8
BLACK
6
CONTINUOUS
10
6.4620139763779525
20
-4.7325395275590552
11
6.4695130314960627
21
-4.7212909448818898
0
LINE
8
BLACK
6
CONTINUOUS
10
6.4695130314960627
20
-4.7212909448818898
11
6.4732625590551178
21
-4.7137918897637796
0
LINE
8
BLACK
6
CONTINUOUS
10
6.4732625590551178
20
-4.7137918897637796
11
6.4770120866141729
21
-4.7025433070866143
0
LINE
8
BLACK
6
CONTINUOUS
10
6.4770120866141729
20
-4.7025433070866143
11
6.480761614173228
21
-4.68379562992126
0
LINE
8
BLACK
6
CONTINUOUS
10
6.480761614173228
20
-4.68379562992126
11
6.480761614173228
21
-4.6687975196850395
0
LINE
8
BLACK
6
CONTINUOUS
10
6.480761614173228
20
-4.6687975196850395
11
6.4770120866141729
21
-4.6500498425196852
0
LINE
8
BLACK
6
CONTINUOUS
10
6.4770120866141729
20
-4.6500498425196852
11
6.4732625590551178
21
-4.6388012598425199
0
LINE
8
BLACK
6
CONTINUOUS
10
6.4732625590551178
20
-4.6388012598425199
11
6.4695130314960627
21
-4.6313022047244097
0
LINE
8
BLACK
6
CONTINUOUS
10
6.4695130314960627
20
-4.6313022047244097
11
6.4620139763779525
21
-4.6200535826771656
0
LINE
8
BLACK
6
CONTINUOUS
10
6.4620139763779525
20
-4.6200535826771656
11
6.4582644488188974
21
-4.6163040551181105
0
CIRCLE
8
BLACK
10
3.6870078740157481
20
-4.7742125984251969
40
0.0364173228346457
0
LINE
8
BLACK
6
CONTINUOUS
10
3.8673380708661416
20
-4.8102298425196848
11
3.8223437007874015
21
-4.8102298425196848
0
LINE
8
BLACK
6
CONTINUOUS
10
3.8448408661417321
20
-4.8102298425196848
11
3.8448408661417321
21
-4.73148968503937
0
LINE
8
BLACK
6
CONTINUOUS
10
3.8448408661417321
20
-4.73148968503937
11
3.8373418110236219
21
-4.7427382677165353
0
LINE
8
BLACK
6
CONTINUOUS
10
3.8373418110236219
20
-4.7427382677165353
11
3.8298427559055117
21
-4.7502373228346455
0
LINE
8
BLACK
6
CONTINUOUS
10
3.8298427559055117
20
-4.7502373228346455
11
3.8223437007874015
21
-4.7539868503937006
0
LINE
8
BLACK
6
CONTINUOUS
10
3.9010838582677163
20
-4.8027307480314958
11
3.9048333858267714
21
-4.8064803149606297
0
LINE
8
BLACK
6
CONTINUOUS
10
3.9048333858267714
20
-4.8064803149606297
11
3.9010838582677163
21
-4.8102298425196848
0
LINE
8
BLACK
6
CONTINUOUS
10
3.9010838582677163
20
-4.8102298425196848
11
3.8973343307086612
21
-4.8064803149606297
0
LINE
8
BLACK
6
CONTINUOUS
10
3.8973343307086612
20
-4.8064803149606297
11
3.9010838582677163
21
-4.8027307480314958
0
LINE
8
BLACK
6
CONTINUOUS
10
3.9010838582677163
20
-4.8027307480314958
11
3.9010838582677163
21
-4.8102298425196848
0
LINE
8
BLACK
6
CONTINUOUS
10
3.9498277559055119
20
-4.7652354330708659
11
3.9423287007874013
21
-4.7614859055118108
0
LINE
8
BLACK
6
CONTINUOUS
10
3.9423287007874013
20
-4.7614859055118108
11
3.9385791732283462
21
-4.7577363779527557
0
LINE
8
BLACK
6
CONTINUOUS
10
3.9385791732283462
20
-4.7577363779527557
11
3.9348296456692911
21
-4.7502373228346455
0
LINE
8
BLACK
6
CONTINUOUS
10
3.9348296456692911
20
-4.7502373228346455
11
3.9348296456692911
21
-4.7464877952755904
0
LINE
8
BLACK
6
CONTINUOUS
10
3.9348296456692911
20
-4.7464877952755904
11
3.9385791732283462
21
-4.7389887401574802
0
LINE
8
BLACK
6
CONTINUOUS
10
3.9385791732283462
20
-4.7389887401574802
11
3.9423287007874013
21
-4.7352392125984251
0
LINE
8
BLACK
6
CONTINUOUS
10
3.9423287007874013
20
-4.7352392125984251
11
3.9498277559055119
21
-4.73148968503937
0
LINE
8
BLACK
6
CONTINUOUS
10
3.9498277559055119
20
-4.73148968503937
11
3.9648259055118111
21
-4.73148968503937
0
LINE
8
BLACK
6
CONTINUOUS
10
3.9648259055118111
20
-4.73148968503937
11
3.9723249606299214
21
-4.7352392125984251
0
LINE
8
BLACK
6
CONTINUOUS
10
3.9723249606299214
20
-4.7352392125984251
11
3.9760744881889765
21
-4.7389887401574802
0
LINE
8
BLACK
6
CONTINUOUS
10
3.9760744881889765
20
-4.7389887401574802
11
3.9798240157480316
21
-4.7464877952755904
0
LINE
8
BLACK
6
CONTINUOUS
10
3.9798240157480316
20
-4.7464877952755904
11
3.9798240157480316
21
-4.7502373228346455
0
LINE
8
BLACK
6
CONTINUOUS
10
3.9798240157480316
20
-4.7502373228346455
11
3.9760744881889765
21
-4.7577363779527557
0
LINE
8
BLACK
6
CONTINUOUS
10
3.9760744881889765
20
-4.7577363779527557
11
3.9723249606299214
21
-4.7614859055118108
0
LINE
8
BLACK
6
CONTINUOUS
10
3.9723249606299214
20
-4.7614859055118108
11
3.9648259055118111
21
-4.7652354330708659
0
LINE
8
BLACK
6
CONTINUOUS
10
3.9648259055118111
20
-4.7652354330708659
11
3.9498277559055119
21
-4.7652354330708659
0
LINE
8
BLACK
6
CONTINUOUS
10
3.9498277559055119
20
-4.7652354330708659
11
3.9423287007874013
21
-4.7689849999999998
0
LINE
8
BLACK
6
CONTINUOUS
10
3.9423287007874013
20
-4.7689849999999998
11
3.9385791732283462
21
-4.7727345275590549
0
LINE
8
BLACK
6
CONTINUOUS
10
3.9385791732283462
20
-4.7727345275590549
11
3.9348296456692911
21
-4.7802335826771651
0
LINE
8
BLACK
6
CONTINUOUS
10
3.9348296456692911
20
-4.7802335826771651
11
3.9348296456692911
21
-4.7952316929133856
0
LINE
8
BLACK
6
CONTINUOUS
10
3.9348296456692911
20
-4.7952316929133856
11
3.9385791732283462
21
-4.8027307480314958
0
LINE
8
BLACK
6
CONTINUOUS
10
3.9385791732283462
20
-4.8027307480314958
11
3.9423287007874013
21
-4.8064803149606297
0
LINE
8
BLACK
6
CONTINUOUS
10
3.9423287007874013
20
-4.8064803149606297
11
3.9498277559055119
21
-4.8102298425196848
0
LINE
8
BLACK
6
CONTINUOUS
10
3.9498277559055119
20
-4.8102298425196848
11
3.9648259055118111
21
-4.8102298425196848
0
LINE
8
BLACK
6
CONTINUOUS
10
3.9648259055118111
20
-4.8102298425196848
11
3.9723249606299214
21
-4.8064803149606297
0
LINE
8
BLACK
6
CONTINUOUS
10
3.9723249606299214
20
-4.8064803149606297
11
3.9760744881889765
21
-4.8027307480314958
0
LINE
8
BLACK
6
CONTINUOUS
10
3.9760744881889765
20
-4.8027307480314958
11
3.9798240157480316
21
-4.7952316929133856
0
LINE
8
BLACK
6
CONTINUOUS
10
3.9798240157480316
20
-4.7952316929133856
11
3.9798240157480316
21
-4.7802335826771651
0
LINE
8
BLACK
6
CONTINUOUS
10
3.9798240157480316
20
-4.7802335826771651
11
3.9760744881889765
21
-4.7727345275590549
0
LINE
8
BLACK
6
CONTINUOUS
10
3.9760744881889765
20
-4.7727345275590549
11
3.9723249606299214
21
-4.7689849999999998
0
LINE
8
BLACK
6
CONTINUOUS
10
3.9723249606299214
20
-4.7689849999999998
11
3.9648259055118111
21
-4.7652354330708659
0
LINE
8
BLACK
6
CONTINUOUS
10
4.0510651181102357
20
-4.73148968503937
11
4.0135698031496059
21
-4.73148968503937
0
LINE
8
BLACK
6
CONTINUOUS
10
4.0135698031496059
20
-4.73148968503937
11
4.0098202755905508
21
-4.7689849999999998
0
LINE
8
BLACK
6
CONTINUOUS
10
4.0098202755905508
20
-4.7689849999999998
11
4.0135698031496059
21
-4.7652354330708659
0
LINE
8
BLACK
6
CONTINUOUS
10
4.0135698031496059
20
-4.7652354330708659
11
4.0210688582677161
21
-4.7614859055118108
0
LINE
8
BLACK
6
CONTINUOUS
10
4.0210688582677161
20
-4.7614859055118108
11
4.0398165354330704
21
-4.7614859055118108
0
LINE
8
BLACK
6
CONTINUOUS
10
4.0398165354330704
20
-4.7614859055118108
11
4.0473155905511806
21
-4.7652354330708659
0
LINE
8
BLACK
6
CONTINUOUS
10
4.0473155905511806
20
-4.7652354330708659
11
4.0510651181102357
21
-4.7689849999999998
0
LINE
8
BLACK
6
CONTINUOUS
10
4.0510651181102357
20
-4.7689849999999998
11
4.0548146456692908
21
-4.77648405511811
0
LINE
8
BLACK
6
CONTINUOUS
10
4.0548146456692908
20
-4.77648405511811
11
4.0548146456692908
21
-4.7952316929133856
0
LINE
8
BLACK
6
CONTINUOUS
10
4.0548146456692908
20
-4.7952316929133856
11
4.0510651181102357
21
-4.8027307480314958
0
LINE
8
BLACK
6
CONTINUOUS
10
4.0510651181102357
20
-4.8027307480314958
11
4.0473155905511806
21
-4.8064803149606297
0
LINE
8
BLACK
6
CONTINUOUS
10
4.0473155905511806
20
-4.8064803149606297
11
4.0398165354330704
21
-4.8102298425196848
0
LINE
8
BLACK
6
CONTINUOUS
10
4.0398165354330704
20
-4.8102298425196848
11
4.0210688582677161
21
-4.8102298425196848
0
LINE
8
BLACK
6
CONTINUOUS
10
4.0210688582677161
20
-4.8102298425196848
11
4.0135698031496059
21
-4.8064803149606297
0
LINE
8
BLACK
6
CONTINUOUS
10
4.0135698031496059
20
-4.8064803149606297
11
4.0098202755905508
21
-4.8027307480314958
0
LINE
8
BLACK
6
CONTINUOUS
10
4.1035585433070869
20
-4.73148968503937
11
4.1110576377952759
21
-4.73148968503937
0
LINE
8
BLACK
6
CONTINUOUS
10
4.1110576377952759
20
-4.73148968503937
11
4.1185566929133861
21
-4.7352392125984251
0
LINE
8
BLACK
6
CONTINUOUS
10
4.1185566929133861
20
-4.7352392125984251
11
4.1223062204724412
21
-4.7389887401574802
0
LINE
8
BLACK
6
CONTINUOUS
10
4.1223062204724412
20
-4.7389887401574802
11
4.1260557480314963
21
-4.7464877952755904
0
LINE
8
BLACK
6
CONTINUOUS
10
4.1260557480314963
20
-4.7464877952755904
11
4.1298052755905514
21
-4.7614859055118108
0
LINE
8
BLACK
6
CONTINUOUS
10
4.1298052755905514
20
-4.7614859055118108
11
4.1298052755905514
21
-4.7802335826771651
0
LINE
8
BLACK
6
CONTINUOUS
10
4.1298052755905514
20
-4.7802335826771651
11
4.1260557480314963
21
-4.7952316929133856
0
LINE
8
BLACK
6
CONTINUOUS
10
4.1260557480314963
20
-4.7952316929133856
11
4.1223062204724412
21
-4.8027307480314958
0
LINE
8
BLACK
6
CONTINUOUS
10
4.1223062204724412
20
-4.8027307480314958
11
4.1185566929133861
21
-4.8064803149606297
0
LINE
8
BLACK
6
CONTINUOUS
10
4.1185566929133861
20
-4.8064803149606297
11
4.1110576377952759
21
-4.8102298425196848
0
LINE
8
BLACK
6
CONTINUOUS
10
4.1110576377952759
20
-4.8102298425196848
11
4.1035585433070869
21
-4.8102298425196848
0
LINE
8
BLACK
6
CONTINUOUS
10
4.1035585433070869
20
-4.8102298425196848
11
4.0960594881889767
21
-4.8064803149606297
0
LINE
8
BLACK
6
CONTINUOUS
10
4.0960594881889767
20
-4.8064803149606297
11
4.0923099606299216
21
-4.8027307480314958
0
LINE
8
BLACK
6
CONTINUOUS
10
4.0923099606299216
20
-4.8027307480314958
11
4.0885604330708665
21
-4.7952316929133856
0
LINE
8
BLACK
6
CONTINUOUS
10
4.0885604330708665
20
-4.7952316929133856
11
4.0848109055118114
21
-4.7802335826771651
0
LINE
8
BLACK
6
CONTINUOUS
10
4.0848109055118114
20
-4.7802335826771651
11
4.0848109055118114
21
-4.7614859055118108
0
LINE
8
BLACK
6
CONTINUOUS
10
4.0848109055118114
20
-4.7614859055118108
11
4.0885604330708665
21
-4.7464877952755904
0
LINE
8
BLACK
6
CONTINUOUS
10
4.0885604330708665
20
-4.7464877952755904
11
4.0923099606299216
21
-4.7389887401574802
0
LINE
8
BLACK
6
CONTINUOUS
10
4.0923099606299216
20
-4.7389887401574802
11
4.0960594881889767
21
-4.7352392125984251
0
LINE
8
BLACK
6
CONTINUOUS
10
4.0960594881889767
20
-4.7352392125984251
11
4.1035585433070869
21
-4.73148968503937
0
LINE
8
BLACK
6
CONTINUOUS
10
4.1635510629921262
20
-4.8102298425196848
11
4.1635510629921262
21
-4.7577363779527557
0
LINE
8
BLACK
6
CONTINUOUS
10
4.1635510629921262
20
-4.7652354330708659
11
4.1673005905511813
21
-4.7614859055118108
0
LINE
8
BLACK
6
CONTINUOUS
10
4.1673005905511813
20
-4.7614859055118108
11
4.1747996456692915
21
-4.7577363779527557
0
LINE
8
BLACK
6
CONTINUOUS
10
4.1747996456692915
20
-4.7577363779527557
11
4.1860482677165356
21
-4.7577363779527557
0
LINE
8
BLACK
6
CONTINUOUS
10
4.1860482677165356
20
-4.7577363779527557
11
4.1935473228346458
21
-4.7614859055118108
0
LINE
8
BLACK
6
CONTINUOUS
10
4.1935473228346458
20
-4.7614859055118108
11
4.1972968503937009
21
-4.7689849999999998
0
LINE
8
BLACK
6
CONTINUOUS
10
4.1972968503937009
20
-4.7689849999999998
11
4.1972968503937009
21
-4.8102298425196848
0
LINE
8
BLACK
6
CONTINUOUS
10
4.1972968503937009
20
-4.7689849999999998
11
4.201046377952756
21
-4.7614859055118108
0
LINE
8
BLACK
6
CONTINUOUS
10
4.201046377952756
20
-4.7614859055118108
11
4.2085454330708663
21
-4.7577363779527557
0
LINE
8
BLACK
6
CONTINUOUS
10
4.2085454330708663
20
-4.7577363779527557
11
4.2197940157480316
21
-4.7577363779527557
0
LINE
8
BLACK
6
CONTINUOUS
10
4.2197940157480316
20
-4.7577363779527557
11
4.2272931102362206
21
-4.7614859055118108
0
LINE
8
BLACK
6
CONTINUOUS
10
4.2272931102362206
20
-4.7614859055118108
11
4.2310426377952757
21
-4.7689849999999998
0
LINE
8
BLACK
6
CONTINUOUS
10
4.2310426377952757
20
-4.7689849999999998
11
4.2310426377952757
21
-4.8102298425196848
0
LINE
8
BLACK
6
CONTINUOUS
10
4.2685379527559055
20
-4.8102298425196848
11
4.2685379527559055
21
-4.7577363779527557
0
LINE
8
BLACK
6
CONTINUOUS
10
4.2685379527559055
20
-4.7652354330708659
11
4.2722874803149606
21
-4.7614859055118108
0
LINE
8
BLACK
6
CONTINUOUS
10
4.2722874803149606
20
-4.7614859055118108
11
4.2797865354330709
21
-4.7577363779527557
0
LINE
8
BLACK
6
CONTINUOUS
10
4.2797865354330709
20
-4.7577363779527557
11
4.2910351574803149
21
-4.7577363779527557
0
LINE
8
BLACK
6
CONTINUOUS
10
4.2910351574803149
20
-4.7577363779527557
11
4.2985342125984252
21
-4.7614859055118108
0
LINE
8
BLACK
6
CONTINUOUS
10
4.2985342125984252
20
-4.7614859055118108
11
4.3022837401574803
21
-4.7689849999999998
0
LINE
8
BLACK
6
CONTINUOUS
10
4.3022837401574803
20
-4.7689849999999998
11
4.3022837401574803
21
-4.8102298425196848
0
LINE
8
BLACK
6
CONTINUOUS
10
4.3022837401574803
20
-4.7689849999999998
11
4.3060332677165354
21
-4.7614859055118108
0
LINE
8
BLACK
6
CONTINUOUS
10
4.3060332677165354
20
-4.7614859055118108
11
4.3135323228346456
21
-4.7577363779527557
0
LINE
8
BLACK
6
CONTINUOUS
10
4.3135323228346456
20
-4.7577363779527557
11
4.3247809055118109
21
-4.7577363779527557
0
LINE
8
BLACK
6
CONTINUOUS
10
4.3247809055118109
20
-4.7577363779527557
11
4.3322799999999999
21
-4.7614859055118108
0
LINE
8
BLACK
6
CONTINUOUS
10
4.3322799999999999
20
-4.7614859055118108
11
4.336029527559055
21
-4.7689849999999998
0
LINE
8
BLACK
6
CONTINUOUS
10
4.336029527559055
20
-4.7689849999999998
11
4.336029527559055
21
-4.8102298425196848
0
LINE
8
BLACK
6
CONTINUOUS
10
4.4897603149606296
20
-4.7277401574803148
11
4.4222687795275588
21
-4.8289774803149603
0
LINE
8
BLACK
6
CONTINUOUS
10
4.5909976771653538
20
-4.73148968503937
11
4.5984967716535428
21
-4.73148968503937
0
LINE
8
BLACK
6
CONTINUOUS
10
4.5984967716535428
20
-4.73148968503937
11
4.6059958267716539
21
-4.7352392125984251
0
LINE
8
BLACK
6
CONTINUOUS
10
4.6059958267716539
20
-4.7352392125984251
11
4.609745354330709
21
-4.7389887401574802
0
LINE
8
BLACK
6
CONTINUOUS
10
4.609745354330709
20
-4.7389887401574802
11
4.6134948818897641
21
-4.7464877952755904
0
LINE
8
BLACK
6
CONTINUOUS
10
4.6134948818897641
20
-4.7464877952755904
11
4.6172444094488192
21
-4.7614859055118108
0
LINE
8
BLACK
6
CONTINUOUS
10
4.6172444094488192
20
-4.7614859055118108
11
4.6172444094488192
21
-4.7802335826771651
0
LINE
8
BLACK
6
CONTINUOUS
10
4.6172444094488192
20
-4.7802335826771651
11
4.6134948818897641
21
-4.7952316929133856
0
LINE
8
BLACK
6
CONTINUOUS
10
4.6134948818897641
20
-4.7952316929133856
11
4.609745354330709
21
-4.8027307480314958
0
LINE
8
BLACK
6
CONTINUOUS
10
4.609745354330709
20
-4.8027307480314958
11
4.6059958267716539
21
-4.8064803149606297
0
LINE
8
BLACK
6
CONTINUOUS
10
4.6059958267716539
20
-4.8064803149606297
11
4.5984967716535428
21
-4.8102298425196848
0
LINE
8
BLACK
6
CONTINUOUS
10
4.5984967716535428
20
-4.8102298425196848
11
4.5909976771653538
21
-4.8102298425196848
0
LINE
8
BLACK
6
CONTINUOUS
10
4.5909976771653538
20
-4.8102298425196848
11
4.5834986220472436
21
-4.8064803149606297
0
LINE
8
BLACK
6
CONTINUOUS
10
4.5834986220472436
20
-4.8064803149606297
11
4.5797490944881885
21
-4.8027307480314958
0
LINE
8
BLACK
6
CONTINUOUS
10
4.5797490944881885
20
-4.8027307480314958
11
4.5759995669291333
21
-4.7952316929133856
0
LINE
8
BLACK
6
CONTINUOUS
10
4.5759995669291333
20
-4.7952316929133856
11
4.5722500393700782
21
-4.7802335826771651
0
LINE
8
BLACK
6
CONTINUOUS
10
4.5722500393700782
20
-4.7802335826771651
11
4.5722500393700782
21
-4.7614859055118108
0
LINE
8
BLACK
6
CONTINUOUS
10
4.5722500393700782
20
-4.7614859055118108
11
4.5759995669291333
21
-4.7464877952755904
0
LINE
8
BLACK
6
CONTINUOUS
10
4.5759995669291333
20
-4.7464877952755904
11
4.5797490944881885
21
-4.7389887401574802
0
LINE
8
BLACK
6
CONTINUOUS
10
4.5797490944881885
20
-4.7389887401574802
11
4.5834986220472436
21
-4.7352392125984251
0
LINE
8
BLACK
6
CONTINUOUS
10
4.5834986220472436
20
-4.7352392125984251
11
4.5909976771653538
21
-4.73148968503937
0
LINE
8
BLACK
6
CONTINUOUS
10
4.6509901968503939
20
-4.8027307480314958
11
4.6547397244094491
21
-4.8064803149606297
0
LINE
8
BLACK
6
CONTINUOUS
10
4.6547397244094491
20
-4.8064803149606297
11
4.6509901968503939
21
-4.8102298425196848
0
LINE
8
BLACK
6
CONTINUOUS
10
4.6509901968503939
20
-4.8102298425196848
11
4.6472406692913388
21
-4.8064803149606297
0
LINE
8
BLACK
6
CONTINUOUS
10
4.6472406692913388
20
-4.8064803149606297
11
4.6509901968503939
21
-4.8027307480314958
0
LINE
8
BLACK
6
CONTINUOUS
10
4.6509901968503939
20
-4.8027307480314958
11
4.6509901968503939
21
-4.8102298425196848
0
LINE
8
BLACK
6
CONTINUOUS
10
4.7034836220472442
20
-4.73148968503937
11
4.7109827165354332
21
-4.73148968503937
0
LINE
8
BLACK
6
CONTINUOUS
10
4.7109827165354332
20
-4.73148968503937
11
4.7184817716535434
21
-4.7352392125984251
0
LINE
8
BLACK
6
CONTINUOUS
10
4.7184817716535434
20
-4.7352392125984251
11
4.7222312992125985
21
-4.7389887401574802
0
LINE
8
BLACK
6
CONTINUOUS
10
4.7222312992125985
20
-4.7389887401574802
11
4.7259808267716537
21
-4.7464877952755904
0
LINE
8
BLACK
6
CONTINUOUS
10
4.7259808267716537
20
-4.7464877952755904
11
4.7297303543307088
21
-4.7614859055118108
0
LINE
8
BLACK
6
CONTINUOUS
10
4.7297303543307088
20
-4.7614859055118108
11
4.7297303543307088
21
-4.7802335826771651
0
LINE
8
BLACK
6
CONTINUOUS
10
4.7297303543307088
20
-4.7802335826771651
11
4.7259808267716537
21
-4.7952316929133856
0
LINE
8
BLACK
6
CONTINUOUS
10
4.7259808267716537
20
-4.7952316929133856
11
4.7222312992125985
21
-4.8027307480314958
0
LINE
8
BLACK
6
CONTINUOUS
10
4.7222312992125985
20
-4.8027307480314958
11
4.7184817716535434
21
-4.8064803149606297
0
LINE
8
BLACK
6
CONTINUOUS
10
4.7184817716535434
20
-4.8064803149606297
11
4.7109827165354332
21
-4.8102298425196848
0
LINE
8
BLACK
6
CONTINUOUS
10
4.7109827165354332
20
-4.8102298425196848
11
4.7034836220472442
21
-4.8102298425196848
0
LINE
8
BLACK
6
CONTINUOUS
10
4.7034836220472442
20
-4.8102298425196848
11
4.695984566929134
21
-4.8064803149606297
0
LINE
8
BLACK
6
CONTINUOUS
10
4.695984566929134
20
-4.8064803149606297
11
4.6922350393700789
21
-4.8027307480314958
0
LINE
8
BLACK
6
CONTINUOUS
10
4.6922350393700789
20
-4.8027307480314958
11
4.6884855118110238
21
-4.7952316929133856
0
LINE
8
BLACK
6
CONTINUOUS
10
4.6884855118110238
20
-4.7952316929133856
11
4.6847359842519687
21
-4.7802335826771651
0
LINE
8
BLACK
6
CONTINUOUS
10
4.6847359842519687
20
-4.7802335826771651
11
4.6847359842519687
21
-4.7614859055118108
0
LINE
8
BLACK
6
CONTINUOUS
10
4.6847359842519687
20
-4.7614859055118108
11
4.6884855118110238
21
-4.7464877952755904
0
LINE
8
BLACK
6
CONTINUOUS
10
4.6884855118110238
20
-4.7464877952755904
11
4.6922350393700789
21
-4.7389887401574802
0
LINE
8
BLACK
6
CONTINUOUS
10
4.6922350393700789
20
-4.7389887401574802
11
4.695984566929134
21
-4.7352392125984251
0
LINE
8
BLACK
6
CONTINUOUS
10
4.695984566929134
20
-4.7352392125984251
11
4.7034836220472442
21
-4.73148968503937
0
LINE
8
BLACK
6
CONTINUOUS
10
4.7559770866141733
20
-4.73148968503937
11
4.8084705118110236
21
-4.73148968503937
0
LINE
8
BLACK
6
CONTINUOUS
10
4.8084705118110236
20
-4.73148968503937
11
4.7747247244094488
21
-4.8102298425196848
0
LINE
8
BLACK
6
CONTINUOUS
10
4.8347172440944881
20
-4.7389887401574802
11
4.8384667716535432
21
-4.7352392125984251
0
LINE
8
BLACK
6
CONTINUOUS
10
4.8384667716535432
20
-4.7352392125984251
11
4.8459658267716534
21
-4.73148968503937
0
LINE
8
BLACK
6
CONTINUOUS
10
4.8459658267716534
20
-4.73148968503937
11
4.8647135039370077
21
-4.73148968503937
0
LINE
8
BLACK
6
CONTINUOUS
10
4.8647135039370077
20
-4.73148968503937
11
4.872212559055118
21
-4.7352392125984251
0
LINE
8
BLACK
6
CONTINUOUS
10
4.872212559055118
20
-4.7352392125984251
11
4.8759620866141731
21
-4.7389887401574802
0
LINE
8
BLACK
6
CONTINUOUS
10
4.8759620866141731
20
-4.7389887401574802
11
4.8797116141732282
21
-4.7464877952755904
0
LINE
8
BLACK
6
CONTINUOUS
10
4.8797116141732282
20
-4.7464877952755904
11
4.8797116141732282
21
-4.7539868503937006
0
LINE
8
BLACK
6
CONTINUOUS
10
4.8797116141732282
20
-4.7539868503937006
11
4.8759620866141731
21
-4.7652354330708659
0
LINE
8
BLACK
6
CONTINUOUS
10
4.8759620866141731
20
-4.7652354330708659
11
4.830967716535433
21
-4.8102298425196848
0
LINE
8
BLACK
6
CONTINUOUS
10
4.830967716535433
20
-4.8102298425196848
11
4.8797116141732282
21
-4.8102298425196848
0
LINE
8
BLACK
6
CONTINUOUS
10
4.9247059842519683
20
-4.7652354330708659
11
4.917206929133858
21
-4.7614859055118108
0
LINE
8
BLACK
6
CONTINUOUS
10
4.917206929133858
20
-4.7614859055118108
11
4.9134574015748029
21
-4.7577363779527557
0
LINE
8
BLACK
6
CONTINUOUS
10
4.9134574015748029
20
-4.7577363779527557
11
4.9097078740157478
21
-4.7502373228346455
0
LINE
8
BLACK
6
CONTINUOUS
10
4.9097078740157478
20
-4.7502373228346455
11
4.9097078740157478
21
-4.7464877952755904
0
LINE
8
BLACK
6
CONTINUOUS
10
4.9097078740157478
20
-4.7464877952755904
11
4.9134574015748029
21
-4.7389887401574802
0
LINE
8
BLACK
6
CONTINUOUS
10
4.9134574015748029
20
-4.7389887401574802
11
4.917206929133858
21
-4.7352392125984251
0
LINE
8
BLACK
6
CONTINUOUS
10
4.917206929133858
20
-4.7352392125984251
11
4.9247059842519683
21
-4.73148968503937
0
LINE
8
BLACK
6
CONTINUOUS
10
4.9247059842519683
20
-4.73148968503937
11
4.9397041338582675
21
-4.73148968503937
0
LINE
8
BLACK
6
CONTINUOUS
10
4.9397041338582675
20
-4.73148968503937
11
4.9472031889763777
21
-4.7352392125984251
0
LINE
8
BLACK
6
CONTINUOUS
10
4.9472031889763777
20
-4.7352392125984251
11
4.9509527165354328
21
-4.7389887401574802
0
LINE
8
BLACK
6
CONTINUOUS
10
4.9509527165354328
20
-4.7389887401574802
11
4.9547022440944879
21
-4.7464877952755904
0
LINE
8
BLACK
6
CONTINUOUS
10
4.9547022440944879
20
-4.7464877952755904
11
4.9547022440944879
21
-4.7502373228346455
0
LINE
8
BLACK
6
CONTINUOUS
10
4.9547022440944879
20
-4.7502373228346455
11
4.9509527165354328
21
-4.7577363779527557
0
LINE
8
BLACK
6
CONTINUOUS
10
4.9509527165354328
20
-4.7577363779527557
11
4.9472031889763777
21
-4.7614859055118108
0
LINE
8
BLACK
6
CONTINUOUS
10
4.9472031889763777
20
-4.7614859055118108
11
4.9397041338582675
21
-4.7652354330708659
0
LINE
8
BLACK
6
CONTINUOUS
10
4.9397041338582675
20
-4.7652354330708659
11
4.9247059842519683
21
-4.7652354330708659
0
LINE
8
BLACK
6
CONTINUOUS
10
4.9247059842519683
20
-4.7652354330708659
11
4.917206929133858
21
-4.7689849999999998
0
LINE
8
BLACK
6
CONTINUOUS
10
4.917206929133858
20
-4.7689849999999998
11
4.9134574015748029
21
-4.7727345275590549
0
LINE
8
BLACK
6
CONTINUOUS
10
4.9134574015748029
20
-4.7727345275590549
11
4.9097078740157478
21
-4.7802335826771651
0
LINE
8
BLACK
6
CONTINUOUS
10
4.9097078740157478
20
-4.7802335826771651
11
4.9097078740157478
21
-4.7952316929133856
0
LINE
8
BLACK
6
CONTINUOUS
10
4.9097078740157478
20
-4.7952316929133856
11
4.9134574015748029
21
-4.8027307480314958
0
LINE
8
BLACK
6
CONTINUOUS
10
4.9134574015748029
20
-4.8027307480314958
11
4.917206929133858
21
-4.8064803149606297
0
LINE
8
BLACK
6
CONTINUOUS
10
4.917206929133858
20
-4.8064803149606297
11
4.9247059842519683
21
-4.8102298425196848
0
LINE
8
BLACK
6
CONTINUOUS
10
4.9247059842519683
20
-4.8102298425196848
11
4.9397041338582675
21
-4.8102298425196848
0
LINE
8
BLACK
6
CONTINUOUS
10
4.9397041338582675
20
-4.8102298425196848
11
4.9472031889763777
21
-4.8064803149606297
0
LINE
8
BLACK
6
CONTINUOUS
10
4.9472031889763777
20
-4.8064803149606297
11
4.9509527165354328
21
-4.8027307480314958
0
LINE
8
BLACK
6
CONTINUOUS
10
4.9509527165354328
20
-4.8027307480314958
11
4.9547022440944879
21
-4.7952316929133856
0
LINE
8
BLACK
6
CONTINUOUS
10
4.9547022440944879
20
-4.7952316929133856
11
4.9547022440944879
21
-4.7802335826771651
0
LINE
8
BLACK
6
CONTINUOUS
10
4.9547022440944879
20
-4.7802335826771651
11
4.9509527165354328
21
-4.7727345275590549
0
LINE
8
BLACK
6
CONTINUOUS
10
4.9509527165354328
20
-4.7727345275590549
11
4.9472031889763777
21
-4.7689849999999998
0
LINE
8
BLACK
6
CONTINUOUS
10
4.9472031889763777
20
-4.7689849999999998
11
4.9397041338582675
21
-4.7652354330708659
0
LINE
8
BLACK
6
CONTINUOUS
10
4.9846985039370075
20
-4.73148968503937
11
4.9846985039370075
21
-4.7464877952755904
0
LINE
8
BLACK
6
CONTINUOUS
10
5.0146947637795272
20
-4.73148968503937
11
5.0146947637795272
21
-4.7464877952755904
0
LINE
8
BLACK
6
CONTINUOUS
10
5.1309302755905515
20
-4.8402260629921257
11
5.1271807086614176
21
-4.8364765354330705
0
LINE
8
BLACK
6
CONTINUOUS
10
5.1271807086614176
20
-4.8364765354330705
11
5.1196816535433074
21
-4.8252279527559052
0
LINE
8
BLACK
6
CONTINUOUS
10
5.1196816535433074
20
-4.8252279527559052
11
5.1159321259842523
21
-4.817728897637795
0
LINE
8
BLACK
6
CONTINUOUS
10
5.1159321259842523
20
-4.817728897637795
11
5.1121825984251972
21
-4.8064803149606297
0
LINE
8
BLACK
6
CONTINUOUS
10
5.1121825984251972
20
-4.8064803149606297
11
5.1084330708661412
21
-4.7877326377952754
0
LINE
8
BLACK
6
CONTINUOUS
10
5.1084330708661412
20
-4.7877326377952754
11
5.1084330708661412
21
-4.7727345275590549
0
LINE
8
BLACK
6
CONTINUOUS
10
5.1084330708661412
20
-4.7727345275590549
11
5.1121825984251972
21
-4.7539868503937006
0
LINE
8
BLACK
6
CONTINUOUS
10
5.1121825984251972
20
-4.7539868503937006
11
5.1159321259842523
21
-4.7427382677165353
0
LINE
8
BLACK
6
CONTINUOUS
10
5.1159321259842523
20
-4.7427382677165353
11
5.1196816535433074
21
-4.7352392125984251
0
LINE
8
BLACK
6
CONTINUOUS
10
5.1196816535433074
20
-4.7352392125984251
11
5.1271807086614176
21
-4.723990590551181
0
LINE
8
BLACK
6
CONTINUOUS
10
5.1271807086614176
20
-4.723990590551181
11
5.1309302755905515
21
-4.7202410629921259
0
LINE
8
BLACK
6
CONTINUOUS
10
5.1571769685039373
20
-4.7389887401574802
11
5.1609264960629924
21
-4.7352392125984251
0
LINE
8
BLACK
6
CONTINUOUS
10
5.1609264960629924
20
-4.7352392125984251
11
5.1684255511811026
21
-4.73148968503937
0
LINE
8
BLACK
6
CONTINUOUS
10
5.1684255511811026
20
-4.73148968503937
11
5.1871732283464569
21
-4.73148968503937
0
LINE
8
BLACK
6
CONTINUOUS
10
5.1871732283464569
20
-4.73148968503937
11
5.1946722834645671
21
-4.7352392125984251
0
LINE
8
BLACK
6
CONTINUOUS
10
5.1946722834645671
20
-4.7352392125984251
11
5.1984218110236222
21
-4.7389887401574802
0
LINE
8
BLACK
6
CONTINUOUS
10
5.1984218110236222
20
-4.7389887401574802
11
5.2021713385826773
21
-4.7464877952755904
0
LINE
8
BLACK
6
CONTINUOUS
10
5.2021713385826773
20
-4.7464877952755904
11
5.2021713385826773
21
-4.7539868503937006
0
LINE
8
BLACK
6
CONTINUOUS
10
5.2021713385826773
20
-4.7539868503937006
11
5.1984218110236222
21
-4.7652354330708659
0
LINE
8
BLACK
6
CONTINUOUS
10
5.1984218110236222
20
-4.7652354330708659
11
5.1534274409448821
21
-4.8102298425196848
0
LINE
8
BLACK
6
CONTINUOUS
10
5.1534274409448821
20
-4.8102298425196848
11
5.2021713385826773
21
-4.8102298425196848
0
LINE
8
BLACK
6
CONTINUOUS
10
5.2959096456692913
20
-4.8102298425196848
11
5.2959096456692913
21
-4.73148968503937
0
LINE
8
BLACK
6
CONTINUOUS
10
5.3296554330708661
20
-4.8102298425196848
11
5.3296554330708661
21
-4.7689849999999998
0
LINE
8
BLACK
6
CONTINUOUS
10
5.3296554330708661
20
-4.7689849999999998
11
5.325905905511811
21
-4.7614859055118108
0
LINE
8
BLACK
6
CONTINUOUS
10
5.325905905511811
20
-4.7614859055118108
11
5.3184068503937008
21
-4.7577363779527557
0
LINE
8
BLACK
6
CONTINUOUS
10
5.3184068503937008
20
-4.7577363779527557
11
5.3071582283464567
21
-4.7577363779527557
0
LINE
8
BLACK
6
CONTINUOUS
10
5.3071582283464567
20
-4.7577363779527557
11
5.2996591732283465
21
-4.7614859055118108
0
LINE
8
BLACK
6
CONTINUOUS
10
5.2996591732283465
20
-4.7614859055118108
11
5.2959096456692913
21
-4.7652354330708659
0
LINE
8
BLACK
6
CONTINUOUS
10
5.3783993307086613
20
-4.8102298425196848
11
5.3709002755905511
21
-4.8064803149606297
0
LINE
8
BLACK
6
CONTINUOUS
10
5.3709002755905511
20
-4.8064803149606297
11
5.3671507480314959
21
-4.8027307480314958
0
LINE
8
BLACK
6
CONTINUOUS
10
5.3671507480314959
20
-4.8027307480314958
11
5.3634012204724408
21
-4.7952316929133856
0
LINE
8
BLACK
6
CONTINUOUS
10
5.3634012204724408
20
-4.7952316929133856
11
5.3634012204724408
21
-4.7727345275590549
0
LINE
8
BLACK
6
CONTINUOUS
10
5.3634012204724408
20
-4.7727345275590549
11
5.3671507480314959
21
-4.7652354330708659
0
LINE
8
BLACK
6
CONTINUOUS
10
5.3671507480314959
20
-4.7652354330708659
11
5.3709002755905511
21
-4.7614859055118108
0
LINE
8
BLACK
6
CONTINUOUS
10
5.3709002755905511
20
-4.7614859055118108
11
5.3783993307086613
21
-4.7577363779527557
0
LINE
8
BLACK
6
CONTINUOUS
10
5.3783993307086613
20
-4.7577363779527557
11
5.3896479527559054
21
-4.7577363779527557
0
LINE
8
BLACK
6
CONTINUOUS
10
5.3896479527559054
20
-4.7577363779527557
11
5.3971470078740156
21
-4.7614859055118108
0
LINE
8
BLACK
6
CONTINUOUS
10
5.3971470078740156
20
-4.7614859055118108
11
5.4008965354330707
21
-4.7652354330708659
0
LINE
8
BLACK
6
CONTINUOUS
10
5.4008965354330707
20
-4.7652354330708659
11
5.4046460629921258
21
-4.7727345275590549
0
LINE
8
BLACK
6
CONTINUOUS
10
5.4046460629921258
20
-4.7727345275590549
11
5.4046460629921258
21
-4.7952316929133856
0
LINE
8
BLACK
6
CONTINUOUS
10
5.4046460629921258
20
-4.7952316929133856
11
5.4008965354330707
21
-4.8027307480314958
0
LINE
8
BLACK
6
CONTINUOUS
10
5.4008965354330707
20
-4.8027307480314958
11
5.3971470078740156
21
-4.8064803149606297
0
LINE
8
BLACK
6
CONTINUOUS
10
5.3971470078740156
20
-4.8064803149606297
11
5.3896479527559054
21
-4.8102298425196848
0
LINE
8
BLACK
6
CONTINUOUS
10
5.3896479527559054
20
-4.8102298425196848
11
5.3783993307086613
21
-4.8102298425196848
0
LINE
8
BLACK
6
CONTINUOUS
10
5.4496404330708659
20
-4.8102298425196848
11
5.4421413779527557
21
-4.8064803149606297
0
LINE
8
BLACK
6
CONTINUOUS
10
5.4421413779527557
20
-4.8064803149606297
11
5.4383918503937005
21
-4.7989812204724407
0
LINE
8
BLACK
6
CONTINUOUS
10
5.4383918503937005
20
-4.7989812204724407
11
5.4383918503937005
21
-4.73148968503937
0
LINE
8
BLACK
6
CONTINUOUS
10
5.5096329527559051
20
-4.8064803149606297
11
5.5021338976377949
21
-4.8102298425196848
0
LINE
8
BLACK
6
CONTINUOUS
10
5.5021338976377949
20
-4.8102298425196848
11
5.4871357480314957
21
-4.8102298425196848
0
LINE
8
BLACK
6
CONTINUOUS
10
5.4871357480314957
20
-4.8102298425196848
11
5.4796366929133855
21
-4.8064803149606297
0
LINE
8
BLACK
6
CONTINUOUS
10
5.4796366929133855
20
-4.8064803149606297
11
5.4758871653543304
21
-4.7989812204724407
0
LINE
8
BLACK
6
CONTINUOUS
10
5.4758871653543304
20
-4.7989812204724407
11
5.4758871653543304
21
-4.7689849999999998
0
LINE
8
BLACK
6
CONTINUOUS
10
5.4758871653543304
20
-4.7689849999999998
11
5.4796366929133855
21
-4.7614859055118108
0
LINE
8
BLACK
6
CONTINUOUS
10
5.4796366929133855
20
-4.7614859055118108
11
5.4871357480314957
21
-4.7577363779527557
0
LINE
8
BLACK
6
CONTINUOUS
10
5.4871357480314957
20
-4.7577363779527557
11
5.5021338976377949
21
-4.7577363779527557
0
LINE
8
BLACK
6
CONTINUOUS
10
5.5021338976377949
20
-4.7577363779527557
11
5.5096329527559051
21
-4.7614859055118108
0
LINE
8
BLACK
6
CONTINUOUS
10
5.5096329527559051
20
-4.7614859055118108
11
5.5133824803149603
21
-4.7689849999999998
0
LINE
8
BLACK
6
CONTINUOUS
10
5.5133824803149603
20
-4.7689849999999998
11
5.5133824803149603
21
-4.77648405511811
0
LINE
8
BLACK
6
CONTINUOUS
10
5.5133824803149603
20
-4.77648405511811
11
5.4758871653543304
21
-4.7839831102362202
0
LINE
8
BLACK
6
CONTINUOUS
10
5.5433787401574799
20
-4.8064803149606297
11
5.5508777952755901
21
-4.8102298425196848
0
LINE
8
BLACK
6
CONTINUOUS
10
5.5508777952755901
20
-4.8102298425196848
11
5.5658759055118106
21
-4.8102298425196848
0
LINE
8
BLACK
6
CONTINUOUS
10
5.5658759055118106
20
-4.8102298425196848
11
5.5733749999999995
21
-4.8064803149606297
0
LINE
8
BLACK
6
CONTINUOUS
10
5.5733749999999995
20
-4.8064803149606297
11
5.5771245275590546
21
-4.7989812204724407
0
LINE
8
BLACK
6
CONTINUOUS
10
5.5771245275590546
20
-4.7989812204724407
11
5.5771245275590546
21
-4.7952316929133856
0
LINE
8
BLACK
6
CONTINUOUS
10
5.5771245275590546
20
-4.7952316929133856
11
5.5733749999999995
21
-4.7877326377952754
0
LINE
8
BLACK
6
CONTINUOUS
10
5.5733749999999995
20
-4.7877326377952754
11
5.5658759055118106
21
-4.7839831102362202
0
LINE
8
BLACK
6
CONTINUOUS
10
5.5658759055118106
20
-4.7839831102362202
11
5.5546273228346452
21
-4.7839831102362202
0
LINE
8
BLACK
6
CONTINUOUS
10
5.5546273228346452
20
-4.7839831102362202
11
5.547128267716535
21
-4.7802335826771651
0
LINE
8
BLACK
6
CONTINUOUS
10
5.547128267716535
20
-4.7802335826771651
11
5.5433787401574799
21
-4.7727345275590549
0
LINE
8
BLACK
6
CONTINUOUS
10
5.5433787401574799
20
-4.7727345275590549
11
5.5433787401574799
21
-4.7689849999999998
0
LINE
8
BLACK
6
CONTINUOUS
10
5.5433787401574799
20
-4.7689849999999998
11
5.547128267716535
21
-4.7614859055118108
0
LINE
8
BLACK
6
CONTINUOUS
10
5.547128267716535
20
-4.7614859055118108
11
5.5546273228346452
21
-4.7577363779527557
0
LINE
8
BLACK
6
CONTINUOUS
10
5.5546273228346452
20
-4.7577363779527557
11
5.5658759055118106
21
-4.7577363779527557
0
LINE
8
BLACK
6
CONTINUOUS
10
5.5658759055118106
20
-4.7577363779527557
11
5.5733749999999995
21
-4.7614859055118108
0
LINE
8
BLACK
6
CONTINUOUS
10
5.6033712598425192
20
-4.8402260629921257
11
5.6071207874015743
21
-4.8364765354330705
0
LINE
8
BLACK
6
CONTINUOUS
10
5.6071207874015743
20
-4.8364765354330705
11
5.6146198425196845
21
-4.8252279527559052
0
LINE
8
BLACK
6
CONTINUOUS
10
5.6146198425196845
20
-4.8252279527559052
11
5.6183693700787396
21
-4.817728897637795
0
LINE
8
BLACK
6
CONTINUOUS
10
5.6183693700787396
20
-4.817728897637795
11
5.6221188976377947
21
-4.8064803149606297
0
LINE
8
BLACK
6
CONTINUOUS
10
5.6221188976377947
20
-4.8064803149606297
11
5.6258684251968507
21
-4.7877326377952754
0
LINE
8
BLACK
6
CONTINUOUS
10
5.6258684251968507
20
-4.7877326377952754
11
5.6258684251968507
21
-4.7727345275590549
0
LINE
8
BLACK
6
CONTINUOUS
10
5.6258684251968507
20
-4.7727345275590549
11
5.6221188976377947
21
-4.7539868503937006
0
LINE
8
BLACK
6
CONTINUOUS
10
5.6221188976377947
20
-4.7539868503937006
11
5.6183693700787396
21
-4.7427382677165353
0
LINE
8
BLACK
6
CONTINUOUS
10
5.6183693700787396
20
-4.7427382677165353
11
5.6146198425196845
21
-4.7352392125984251
0
LINE
8
BLACK
6
CONTINUOUS
10
5.6146198425196845
20
-4.7352392125984251
11
5.6071207874015743
21
-4.723990590551181
0
LINE
8
BLACK
6
CONTINUOUS
10
5.6071207874015743
20
-4.723990590551181
11
5.6033712598425192
21
-4.7202410629921259
0
LINE
8
BLACK
6
CONTINUOUS
10
5.7458534645669292
20
-4.8402260629921257
11
5.7421038976377954
21
-4.8364765354330705
0
LINE
8
BLACK
6
CONTINUOUS
10
5.7421038976377954
20
-4.8364765354330705
11
5.7346048425196852
21
-4.8252279527559052
0
LINE
8
BLACK
6
CONTINUOUS
10
5.7346048425196852
20
-4.8252279527559052
11
5.7308553149606301
21
-4.817728897637795
0
LINE
8
BLACK
6
CONTINUOUS
10
5.7308553149606301
20
-4.817728897637795
11
5.7271057874015749
21
-4.8064803149606297
0
LINE
8
BLACK
6
CONTINUOUS
10
5.7271057874015749
20
-4.8064803149606297
11
5.7233562598425198
21
-4.7877326377952754
0
LINE
8
BLACK
6
CONTINUOUS
10
5.7233562598425198
20
-4.7877326377952754
11
5.7233562598425198
21
-4.7727345275590549
0
LINE
8
BLACK
6
CONTINUOUS
10
5.7233562598425198
20
-4.7727345275590549
11
5.7271057874015749
21
-4.7539868503937006
0
LINE
8
BLACK
6
CONTINUOUS
10
5.7271057874015749
20
-4.7539868503937006
11
5.7308553149606301
21
-4.7427382677165353
0
LINE
8
BLACK
6
CONTINUOUS
10
5.7308553149606301
20
-4.7427382677165353
11
5.7346048425196852
21
-4.7352392125984251
0
LINE
8
BLACK
6
CONTINUOUS
10
5.7346048425196852
20
-4.7352392125984251
11
5.7421038976377954
21
-4.723990590551181
0
LINE
8
BLACK
6
CONTINUOUS
10
5.7421038976377954
20
-4.723990590551181
11
5.7458534645669292
21
-4.7202410629921259
0
LINE
8
BLACK
6
CONTINUOUS
10
5.7758496850393701
20
-4.7577363779527557
11
5.7758496850393701
21
-4.8102298425196848
0
LINE
8
BLACK
6
CONTINUOUS
10
5.7758496850393701
20
-4.7652354330708659
11
5.7795992125984252
21
-4.7614859055118108
0
LINE
8
BLACK
6
CONTINUOUS
10
5.7795992125984252
20
-4.7614859055118108
11
5.7870982677165355
21
-4.7577363779527557
0
LINE
8
BLACK
6
CONTINUOUS
10
5.7870982677165355
20
-4.7577363779527557
11
5.7983468897637795
21
-4.7577363779527557
0
LINE
8
BLACK
6
CONTINUOUS
10
5.7983468897637795
20
-4.7577363779527557
11
5.8058459448818898
21
-4.7614859055118108
0
LINE
8
BLACK
6
CONTINUOUS
10
5.8058459448818898
20
-4.7614859055118108
11
5.8095954724409449
21
-4.7689849999999998
0
LINE
8
BLACK
6
CONTINUOUS
10
5.8095954724409449
20
-4.7689849999999998
11
5.8095954724409449
21
-4.8102298425196848
0
LINE
8
BLACK
6
CONTINUOUS
10
5.8583393700787401
20
-4.8102298425196848
11
5.8508403149606298
21
-4.8064803149606297
0
LINE
8
BLACK
6
CONTINUOUS
10
5.8508403149606298
20
-4.8064803149606297
11
5.8470907874015747
21
-4.8027307480314958
0
LINE
8
BLACK
6
CONTINUOUS
10
5.8470907874015747
20
-4.8027307480314958
11
5.8433412598425196
21
-4.7952316929133856
0
LINE
8
BLACK
6
CONTINUOUS
10
5.8433412598425196
20
-4.7952316929133856
11
5.8433412598425196
21
-4.7727345275590549
0
LINE
8
BLACK
6
CONTINUOUS
10
5.8433412598425196
20
-4.7727345275590549
11
5.8470907874015747
21
-4.7652354330708659
0
LINE
8
BLACK
6
CONTINUOUS
10
5.8470907874015747
20
-4.7652354330708659
11
5.8508403149606298
21
-4.7614859055118108
0
LINE
8
BLACK
6
CONTINUOUS
10
5.8508403149606298
20
-4.7614859055118108
11
5.8583393700787401
21
-4.7577363779527557
0
LINE
8
BLACK
6
CONTINUOUS
10
5.8583393700787401
20
-4.7577363779527557
11
5.8695879921259841
21
-4.7577363779527557
0
LINE
8
BLACK
6
CONTINUOUS
10
5.8695879921259841
20
-4.7577363779527557
11
5.8770870472440944
21
-4.7614859055118108
0
LINE
8
BLACK
6
CONTINUOUS
10
5.8770870472440944
20
-4.7614859055118108
11
5.8808365748031495
21
-4.7652354330708659
0
LINE
8
BLACK
6
CONTINUOUS
10
5.8808365748031495
20
-4.7652354330708659
11
5.8845861023622046
21
-4.7727345275590549
0
LINE
8
BLACK
6
CONTINUOUS
10
5.8845861023622046
20
-4.7727345275590549
11
5.8845861023622046
21
-4.7952316929133856
0
LINE
8
BLACK
6
CONTINUOUS
10
5.8845861023622046
20
-4.7952316929133856
11
5.8808365748031495
21
-4.8027307480314958
0
LINE
8
BLACK
6
CONTINUOUS
10
5.8808365748031495
20
-4.8027307480314958
11
5.8770870472440944
21
-4.8064803149606297
0
LINE
8
BLACK
6
CONTINUOUS
10
5.8770870472440944
20
-4.8064803149606297
11
5.8695879921259841
21
-4.8102298425196848
0
LINE
8
BLACK
6
CONTINUOUS
10
5.8695879921259841
20
-4.8102298425196848
11
5.8583393700787401
21
-4.8102298425196848
0
LINE
8
BLACK
6
CONTINUOUS
10
5.907083307086614
20
-4.7577363779527557
11
5.9370795275590549
21
-4.7577363779527557
0
LINE
8
BLACK
6
CONTINUOUS
10
5.9183318897637793
20
-4.73148968503937
11
5.9183318897637793
21
-4.7989812204724407
0
LINE
8
BLACK
6
CONTINUOUS
10
5.9183318897637793
20
-4.7989812204724407
11
5.9220814173228344
21
-4.8064803149606297
0
LINE
8
BLACK
6
CONTINUOUS
10
5.9220814173228344
20
-4.8064803149606297
11
5.9295804724409447
21
-4.8102298425196848
0
LINE
8
BLACK
6
CONTINUOUS
10
5.9295804724409447
20
-4.8102298425196848
11
5.9370795275590549
21
-4.8102298425196848
0
LINE
8
BLACK
6
CONTINUOUS
10
6.0233187795275587
20
-4.7577363779527557
11
6.0233187795275587
21
-4.8364765354330705
0
LINE
8
BLACK
6
CONTINUOUS
10
6.0233187795275587
20
-4.7614859055118108
11
6.0308178346456689
21
-4.7577363779527557
0
LINE
8
BLACK
6
CONTINUOUS
10
6.0308178346456689
20
-4.7577363779527557
11
6.0458159842519681
21
-4.7577363779527557
0
LINE
8
BLACK
6
CONTINUOUS
10
6.0458159842519681
20
-4.7577363779527557
11
6.0533150393700783
21
-4.7614859055118108
0
LINE
8
BLACK
6
CONTINUOUS
10
6.0533150393700783
20
-4.7614859055118108
11
6.0570645669291334
21
-4.7652354330708659
0
LINE
8
BLACK
6
CONTINUOUS
10
6.0570645669291334
20
-4.7652354330708659
11
6.0608140944881885
21
-4.7727345275590549
0
LINE
8
BLACK
6
CONTINUOUS
10
6.0608140944881885
20
-4.7727345275590549
11
6.0608140944881885
21
-4.7952316929133856
0
LINE
8
BLACK
6
CONTINUOUS
10
6.0608140944881885
20
-4.7952316929133856
11
6.0570645669291334
21
-4.8027307480314958
0
LINE
8
BLACK
6
CONTINUOUS
10
6.0570645669291334
20
-4.8027307480314958
11
6.0533150393700783
21
-4.8064803149606297
0
LINE
8
BLACK
6
CONTINUOUS
10
6.0533150393700783
20
-4.8064803149606297
11
6.0458159842519681
21
-4.8102298425196848
0
LINE
8
BLACK
6
CONTINUOUS
10
6.0458159842519681
20
-4.8102298425196848
11
6.0308178346456689
21
-4.8102298425196848
0
LINE
8
BLACK
6
CONTINUOUS
10
6.0308178346456689
20
-4.8102298425196848
11
6.0233187795275587
21
-4.8064803149606297
0
LINE
8
BLACK
6
CONTINUOUS
10
6.1058084645669286
20
-4.8102298425196848
11
6.0983094094488184
21
-4.8064803149606297
0
LINE
8
BLACK
6
CONTINUOUS
10
6.0983094094488184
20
-4.8064803149606297
11
6.0945598818897633
21
-4.7989812204724407
0
LINE
8
BLACK
6
CONTINUOUS
10
6.0945598818897633
20
-4.7989812204724407
11
6.0945598818897633
21
-4.73148968503937
0
LINE
8
BLACK
6
CONTINUOUS
10
6.1695505118110239
20
-4.8102298425196848
11
6.1695505118110239
21
-4.7689849999999998
0
LINE
8
BLACK
6
CONTINUOUS
10
6.1695505118110239
20
-4.7689849999999998
11
6.1658009842519688
21
-4.7614859055118108
0
LINE
8
BLACK
6
CONTINUOUS
10
6.1658009842519688
20
-4.7614859055118108
11
6.1583019291338585
21
-4.7577363779527557
0
LINE
8
BLACK
6
CONTINUOUS
10
6.1583019291338585
20
-4.7577363779527557
11
6.1433037795275593
21
-4.7577363779527557
0
LINE
8
BLACK
6
CONTINUOUS
10
6.1433037795275593
20
-4.7577363779527557
11
6.1358047244094482
21
-4.7614859055118108
0
LINE
8
BLACK
6
CONTINUOUS
10
6.1695505118110239
20
-4.8064803149606297
11
6.1620514566929137
21
-4.8102298425196848
0
LINE
8
BLACK
6
CONTINUOUS
10
6.1620514566929137
20
-4.8102298425196848
11
6.1433037795275593
21
-4.8102298425196848
0
LINE
8
BLACK
6
CONTINUOUS
10
6.1433037795275593
20
-4.8102298425196848
11
6.1358047244094482
21
-4.8064803149606297
0
LINE
8
BLACK
6
CONTINUOUS
10
6.1358047244094482
20
-4.8064803149606297
11
6.1320551968503931
21
-4.7989812204724407
0
LINE
8
BLACK
6
CONTINUOUS
10
6.1320551968503931
20
-4.7989812204724407
11
6.1320551968503931
21
-4.7914821653543305
0
LINE
8
BLACK
6
CONTINUOUS
10
6.1320551968503931
20
-4.7914821653543305
11
6.1358047244094482
21
-4.7839831102362202
0
LINE
8
BLACK
6
CONTINUOUS
10
6.1358047244094482
20
-4.7839831102362202
11
6.1433037795275593
21
-4.7802335826771651
0
LINE
8
BLACK
6
CONTINUOUS
10
6.1433037795275593
20
-4.7802335826771651
11
6.1620514566929137
21
-4.7802335826771651
0
LINE
8
BLACK
6
CONTINUOUS
10
6.1620514566929137
20
-4.7802335826771651
11
6.1695505118110239
21
-4.77648405511811
0
LINE
8
BLACK
6
CONTINUOUS
10
6.1957972440944884
20
-4.7577363779527557
11
6.2257934645669293
21
-4.7577363779527557
0
LINE
8
BLACK
6
CONTINUOUS
10
6.2070458267716537
20
-4.73148968503937
11
6.2070458267716537
21
-4.7989812204724407
0
LINE
8
BLACK
6
CONTINUOUS
10
6.2070458267716537
20
-4.7989812204724407
11
6.2107953543307088
21
-4.8064803149606297
0
LINE
8
BLACK
6
CONTINUOUS
10
6.2107953543307088
20
-4.8064803149606297
11
6.2182944094488191
21
-4.8102298425196848
0
LINE
8
BLACK
6
CONTINUOUS
10
6.2182944094488191
20
-4.8102298425196848
11
6.2257934645669293
21
-4.8102298425196848
0
LINE
8
BLACK
6
CONTINUOUS
10
6.2820364566929134
20
-4.8064803149606297
11
6.2745374015748032
21
-4.8102298425196848
0
LINE
8
BLACK
6
CONTINUOUS
10
6.2745374015748032
20
-4.8102298425196848
11
6.259539251968504
21
-4.8102298425196848
0
LINE
8
BLACK
6
CONTINUOUS
10
6.259539251968504
20
-4.8102298425196848
11
6.2520401968503938
21
-4.8064803149606297
0
LINE
8
BLACK
6
CONTINUOUS
10
6.2520401968503938
20
-4.8064803149606297
11
6.2482906692913387
21
-4.7989812204724407
0
LINE
8
BLACK
6
CONTINUOUS
10
6.2482906692913387
20
-4.7989812204724407
11
6.2482906692913387
21
-4.7689849999999998
0
LINE
8
BLACK
6
CONTINUOUS
10
6.2482906692913387
20
-4.7689849999999998
11
6.2520401968503938
21
-4.7614859055118108
0
LINE
8
BLACK
6
CONTINUOUS
10
6.2520401968503938
20
-4.7614859055118108
11
6.259539251968504
21
-4.7577363779527557
0
LINE
8
BLACK
6
CONTINUOUS
10
6.259539251968504
20
-4.7577363779527557
11
6.2745374015748032
21
-4.7577363779527557
0
LINE
8
BLACK
6
CONTINUOUS
10
6.2745374015748032
20
-4.7577363779527557
11
6.2820364566929134
21
-4.7614859055118108
0
LINE
8
BLACK
6
CONTINUOUS
10
6.2820364566929134
20
-4.7614859055118108
11
6.2857859842519686
21
-4.7689849999999998
0
LINE
8
BLACK
6
CONTINUOUS
10
6.2857859842519686
20
-4.7689849999999998
11
6.2857859842519686
21
-4.77648405511811
0
LINE
8
BLACK
6
CONTINUOUS
10
6.2857859842519686
20
-4.77648405511811
11
6.2482906692913387
21
-4.7839831102362202
0
LINE
8
BLACK
6
CONTINUOUS
10
6.353277559055118
20
-4.8102298425196848
11
6.353277559055118
21
-4.73148968503937
0
LINE
8
BLACK
6
CONTINUOUS
10
6.353277559055118
20
-4.8064803149606297
11
6.3457785039370078
21
-4.8102298425196848
0
LINE
8
BLACK
6
CONTINUOUS
10
6.3457785039370078
20
-4.8102298425196848
11
6.3307803543307086
21
-4.8102298425196848
0
LINE
8
BLACK
6
CONTINUOUS
10
6.3307803543307086
20
-4.8102298425196848
11
6.3232812992125984
21
-4.8064803149606297
0
LINE
8
BLACK
6
CONTINUOUS
10
6.3232812992125984
20
-4.8064803149606297
11
6.3195317716535433
21
-4.8027307480314958
0
LINE
8
BLACK
6
CONTINUOUS
10
6.3195317716535433
20
-4.8027307480314958
11
6.3157822440944882
21
-4.7952316929133856
0
LINE
8
BLACK
6
CONTINUOUS
10
6.3157822440944882
20
-4.7952316929133856
11
6.3157822440944882
21
-4.7727345275590549
0
LINE
8
BLACK
6
CONTINUOUS
10
6.3157822440944882
20
-4.7727345275590549
11
6.3195317716535433
21
-4.7652354330708659
0
LINE
8
BLACK
6
CONTINUOUS
10
6.3195317716535433
20
-4.7652354330708659
11
6.3232812992125984
21
-4.7614859055118108
0
LINE
8
BLACK
6
CONTINUOUS
10
6.3232812992125984
20
-4.7614859055118108
11
6.3307803543307086
21
-4.7577363779527557
0
LINE
8
BLACK
6
CONTINUOUS
10
6.3307803543307086
20
-4.7577363779527557
11
6.3457785039370078
21
-4.7577363779527557
0
LINE
8
BLACK
6
CONTINUOUS
10
6.3457785039370078
20
-4.7577363779527557
11
6.353277559055118
21
-4.7614859055118108
0
LINE
8
BLACK
6
CONTINUOUS
10
6.3832738188976377
20
-4.8402260629921257
11
6.3870233464566928
21
-4.8364765354330705
0
LINE
8
BLACK
6
CONTINUOUS
10
6.3870233464566928
20
-4.8364765354330705
11
6.394522401574803
21
-4.8252279527559052
0
LINE
8
BLACK
6
CONTINUOUS
10
6.394522401574803
20
-4.8252279527559052
11
6.3982719291338581
21
-4.817728897637795
0
LINE
8
BLACK
6
CONTINUOUS
10
6.3982719291338581
20
-4.817728897637795
11
6.4020214566929132
21
-4.8064803149606297
0
LINE
8
BLACK
6
CONTINUOUS
10
6.4020214566929132
20
-4.8064803149606297
11
6.4057709842519683
21
-4.7877326377952754
0
LINE
8
BLACK
6
CONTINUOUS
10
6.4057709842519683
20
-4.7877326377952754
11
6.4057709842519683
21
-4.7727345275590549
0
LINE
8
BLACK
6
CONTINUOUS
10
6.4057709842519683
20
-4.7727345275590549
11
6.4020214566929132
21
-4.7539868503937006
0
LINE
8
BLACK
6
CONTINUOUS
10
6.4020214566929132
20
-4.7539868503937006
11
6.3982719291338581
21
-4.7427382677165353
0
LINE
8
BLACK
6
CONTINUOUS
10
6.3982719291338581
20
-4.7427382677165353
11
6.394522401574803
21
-4.7352392125984251
0
LINE
8
BLACK
6
CONTINUOUS
10
6.394522401574803
20
-4.7352392125984251
11
6.3870233464566928
21
-4.723990590551181
0
LINE
8
BLACK
6
CONTINUOUS
10
6.3870233464566928
20
-4.723990590551181
11
6.3832738188976377
21
-4.7202410629921259
0
LINE
8
BLACK
6
CONTINUOUS
10
3.6840551181102361
20
-4.85492125984252
11
3.6840551181102361
21
-4.9336614173228348
0
LINE
8
BLACK
6
CONTINUOUS
10
3.6446850393700787
20
-4.8942913385826774
11
3.7234251968503935
21
-4.8942913385826774
0
LINE
8
BLACK
6
CONTINUOUS
10
3.8223437007874015
20
-4.8590674803149607
11
3.8260932283464566
21
-4.8553179527559056
0
LINE
8
BLACK
6
CONTINUOUS
10
3.8260932283464566
20
-4.8553179527559056
11
3.8335922834645668
21
-4.8515684251968505
0
LINE
8
BLACK
6
CONTINUOUS
10
3.8335922834645668
20
-4.8515684251968505
11
3.8523399606299211
21
-4.8515684251968505
0
LINE
8
BLACK
6
CONTINUOUS
10
3.8523399606299211
20
-4.8515684251968505
11
3.8598390157480313
21
-4.8553179527559056
0
LINE
8
BLACK
6
CONTINUOUS
10
3.8598390157480313
20
-4.8553179527559056
11
3.8635885433070865
21
-4.8590674803149607
0
LINE
8
BLACK
6
CONTINUOUS
10
3.8635885433070865
20
-4.8590674803149607
11
3.8673380708661416
21
-4.8665665354330709
0
LINE
8
BLACK
6
CONTINUOUS
10
3.8673380708661416
20
-4.8665665354330709
11
3.8673380708661416
21
-4.8740655905511812
0
LINE
8
BLACK
6
CONTINUOUS
10
3.8673380708661416
20
-4.8740655905511812
11
3.8635885433070865
21
-4.8853141732283465
0
LINE
8
BLACK
6
CONTINUOUS
10
3.8635885433070865
20
-4.8853141732283465
11
3.8185941732283464
21
-4.9303085826771653
0
LINE
8
BLACK
6
CONTINUOUS
10
3.8185941732283464
20
-4.9303085826771653
11
3.8673380708661416
21
-4.9303085826771653
0
LINE
8
BLACK
6
CONTINUOUS
10
3.9010838582677163
20
-4.9228094881889763
11
3.9048333858267714
21
-4.9265590551181102
0
LINE
8
BLACK
6
CONTINUOUS
10
3.9048333858267714
20
-4.9265590551181102
11
3.9010838582677163
21
-4.9303085826771653
0
LINE
8
BLACK
6
CONTINUOUS
10
3.9010838582677163
20
-4.9303085826771653
11
3.8973343307086612
21
-4.9265590551181102
0
LINE
8
BLACK
6
CONTINUOUS
10
3.8973343307086612
20
-4.9265590551181102
11
3.9010838582677163
21
-4.9228094881889763
0
LINE
8
BLACK
6
CONTINUOUS
10
3.9010838582677163
20
-4.9228094881889763
11
3.9010838582677163
21
-4.9303085826771653
0
LINE
8
BLACK
6
CONTINUOUS
10
3.9348296456692911
20
-4.8590674803149607
11
3.9385791732283462
21
-4.8553179527559056
0
LINE
8
BLACK
6
CONTINUOUS
10
3.9385791732283462
20
-4.8553179527559056
11
3.9460782283464564
21
-4.8515684251968505
0
LINE
8
BLACK
6
CONTINUOUS
10
3.9460782283464564
20
-4.8515684251968505
11
3.9648259055118111
21
-4.8515684251968505
0
LINE
8
BLACK
6
CONTINUOUS
10
3.9648259055118111
20
-4.8515684251968505
11
3.9723249606299214
21
-4.8553179527559056
0
LINE
8
BLACK
6
CONTINUOUS
10
3.9723249606299214
20
-4.8553179527559056
11
3.9760744881889765
21
-4.8590674803149607
0
LINE
8
BLACK
6
CONTINUOUS
10
3.9760744881889765
20
-4.8590674803149607
11
3.9798240157480316
21
-4.8665665354330709
0
LINE
8
BLACK
6
CONTINUOUS
10
3.9798240157480316
20
-4.8665665354330709
11
3.9798240157480316
21
-4.8740655905511812
0
LINE
8
BLACK
6
CONTINUOUS
10
3.9798240157480316
20
-4.8740655905511812
11
3.9760744881889765
21
-4.8853141732283465
0
LINE
8
BLACK
6
CONTINUOUS
10
3.9760744881889765
20
-4.8853141732283465
11
3.9310801181102359
21
-4.9303085826771653
0
LINE
8
BLACK
6
CONTINUOUS
10
3.9310801181102359
20
-4.9303085826771653
11
3.9798240157480316
21
-4.9303085826771653
0
LINE
8
BLACK
6
CONTINUOUS
10
4.0285679133858263
20
-4.8515684251968505
11
4.0360670078740153
21
-4.8515684251968505
0
LINE
8
BLACK
6
CONTINUOUS
10
4.0360670078740153
20
-4.8515684251968505
11
4.0435660629921255
21
-4.8553179527559056
0
LINE
8
BLACK
6
CONTINUOUS
10
4.0435660629921255
20
-4.8553179527559056
11
4.0473155905511806
21
-4.8590674803149607
0
LINE
8
BLACK
6
CONTINUOUS
10
4.0473155905511806
20
-4.8590674803149607
11
4.0510651181102357
21
-4.8665665354330709
0
LINE
8
BLACK
6
CONTINUOUS
10
4.0510651181102357
20
-4.8665665354330709
11
4.0548146456692908
21
-4.8815646456692914
0
LINE
8
BLACK
6
CONTINUOUS
10
4.0548146456692908
20
-4.8815646456692914
11
4.0548146456692908
21
-4.9003123228346457
0
LINE
8
BLACK
6
CONTINUOUS
10
4.0548146456692908
20
-4.9003123228346457
11
4.0510651181102357
21
-4.9153104330708661
0
LINE
8
BLACK
6
CONTINUOUS
10
4.0510651181102357
20
-4.9153104330708661
11
4.0473155905511806
21
-4.9228094881889763
0
LINE
8
BLACK
6
CONTINUOUS
10
4.0473155905511806
20
-4.9228094881889763
11
4.0435660629921255
21
-4.9265590551181102
0
LINE
8
BLACK
6
CONTINUOUS
10
4.0435660629921255
20
-4.9265590551181102
11
4.0360670078740153
21
-4.9303085826771653
0
LINE
8
BLACK
6
CONTINUOUS
10
4.0360670078740153
20
-4.9303085826771653
11
4.0285679133858263
21
-4.9303085826771653
0
LINE
8
BLACK
6
CONTINUOUS
10
4.0285679133858263
20
-4.9303085826771653
11
4.0210688582677161
21
-4.9265590551181102
0
LINE
8
BLACK
6
CONTINUOUS
10
4.0210688582677161
20
-4.9265590551181102
11
4.017319330708661
21
-4.9228094881889763
0
LINE
8
BLACK
6
CONTINUOUS
10
4.017319330708661
20
-4.9228094881889763
11
4.0135698031496059
21
-4.9153104330708661
0
LINE
8
BLACK
6
CONTINUOUS
10
4.0135698031496059
20
-4.9153104330708661
11
4.0098202755905508
21
-4.9003123228346457
0
LINE
8
BLACK
6
CONTINUOUS
10
4.0098202755905508
20
-4.9003123228346457
11
4.0098202755905508
21
-4.8815646456692914
0
LINE
8
BLACK
6
CONTINUOUS
10
4.0098202755905508
20
-4.8815646456692914
11
4.0135698031496059
21
-4.8665665354330709
0
LINE
8
BLACK
6
CONTINUOUS
10
4.0135698031496059
20
-4.8665665354330709
11
4.017319330708661
21
-4.8590674803149607
0
LINE
8
BLACK
6
CONTINUOUS
10
4.017319330708661
20
-4.8590674803149607
11
4.0210688582677161
21
-4.8553179527559056
0
LINE
8
BLACK
6
CONTINUOUS
10
4.0210688582677161
20
-4.8553179527559056
11
4.0285679133858263
21
-4.8515684251968505
0
LINE
8
BLACK
6
CONTINUOUS
10
4.1035585433070869
20
-4.8515684251968505
11
4.1110576377952759
21
-4.8515684251968505
0
LINE
8
BLACK
6
CONTINUOUS
10
4.1110576377952759
20
-4.8515684251968505
11
4.1185566929133861
21
-4.8553179527559056
0
LINE
8
BLACK
6
CONTINUOUS
10
4.1185566929133861
20
-4.8553179527559056
11
4.1223062204724412
21
-4.8590674803149607
0
LINE
8
BLACK
6
CONTINUOUS
10
4.1223062204724412
20
-4.8590674803149607
11
4.1260557480314963
21
-4.8665665354330709
0
LINE
8
BLACK
6
CONTINUOUS
10
4.1260557480314963
20
-4.8665665354330709
11
4.1298052755905514
21
-4.8815646456692914
0
LINE
8
BLACK
6
CONTINUOUS
10
4.1298052755905514
20
-4.8815646456692914
11
4.1298052755905514
21
-4.9003123228346457
0
LINE
8
BLACK
6
CONTINUOUS
10
4.1298052755905514
20
-4.9003123228346457
11
4.1260557480314963
21
-4.9153104330708661
0
LINE
8
BLACK
6
CONTINUOUS
10
4.1260557480314963
20
-4.9153104330708661
11
4.1223062204724412
21
-4.9228094881889763
0
LINE
8
BLACK
6
CONTINUOUS
10
4.1223062204724412
20
-4.9228094881889763
11
4.1185566929133861
21
-4.9265590551181102
0
LINE
8
BLACK
6
CONTINUOUS
10
4.1185566929133861
20
-4.9265590551181102
11
4.1110576377952759
21
-4.9303085826771653
0
LINE
8
BLACK
6
CONTINUOUS
10
4.1110576377952759
20
-4.9303085826771653
11
4.1035585433070869
21
-4.9303085826771653
0
LINE
8
BLACK
6
CONTINUOUS
10
4.1035585433070869
20
-4.9303085826771653
11
4.0960594881889767
21
-4.9265590551181102
0
LINE
8
BLACK
6
CONTINUOUS
10
4.0960594881889767
20
-4.9265590551181102
11
4.0923099606299216
21
-4.9228094881889763
0
LINE
8
BLACK
6
CONTINUOUS
10
4.0923099606299216
20
-4.9228094881889763
11
4.0885604330708665
21
-4.9153104330708661
0
LINE
8
BLACK
6
CONTINUOUS
10
4.0885604330708665
20
-4.9153104330708661
11
4.0848109055118114
21
-4.9003123228346457
0
LINE
8
BLACK
6
CONTINUOUS
10
4.0848109055118114
20
-4.9003123228346457
11
4.0848109055118114
21
-4.8815646456692914
0
LINE
8
BLACK
6
CONTINUOUS
10
4.0848109055118114
20
-4.8815646456692914
11
4.0885604330708665
21
-4.8665665354330709
0
LINE
8
BLACK
6
CONTINUOUS
10
4.0885604330708665
20
-4.8665665354330709
11
4.0923099606299216
21
-4.8590674803149607
0
LINE
8
BLACK
6
CONTINUOUS
10
4.0923099606299216
20
-4.8590674803149607
11
4.0960594881889767
21
-4.8553179527559056
0
LINE
8
BLACK
6
CONTINUOUS
10
4.0960594881889767
20
-4.8553179527559056
11
4.1035585433070869
21
-4.8515684251968505
0
LINE
8
BLACK
6
CONTINUOUS
10
4.1635510629921262
20
-4.9303085826771653
11
4.1635510629921262
21
-4.8778151181102363
0
LINE
8
BLACK
6
CONTINUOUS
10
4.1635510629921262
20
-4.8853141732283465
11
4.1673005905511813
21
-4.8815646456692914
0
LINE
8
BLACK
6
CONTINUOUS
10
4.1673005905511813
20
-4.8815646456692914
11
4.1747996456692915
21
-4.8778151181102363
0
LINE
8
BLACK
6
CONTINUOUS
10
4.1747996456692915
20
-4.8778151181102363
11
4.1860482677165356
21
-4.8778151181102363
0
LINE
8
BLACK
6
CONTINUOUS
10
4.1860482677165356
20
-4.8778151181102363
11
4.1935473228346458
21
-4.8815646456692914
0
LINE
8
BLACK
6
CONTINUOUS
10
4.1935473228346458
20
-4.8815646456692914
11
4.1972968503937009
21
-4.8890637401574804
0
LINE
8
BLACK
6
CONTINUOUS
10
4.1972968503937009
20
-4.8890637401574804
11
4.1972968503937009
21
-4.9303085826771653
0
LINE
8
BLACK
6
CONTINUOUS
10
4.1972968503937009
20
-4.8890637401574804
11
4.201046377952756
21
-4.8815646456692914
0
LINE
8
BLACK
6
CONTINUOUS
10
4.201046377952756
20
-4.8815646456692914
11
4.2085454330708663
21
-4.8778151181102363
0
LINE
8
BLACK
6
CONTINUOUS
10
4.2085454330708663
20
-4.8778151181102363
11
4.2197940157480316
21
-4.8778151181102363
0
LINE
8
BLACK
6
CONTINUOUS
10
4.2197940157480316
20
-4.8778151181102363
11
4.2272931102362206
21
-4.8815646456692914
0
LINE
8
BLACK
6
CONTINUOUS
10
4.2272931102362206
20
-4.8815646456692914
11
4.2310426377952757
21
-4.8890637401574804
0
LINE
8
BLACK
6
CONTINUOUS
10
4.2310426377952757
20
-4.8890637401574804
11
4.2310426377952757
21
-4.9303085826771653
0
LINE
8
BLACK
6
CONTINUOUS
10
4.2685379527559055
20
-4.9303085826771653
11
4.2685379527559055
21
-4.8778151181102363
0
LINE
8
BLACK
6
CONTINUOUS
10
4.2685379527559055
20
-4.8853141732283465
11
4.2722874803149606
21
-4.8815646456692914
0
LINE
8
BLACK
6
CONTINUOUS
10
4.2722874803149606
20
-4.8815646456692914
11
4.2797865354330709
21
-4.8778151181102363
0
LINE
8
BLACK
6
CONTINUOUS
10
4.2797865354330709
20
-4.8778151181102363
11
4.2910351574803149
21
-4.8778151181102363
0
LINE
8
BLACK
6
CONTINUOUS
10
4.2910351574803149
20
-4.8778151181102363
11
4.2985342125984252
21
-4.8815646456692914
0
LINE
8
BLACK
6
CONTINUOUS
10
4.2985342125984252
20
-4.8815646456692914
11
4.3022837401574803
21
-4.8890637401574804
0
LINE
8
BLACK
6
CONTINUOUS
10
4.3022837401574803
20
-4.8890637401574804
11
4.3022837401574803
21
-4.9303085826771653
0
LINE
8
BLACK
6
CONTINUOUS
10
4.3022837401574803
20
-4.8890637401574804
11
4.3060332677165354
21
-4.8815646456692914
0
LINE
8
BLACK
6
CONTINUOUS
10
4.3060332677165354
20
-4.8815646456692914
11
4.3135323228346456
21
-4.8778151181102363
0
LINE
8
BLACK
6
CONTINUOUS
10
4.3135323228346456
20
-4.8778151181102363
11
4.3247809055118109
21
-4.8778151181102363
0
LINE
8
BLACK
6
CONTINUOUS
10
4.3247809055118109
20
-4.8778151181102363
11
4.3322799999999999
21
-4.8815646456692914
0
LINE
8
BLACK
6
CONTINUOUS
10
4.3322799999999999
20
-4.8815646456692914
11
4.336029527559055
21
-4.8890637401574804
0
LINE
8
BLACK
6
CONTINUOUS
10
4.336029527559055
20
-4.8890637401574804
11
4.336029527559055
21
-4.9303085826771653
0
LINE
8
BLACK
6
CONTINUOUS
10
4.4897603149606296
20
-4.8478188976377954
11
4.4222687795275588
21
-4.9490562204724409
0
LINE
8
BLACK
6
CONTINUOUS
10
4.5909976771653538
20
-4.8515684251968505
11
4.5984967716535428
21
-4.8515684251968505
0
LINE
8
BLACK
6
CONTINUOUS
10
4.5984967716535428
20
-4.8515684251968505
11
4.6059958267716539
21
-4.8553179527559056
0
LINE
8
BLACK
6
CONTINUOUS
10
4.6059958267716539
20
-4.8553179527559056
11
4.609745354330709
21
-4.8590674803149607
0
LINE
8
BLACK
6
CONTINUOUS
10
4.609745354330709
20
-4.8590674803149607
11
4.6134948818897641
21
-4.8665665354330709
0
LINE
8
BLACK
6
CONTINUOUS
10
4.6134948818897641
20
-4.8665665354330709
11
4.6172444094488192
21
-4.8815646456692914
0
LINE
8
BLACK
6
CONTINUOUS
10
4.6172444094488192
20
-4.8815646456692914
11
4.6172444094488192
21
-4.9003123228346457
0
LINE
8
BLACK
6
CONTINUOUS
10
4.6172444094488192
20
-4.9003123228346457
11
4.6134948818897641
21
-4.9153104330708661
0
LINE
8
BLACK
6
CONTINUOUS
10
4.6134948818897641
20
-4.9153104330708661
11
4.609745354330709
21
-4.9228094881889763
0
LINE
8
BLACK
6
CONTINUOUS
10
4.609745354330709
20
-4.9228094881889763
11
4.6059958267716539
21
-4.9265590551181102
0
LINE
8
BLACK
6
CONTINUOUS
10
4.6059958267716539
20
-4.9265590551181102
11
4.5984967716535428
21
-4.9303085826771653
0
LINE
8
BLACK
6
CONTINUOUS
10
4.5984967716535428
20
-4.9303085826771653
11
4.5909976771653538
21
-4.9303085826771653
0
LINE
8
BLACK
6
CONTINUOUS
10
4.5909976771653538
20
-4.9303085826771653
11
4.5834986220472436
21
-4.9265590551181102
0
LINE
8
BLACK
6
CONTINUOUS
10
4.5834986220472436
20
-4.9265590551181102
11
4.5797490944881885
21
-4.9228094881889763
0
LINE
8
BLACK
6
CONTINUOUS
10
4.5797490944881885
20
-4.9228094881889763
11
4.5759995669291333
21
-4.9153104330708661
0
LINE
8
BLACK
6
CONTINUOUS
10
4.5759995669291333
20
-4.9153104330708661
11
4.5722500393700782
21
-4.9003123228346457
0
LINE
8
BLACK
6
CONTINUOUS
10
4.5722500393700782
20
-4.9003123228346457
11
4.5722500393700782
21
-4.8815646456692914
0
LINE
8
BLACK
6
CONTINUOUS
10
4.5722500393700782
20
-4.8815646456692914
11
4.5759995669291333
21
-4.8665665354330709
0
LINE
8
BLACK
6
CONTINUOUS
10
4.5759995669291333
20
-4.8665665354330709
11
4.5797490944881885
21
-4.8590674803149607
0
LINE
8
BLACK
6
CONTINUOUS
10
4.5797490944881885
20
-4.8590674803149607
11
4.5834986220472436
21
-4.8553179527559056
0
LINE
8
BLACK
6
CONTINUOUS
10
4.5834986220472436
20
-4.8553179527559056
11
4.5909976771653538
21
-4.8515684251968505
0
LINE
8
BLACK
6
CONTINUOUS
10
4.6509901968503939
20
-4.9228094881889763
11
4.6547397244094491
21
-4.9265590551181102
0
LINE
8
BLACK
6
CONTINUOUS
10
4.6547397244094491
20
-4.9265590551181102
11
4.6509901968503939
21
-4.9303085826771653
0
LINE
8
BLACK
6
CONTINUOUS
10
4.6509901968503939
20
-4.9303085826771653
11
4.6472406692913388
21
-4.9265590551181102
0
LINE
8
BLACK
6
CONTINUOUS
10
4.6472406692913388
20
-4.9265590551181102
11
4.6509901968503939
21
-4.9228094881889763
0
LINE
8
BLACK
6
CONTINUOUS
10
4.6509901968503939
20
-4.9228094881889763
11
4.6509901968503939
21
-4.9303085826771653
0
LINE
8
BLACK
6
CONTINUOUS
10
4.7034836220472442
20
-4.8515684251968505
11
4.7109827165354332
21
-4.8515684251968505
0
LINE
8
BLACK
6
CONTINUOUS
10
4.7109827165354332
20
-4.8515684251968505
11
4.7184817716535434
21
-4.8553179527559056
0
LINE
8
BLACK
6
CONTINUOUS
10
4.7184817716535434
20
-4.8553179527559056
11
4.7222312992125985
21
-4.8590674803149607
0
LINE
8
BLACK
6
CONTINUOUS
10
4.7222312992125985
20
-4.8590674803149607
11
4.7259808267716537
21
-4.8665665354330709
0
LINE
8
BLACK
6
CONTINUOUS
10
4.7259808267716537
20
-4.8665665354330709
11
4.7297303543307088
21
-4.8815646456692914
0
LINE
8
BLACK
6
CONTINUOUS
10
4.7297303543307088
20
-4.8815646456692914
11
4.7297303543307088
21
-4.9003123228346457
0
LINE
8
BLACK
6
CONTINUOUS
10
4.7297303543307088
20
-4.9003123228346457
11
4.7259808267716537
21
-4.9153104330708661
0
LINE
8
BLACK
6
CONTINUOUS
10
4.7259808267716537
20
-4.9153104330708661
11
4.7222312992125985
21
-4.9228094881889763
0
LINE
8
BLACK
6
CONTINUOUS
10
4.7222312992125985
20
-4.9228094881889763
11
4.7184817716535434
21
-4.9265590551181102
0
LINE
8
BLACK
6
CONTINUOUS
10
4.7184817716535434
20
-4.9265590551181102
11
4.7109827165354332
21
-4.9303085826771653
0
LINE
8
BLACK
6
CONTINUOUS
10
4.7109827165354332
20
-4.9303085826771653
11
4.7034836220472442
21
-4.9303085826771653
0
LINE
8
BLACK
6
CONTINUOUS
10
4.7034836220472442
20
-4.9303085826771653
11
4.695984566929134
21
-4.9265590551181102
0
LINE
8
BLACK
6
CONTINUOUS
10
4.695984566929134
20
-4.9265590551181102
11
4.6922350393700789
21
-4.9228094881889763
0
LINE
8
BLACK
6
CONTINUOUS
10
4.6922350393700789
20
-4.9228094881889763
11
4.6884855118110238
21
-4.9153104330708661
0
LINE
8
BLACK
6
CONTINUOUS
10
4.6884855118110238
20
-4.9153104330708661
11
4.6847359842519687
21
-4.9003123228346457
0
LINE
8
BLACK
6
CONTINUOUS
10
4.6847359842519687
20
-4.9003123228346457
11
4.6847359842519687
21
-4.8815646456692914
0
LINE
8
BLACK
6
CONTINUOUS
10
4.6847359842519687
20
-4.8815646456692914
11
4.6884855118110238
21
-4.8665665354330709
0
LINE
8
BLACK
6
CONTINUOUS
10
4.6884855118110238
20
-4.8665665354330709
11
4.6922350393700789
21
-4.8590674803149607
0
LINE
8
BLACK
6
CONTINUOUS
10
4.6922350393700789
20
-4.8590674803149607
11
4.695984566929134
21
-4.8553179527559056
0
LINE
8
BLACK
6
CONTINUOUS
10
4.695984566929134
20
-4.8553179527559056
11
4.7034836220472442
21
-4.8515684251968505
0
LINE
8
BLACK
6
CONTINUOUS
10
4.7747247244094488
20
-4.8853141732283465
11
4.7672256692913386
21
-4.8815646456692914
0
LINE
8
BLACK
6
CONTINUOUS
10
4.7672256692913386
20
-4.8815646456692914
11
4.7634761417322835
21
-4.8778151181102363
0
LINE
8
BLACK
6
CONTINUOUS
10
4.7634761417322835
20
-4.8778151181102363
11
4.7597266141732284
21
-4.870316062992126
0
LINE
8
BLACK
6
CONTINUOUS
10
4.7597266141732284
20
-4.870316062992126
11
4.7597266141732284
21
-4.8665665354330709
0
LINE
8
BLACK
6
CONTINUOUS
10
4.7597266141732284
20
-4.8665665354330709
11
4.7634761417322835
21
-4.8590674803149607
0
LINE
8
BLACK
6
CONTINUOUS
10
4.7634761417322835
20
-4.8590674803149607
11
4.7672256692913386
21
-4.8553179527559056
0
LINE
8
BLACK
6
CONTINUOUS
10
4.7672256692913386
20
-4.8553179527559056
11
4.7747247244094488
21
-4.8515684251968505
0
LINE
8
BLACK
6
CONTINUOUS
10
4.7747247244094488
20
-4.8515684251968505
11
4.789722874015748
21
-4.8515684251968505
0
LINE
8
BLACK
6
CONTINUOUS
10
4.789722874015748
20
-4.8515684251968505
11
4.7972219291338583
21
-4.8553179527559056
0
LINE
8
BLACK
6
CONTINUOUS
10
4.7972219291338583
20
-4.8553179527559056
11
4.8009714566929134
21
-4.8590674803149607
0
LINE
8
BLACK
6
CONTINUOUS
10
4.8009714566929134
20
-4.8590674803149607
11
4.8047209842519685
21
-4.8665665354330709
0
LINE
8
BLACK
6
CONTINUOUS
10
4.8047209842519685
20
-4.8665665354330709
11
4.8047209842519685
21
-4.870316062992126
0
LINE
8
BLACK
6
CONTINUOUS
10
4.8047209842519685
20
-4.870316062992126
11
4.8009714566929134
21
-4.8778151181102363
0
LINE
8
BLACK
6
CONTINUOUS
10
4.8009714566929134
20
-4.8778151181102363
11
4.7972219291338583
21
-4.8815646456692914
0
LINE
8
BLACK
6
CONTINUOUS
10
4.7972219291338583
20
-4.8815646456692914
11
4.789722874015748
21
-4.8853141732283465
0
LINE
8
BLACK
6
CONTINUOUS
10
4.789722874015748
20
-4.8853141732283465
11
4.7747247244094488
21
-4.8853141732283465
0
LINE
8
BLACK
6
CONTINUOUS
10
4.7747247244094488
20
-4.8853141732283465
11
4.7672256692913386
21
-4.8890637401574804
0
LINE
8
BLACK
6
CONTINUOUS
10
4.7672256692913386
20
-4.8890637401574804
11
4.7634761417322835
21
-4.8928132677165355
0
LINE
8
BLACK
6
CONTINUOUS
10
4.7634761417322835
20
-4.8928132677165355
11
4.7597266141732284
21
-4.9003123228346457
0
LINE
8
BLACK
6
CONTINUOUS
10
4.7597266141732284
20
-4.9003123228346457
11
4.7597266141732284
21
-4.9153104330708661
0
LINE
8
BLACK
6
CONTINUOUS
10
4.7597266141732284
20
-4.9153104330708661
11
4.7634761417322835
21
-4.9228094881889763
0
LINE
8
BLACK
6
CONTINUOUS
10
4.7634761417322835
20
-4.9228094881889763
11
4.7672256692913386
21
-4.9265590551181102
0
LINE
8
BLACK
6
CONTINUOUS
10
4.7672256692913386
20
-4.9265590551181102
11
4.7747247244094488
21
-4.9303085826771653
0
LINE
8
BLACK
6
CONTINUOUS
10
4.7747247244094488
20
-4.9303085826771653
11
4.789722874015748
21
-4.9303085826771653
0
LINE
8
BLACK
6
CONTINUOUS
10
4.789722874015748
20
-4.9303085826771653
11
4.7972219291338583
21
-4.9265590551181102
0
LINE
8
BLACK
6
CONTINUOUS
10
4.7972219291338583
20
-4.9265590551181102
11
4.8009714566929134
21
-4.9228094881889763
0
LINE
8
BLACK
6
CONTINUOUS
10
4.8009714566929134
20
-4.9228094881889763
11
4.8047209842519685
21
-4.9153104330708661
0
LINE
8
BLACK
6
CONTINUOUS
10
4.8047209842519685
20
-4.9153104330708661
11
4.8047209842519685
21
-4.9003123228346457
0
LINE
8
BLACK
6
CONTINUOUS
10
4.8047209842519685
20
-4.9003123228346457
11
4.8009714566929134
21
-4.8928132677165355
0
LINE
8
BLACK
6
CONTINUOUS
10
4.8009714566929134
20
-4.8928132677165355
11
4.7972219291338583
21
-4.8890637401574804
0
LINE
8
BLACK
6
CONTINUOUS
10
4.7972219291338583
20
-4.8890637401574804
11
4.789722874015748
21
-4.8853141732283465
0
LINE
8
BLACK
6
CONTINUOUS
10
4.872212559055118
20
-4.8515684251968505
11
4.8572144094488188
21
-4.8515684251968505
0
LINE
8
BLACK
6
CONTINUOUS
10
4.8572144094488188
20
-4.8515684251968505
11
4.8497153543307085
21
-4.8553179527559056
0
LINE
8
BLACK
6
CONTINUOUS
10
4.8497153543307085
20
-4.8553179527559056
11
4.8459658267716534
21
-4.8590674803149607
0
LINE
8
BLACK
6
CONTINUOUS
10
4.8459658267716534
20
-4.8590674803149607
11
4.8384667716535432
21
-4.870316062992126
0
LINE
8
BLACK
6
CONTINUOUS
10
4.8384667716535432
20
-4.870316062992126
11
4.8347172440944881
21
-4.8853141732283465
0
LINE
8
BLACK
6
CONTINUOUS
10
4.8347172440944881
20
-4.8853141732283465
11
4.8347172440944881
21
-4.9153104330708661
0
LINE
8
BLACK
6
CONTINUOUS
10
4.8347172440944881
20
-4.9153104330708661
11
4.8384667716535432
21
-4.9228094881889763
0
LINE
8
BLACK
6
CONTINUOUS
10
4.8384667716535432
20
-4.9228094881889763
11
4.8422162992125983
21
-4.9265590551181102
0
LINE
8
BLACK
6
CONTINUOUS
10
4.8422162992125983
20
-4.9265590551181102
11
4.8497153543307085
21
-4.9303085826771653
0
LINE
8
BLACK
6
CONTINUOUS
10
4.8497153543307085
20
-4.9303085826771653
11
4.8647135039370077
21
-4.9303085826771653
0
LINE
8
BLACK
6
CONTINUOUS
10
4.8647135039370077
20
-4.9303085826771653
11
4.872212559055118
21
-4.9265590551181102
0
LINE
8
BLACK
6
CONTINUOUS
10
4.872212559055118
20
-4.9265590551181102
11
4.8759620866141731
21
-4.9228094881889763
0
LINE
8
BLACK
6
CONTINUOUS
10
4.8759620866141731
20
-4.9228094881889763
11
4.8797116141732282
21
-4.9153104330708661
0
LINE
8
BLACK
6
CONTINUOUS
10
4.8797116141732282
20
-4.9153104330708661
11
4.8797116141732282
21
-4.8965627952755906
0
LINE
8
BLACK
6
CONTINUOUS
10
4.8797116141732282
20
-4.8965627952755906
11
4.8759620866141731
21
-4.8890637401574804
0
LINE
8
BLACK
6
CONTINUOUS
10
4.8759620866141731
20
-4.8890637401574804
11
4.872212559055118
21
-4.8853141732283465
0
LINE
8
BLACK
6
CONTINUOUS
10
4.872212559055118
20
-4.8853141732283465
11
4.8647135039370077
21
-4.8815646456692914
0
LINE
8
BLACK
6
CONTINUOUS
10
4.8647135039370077
20
-4.8815646456692914
11
4.8497153543307085
21
-4.8815646456692914
0
LINE
8
BLACK
6
CONTINUOUS
10
4.8497153543307085
20
-4.8815646456692914
11
4.8422162992125983
21
-4.8853141732283465
0
LINE
8
BLACK
6
CONTINUOUS
10
4.8422162992125983
20
-4.8853141732283465
11
4.8384667716535432
21
-4.8890637401574804
0
LINE
8
BLACK
6
CONTINUOUS
10
4.8384667716535432
20
-4.8890637401574804
11
4.8347172440944881
21
-4.8965627952755906
0
LINE
8
BLACK
6
CONTINUOUS
10
4.9472031889763777
20
-4.8515684251968505
11
4.9322050393700785
21
-4.8515684251968505
0
LINE
8
BLACK
6
CONTINUOUS
10
4.9322050393700785
20
-4.8515684251968505
11
4.9247059842519683
21
-4.8553179527559056
0
LINE
8
BLACK
6
CONTINUOUS
10
4.9247059842519683
20
-4.8553179527559056
11
4.9209564566929132
21
-4.8590674803149607
0
LINE
8
BLACK
6
CONTINUOUS
10
4.9209564566929132
20
-4.8590674803149607
11
4.9134574015748029
21
-4.870316062992126
0
LINE
8
BLACK
6
CONTINUOUS
10
4.9134574015748029
20
-4.870316062992126
11
4.9097078740157478
21
-4.8853141732283465
0
LINE
8
BLACK
6
CONTINUOUS
10
4.9097078740157478
20
-4.8853141732283465
11
4.9097078740157478
21
-4.9153104330708661
0
LINE
8
BLACK
6
CONTINUOUS
10
4.9097078740157478
20
-4.9153104330708661
11
4.9134574015748029
21
-4.9228094881889763
0
LINE
8
BLACK
6
CONTINUOUS
10
4.9134574015748029
20
-4.9228094881889763
11
4.917206929133858
21
-4.9265590551181102
0
LINE
8
BLACK
6
CONTINUOUS
10
4.917206929133858
20
-4.9265590551181102
11
4.9247059842519683
21
-4.9303085826771653
0
LINE
8
BLACK
6
CONTINUOUS
10
4.9247059842519683
20
-4.9303085826771653
11
4.9397041338582675
21
-4.9303085826771653
0
LINE
8
BLACK
6
CONTINUOUS
10
4.9397041338582675
20
-4.9303085826771653
11
4.9472031889763777
21
-4.9265590551181102
0
LINE
8
BLACK
6
CONTINUOUS
10
4.9472031889763777
20
-4.9265590551181102
11
4.9509527165354328
21
-4.9228094881889763
0
LINE
8
BLACK
6
CONTINUOUS
10
4.9509527165354328
20
-4.9228094881889763
11
4.9547022440944879
21
-4.9153104330708661
0
LINE
8
BLACK
6
CONTINUOUS
10
4.9547022440944879
20
-4.9153104330708661
11
4.9547022440944879
21
-4.8965627952755906
0
LINE
8
BLACK
6
CONTINUOUS
10
4.9547022440944879
20
-4.8965627952755906
11
4.9509527165354328
21
-4.8890637401574804
0
LINE
8
BLACK
6
CONTINUOUS
10
4.9509527165354328
20
-4.8890637401574804
11
4.9472031889763777
21
-4.8853141732283465
0
LINE
8
BLACK
6
CONTINUOUS
10
4.9472031889763777
20
-4.8853141732283465
11
4.9397041338582675
21
-4.8815646456692914
0
LINE
8
BLACK
6
CONTINUOUS
10
4.9397041338582675
20
-4.8815646456692914
11
4.9247059842519683
21
-4.8815646456692914
0
LINE
8
BLACK
6
CONTINUOUS
10
4.9247059842519683
20
-4.8815646456692914
11
4.917206929133858
21
-4.8853141732283465
0
LINE
8
BLACK
6
CONTINUOUS
10
4.917206929133858
20
-4.8853141732283465
11
4.9134574015748029
21
-4.8890637401574804
0
LINE
8
BLACK
6
CONTINUOUS
10
4.9134574015748029
20
-4.8890637401574804
11
4.9097078740157478
21
-4.8965627952755906
0
LINE
8
BLACK
6
CONTINUOUS
10
4.9846985039370075
20
-4.8515684251968505
11
4.9846985039370075
21
-4.8665665354330709
0
LINE
8
BLACK
6
CONTINUOUS
10
5.0146947637795272
20
-4.8515684251968505
11
5.0146947637795272
21
-4.8665665354330709
0
LINE
8
BLACK
6
CONTINUOUS
10
5.1309302755905515
20
-4.9603048031496062
11
5.1271807086614176
21
-4.9565552755905511
0
LINE
8
BLACK
6
CONTINUOUS
10
5.1271807086614176
20
-4.9565552755905511
11
5.1196816535433074
21
-4.9453066929133858
0
LINE
8
BLACK
6
CONTINUOUS
10
5.1196816535433074
20
-4.9453066929133858
11
5.1159321259842523
21
-4.9378076377952755
0
LINE
8
BLACK
6
CONTINUOUS
10
5.1159321259842523
20
-4.9378076377952755
11
5.1121825984251972
21
-4.9265590551181102
0
LINE
8
BLACK
6
CONTINUOUS
10
5.1121825984251972
20
-4.9265590551181102
11
5.1084330708661412
21
-4.9078113779527559
0
LINE
8
BLACK
6
CONTINUOUS
10
5.1084330708661412
20
-4.9078113779527559
11
5.1084330708661412
21
-4.8928132677165355
0
LINE
8
BLACK
6
CONTINUOUS
10
5.1084330708661412
20
-4.8928132677165355
11
5.1121825984251972
21
-4.8740655905511812
0
LINE
8
BLACK
6
CONTINUOUS
10
5.1121825984251972
20
-4.8740655905511812
11
5.1159321259842523
21
-4.8628170078740158
0
LINE
8
BLACK
6
CONTINUOUS
10
5.1159321259842523
20
-4.8628170078740158
11
5.1196816535433074
21
-4.8553179527559056
0
LINE
8
BLACK
6
CONTINUOUS
10
5.1196816535433074
20
-4.8553179527559056
11
5.1271807086614176
21
-4.8440693307086615
0
LINE
8
BLACK
6
CONTINUOUS
10
5.1271807086614176
20
-4.8440693307086615
11
5.1309302755905515
21
-4.8403198031496064
0
LINE
8
BLACK
6
CONTINUOUS
10
5.1571769685039373
20
-4.8590674803149607
11
5.1609264960629924
21
-4.8553179527559056
0
LINE
8
BLACK
6
CONTINUOUS
10
5.1609264960629924
20
-4.8553179527559056
11
5.1684255511811026
21
-4.8515684251968505
0
LINE
8
BLACK
6
CONTINUOUS
10
5.1684255511811026
20
-4.8515684251968505
11
5.1871732283464569
21
-4.8515684251968505
0
LINE
8
BLACK
6
CONTINUOUS
10
5.1871732283464569
20
-4.8515684251968505
11
5.1946722834645671
21
-4.8553179527559056
0
LINE
8
BLACK
6
CONTINUOUS
10
5.1946722834645671
20
-4.8553179527559056
11
5.1984218110236222
21
-4.8590674803149607
0
LINE
8
BLACK
6
CONTINUOUS
10
5.1984218110236222
20
-4.8590674803149607
11
5.2021713385826773
21
-4.8665665354330709
0
LINE
8
BLACK
6
CONTINUOUS
10
5.2021713385826773
20
-4.8665665354330709
11
5.2021713385826773
21
-4.8740655905511812
0
LINE
8
BLACK
6
CONTINUOUS
10
5.2021713385826773
20
-4.8740655905511812
11
5.1984218110236222
21
-4.8853141732283465
0
LINE
8
BLACK
6
CONTINUOUS
10
5.1984218110236222
20
-4.8853141732283465
11
5.1534274409448821
21
-4.9303085826771653
0
LINE
8
BLACK
6
CONTINUOUS
10
5.1534274409448821
20
-4.9303085826771653
11
5.2021713385826773
21
-4.9303085826771653
0
LINE
8
BLACK
6
CONTINUOUS
10
5.2959096456692913
20
-4.9303085826771653
11
5.2959096456692913
21
-4.8515684251968505
0
LINE
8
BLACK
6
CONTINUOUS
10
5.3296554330708661
20
-4.9303085826771653
11
5.3296554330708661
21
-4.8890637401574804
0
LINE
8
BLACK
6
CONTINUOUS
10
5.3296554330708661
20
-4.8890637401574804
11
5.325905905511811
21
-4.8815646456692914
0
LINE
8
BLACK
6
CONTINUOUS
10
5.325905905511811
20
-4.8815646456692914
11
5.3184068503937008
21
-4.8778151181102363
0
LINE
8
BLACK
6
CONTINUOUS
10
5.3184068503937008
20
-4.8778151181102363
11
5.3071582283464567
21
-4.8778151181102363
0
LINE
8
BLACK
6
CONTINUOUS
10
5.3071582283464567
20
-4.8778151181102363
11
5.2996591732283465
21
-4.8815646456692914
0
LINE
8
BLACK
6
CONTINUOUS
10
5.2996591732283465
20
-4.8815646456692914
11
5.2959096456692913
21
-4.8853141732283465
0
LINE
8
BLACK
6
CONTINUOUS
10
5.3783993307086613
20
-4.9303085826771653
11
5.3709002755905511
21
-4.9265590551181102
0
LINE
8
BLACK
6
CONTINUOUS
10
5.3709002755905511
20
-4.9265590551181102
11
5.3671507480314959
21
-4.9228094881889763
0
LINE
8
BLACK
6
CONTINUOUS
10
5.3671507480314959
20
-4.9228094881889763
11
5.3634012204724408
21
-4.9153104330708661
0
LINE
8
BLACK
6
CONTINUOUS
10
5.3634012204724408
20
-4.9153104330708661
11
5.3634012204724408
21
-4.8928132677165355
0
LINE
8
BLACK
6
CONTINUOUS
10
5.3634012204724408
20
-4.8928132677165355
11
5.3671507480314959
21
-4.8853141732283465
0
LINE
8
BLACK
6
CONTINUOUS
10
5.3671507480314959
20
-4.8853141732283465
11
5.3709002755905511
21
-4.8815646456692914
0
LINE
8
BLACK
6
CONTINUOUS
10
5.3709002755905511
20
-4.8815646456692914
11
5.3783993307086613
21
-4.8778151181102363
0
LINE
8
BLACK
6
CONTINUOUS
10
5.3783993307086613
20
-4.8778151181102363
11
5.3896479527559054
21
-4.8778151181102363
0
LINE
8
BLACK
6
CONTINUOUS
10
5.3896479527559054
20
-4.8778151181102363
11
5.3971470078740156
21
-4.8815646456692914
0
LINE
8
BLACK
6
CONTINUOUS
10
5.3971470078740156
20
-4.8815646456692914
11
5.4008965354330707
21
-4.8853141732283465
0
LINE
8
BLACK
6
CONTINUOUS
10
5.4008965354330707
20
-4.8853141732283465
11
5.4046460629921258
21
-4.8928132677165355
0
LINE
8
BLACK
6
CONTINUOUS
10
5.4046460629921258
20
-4.8928132677165355
11
5.4046460629921258
21
-4.9153104330708661
0
LINE
8
BLACK
6
CONTINUOUS
10
5.4046460629921258
20
-4.9153104330708661
11
5.4008965354330707
21
-4.9228094881889763
0
LINE
8
BLACK
6
CONTINUOUS
10
5.4008965354330707
20
-4.9228094881889763
11
5.3971470078740156
21
-4.9265590551181102
0
LINE
8
BLACK
6
CONTINUOUS
10
5.3971470078740156
20
-4.9265590551181102
11
5.3896479527559054
21
-4.9303085826771653
0
LINE
8
BLACK
6
CONTINUOUS
10
5.3896479527559054
20
-4.9303085826771653
11
5.3783993307086613
21
-4.9303085826771653
0
LINE
8
BLACK
6
CONTINUOUS
10
5.4496404330708659
20
-4.9303085826771653
11
5.4421413779527557
21
-4.9265590551181102
0
LINE
8
BLACK
6
CONTINUOUS
10
5.4421413779527557
20
-4.9265590551181102
11
5.4383918503937005
21
-4.9190599606299212
0
LINE
8
BLACK
6
CONTINUOUS
10
5.4383918503937005
20
-4.9190599606299212
11
5.4383918503937005
21
-4.8515684251968505
0
LINE
8
BLACK
6
CONTINUOUS
10
5.5096329527559051
20
-4.9265590551181102
11
5.5021338976377949
21
-4.9303085826771653
0
LINE
8
BLACK
6
CONTINUOUS
10
5.5021338976377949
20
-4.9303085826771653
11
5.4871357480314957
21
-4.9303085826771653
0
LINE
8
BLACK
6
CONTINUOUS
10
5.4871357480314957
20
-4.9303085826771653
11
5.4796366929133855
21
-4.9265590551181102
0
LINE
8
BLACK
6
CONTINUOUS
10
5.4796366929133855
20
-4.9265590551181102
11
5.4758871653543304
21
-4.9190599606299212
0
LINE
8
BLACK
6
CONTINUOUS
10
5.4758871653543304
20
-4.9190599606299212
11
5.4758871653543304
21
-4.8890637401574804
0
LINE
8
BLACK
6
CONTINUOUS
10
5.4758871653543304
20
-4.8890637401574804
11
5.4796366929133855
21
-4.8815646456692914
0
LINE
8
BLACK
6
CONTINUOUS
10
5.4796366929133855
20
-4.8815646456692914
11
5.4871357480314957
21
-4.8778151181102363
0
LINE
8
BLACK
6
CONTINUOUS
10
5.4871357480314957
20
-4.8778151181102363
11
5.5021338976377949
21
-4.8778151181102363
0
LINE
8
BLACK
6
CONTINUOUS
10
5.5021338976377949
20
-4.8778151181102363
11
5.5096329527559051
21
-4.8815646456692914
0
LINE
8
BLACK
6
CONTINUOUS
10
5.5096329527559051
20
-4.8815646456692914
11
5.5133824803149603
21
-4.8890637401574804
0
LINE
8
BLACK
6
CONTINUOUS
10
5.5133824803149603
20
-4.8890637401574804
11
5.5133824803149603
21
-4.8965627952755906
0
LINE
8
BLACK
6
CONTINUOUS
10
5.5133824803149603
20
-4.8965627952755906
11
5.4758871653543304
21
-4.9040618503937008
0
LINE
8
BLACK
6
CONTINUOUS
10
5.5433787401574799
20
-4.9265590551181102
11
5.5508777952755901
21
-4.9303085826771653
0
LINE
8
BLACK
6
CONTINUOUS
10
5.5508777952755901
20
-4.9303085826771653
11
5.5658759055118106
21
-4.9303085826771653
0
LINE
8
BLACK
6
CONTINUOUS
10
5.5658759055118106
20
-4.9303085826771653
11
5.5733749999999995
21
-4.9265590551181102
0
LINE
8
BLACK
6
CONTINUOUS
10
5.5733749999999995
20
-4.9265590551181102
11
5.5771245275590546
21
-4.9190599606299212
0
LINE
8
BLACK
6
CONTINUOUS
10
5.5771245275590546
20
-4.9190599606299212
11
5.5771245275590546
21
-4.9153104330708661
0
LINE
8
BLACK
6
CONTINUOUS
10
5.5771245275590546
20
-4.9153104330708661
11
5.5733749999999995
21
-4.9078113779527559
0
LINE
8
BLACK
6
CONTINUOUS
10
5.5733749999999995
20
-4.9078113779527559
11
5.5658759055118106
21
-4.9040618503937008
0
LINE
8
BLACK
6
CONTINUOUS
10
5.5658759055118106
20
-4.9040618503937008
11
5.5546273228346452
21
-4.9040618503937008
0
LINE
8
BLACK
6
CONTINUOUS
10
5.5546273228346452
20
-4.9040618503937008
11
5.547128267716535
21
-4.9003123228346457
0
LINE
8
BLACK
6
CONTINUOUS
10
5.547128267716535
20
-4.9003123228346457
11
5.5433787401574799
21
-4.8928132677165355
0
LINE
8
BLACK
6
CONTINUOUS
10
5.5433787401574799
20
-4.8928132677165355
11
5.5433787401574799
21
-4.8890637401574804
0
LINE
8
BLACK
6
CONTINUOUS
10
5.5433787401574799
20
-4.8890637401574804
11
5.547128267716535
21
-4.8815646456692914
0
LINE
8
BLACK
6
CONTINUOUS
10
5.547128267716535
20
-4.8815646456692914
11
5.5546273228346452
21
-4.8778151181102363
0
LINE
8
BLACK
6
CONTINUOUS
10
5.5546273228346452
20
-4.8778151181102363
11
5.5658759055118106
21
-4.8778151181102363
0
LINE
8
BLACK
6
CONTINUOUS
10
5.5658759055118106
20
-4.8778151181102363
11
5.5733749999999995
21
-4.8815646456692914
0
LINE
8
BLACK
6
CONTINUOUS
10
5.6033712598425192
20
-4.9603048031496062
11
5.6071207874015743
21
-4.9565552755905511
0
LINE
8
BLACK
6
CONTINUOUS
10
5.6071207874015743
20
-4.9565552755905511
11
5.6146198425196845
21
-4.9453066929133858
0
LINE
8
BLACK
6
CONTINUOUS
10
5.6146198425196845
20
-4.9453066929133858
11
5.6183693700787396
21
-4.9378076377952755
0
LINE
8
BLACK
6
CONTINUOUS
10
5.6183693700787396
20
-4.9378076377952755
11
5.6221188976377947
21
-4.9265590551181102
0
LINE
8
BLACK
6
CONTINUOUS
10
5.6221188976377947
20
-4.9265590551181102
11
5.6258684251968507
21
-4.9078113779527559
0
LINE
8
BLACK
6
CONTINUOUS
10
5.6258684251968507
20
-4.9078113779527559
11
5.6258684251968507
21
-4.8928132677165355
0
LINE
8
BLACK
6
CONTINUOUS
10
5.6258684251968507
20
-4.8928132677165355
11
5.6221188976377947
21
-4.8740655905511812
0
LINE
8
BLACK
6
CONTINUOUS
10
5.6221188976377947
20
-4.8740655905511812
11
5.6183693700787396
21
-4.8628170078740158
0
LINE
8
BLACK
6
CONTINUOUS
10
5.6183693700787396
20
-4.8628170078740158
11
5.6146198425196845
21
-4.8553179527559056
0
LINE
8
BLACK
6
CONTINUOUS
10
5.6146198425196845
20
-4.8553179527559056
11
5.6071207874015743
21
-4.8440693307086615
0
LINE
8
BLACK
6
CONTINUOUS
10
5.6071207874015743
20
-4.8440693307086615
11
5.6033712598425192
21
-4.8403198031496064
0
LINE
8
BLACK
6
CONTINUOUS
10
5.7458534645669292
20
-4.9603048031496062
11
5.7421038976377954
21
-4.9565552755905511
0
LINE
8
BLACK
6
CONTINUOUS
10
5.7421038976377954
20
-4.9565552755905511
11
5.7346048425196852
21
-4.9453066929133858
0
LINE
8
BLACK
6
CONTINUOUS
10
5.7346048425196852
20
-4.9453066929133858
11
5.7308553149606301
21
-4.9378076377952755
0
LINE
8
BLACK
6
CONTINUOUS
10
5.7308553149606301
20
-4.9378076377952755
11
5.7271057874015749
21
-4.9265590551181102
0
LINE
8
BLACK
6
CONTINUOUS
10
5.7271057874015749
20
-4.9265590551181102
11
5.7233562598425198
21
-4.9078113779527559
0
LINE
8
BLACK
6
CONTINUOUS
10
5.7233562598425198
20
-4.9078113779527559
11
5.7233562598425198
21
-4.8928132677165355
0
LINE
8
BLACK
6
CONTINUOUS
10
5.7233562598425198
20
-4.8928132677165355
11
5.7271057874015749
21
-4.8740655905511812
0
LINE
8
BLACK
6
CONTINUOUS
10
5.7271057874015749
20
-4.8740655905511812
11
5.7308553149606301
21
-4.8628170078740158
0
LINE
8
BLACK
6
CONTINUOUS
10
5.7308553149606301
20
-4.8628170078740158
11
5.7346048425196852
21
-4.8553179527559056
0
LINE
8
BLACK
6
CONTINUOUS
10
5.7346048425196852
20
-4.8553179527559056
11
5.7421038976377954
21
-4.8440693307086615
0
LINE
8
BLACK
6
CONTINUOUS
10
5.7421038976377954
20
-4.8440693307086615
11
5.7458534645669292
21
-4.8403198031496064
0
LINE
8
BLACK
6
CONTINUOUS
10
5.7758496850393701
20
-4.8778151181102363
11
5.7758496850393701
21
-4.9303085826771653
0
LINE
8
BLACK
6
CONTINUOUS
10
5.7758496850393701
20
-4.8853141732283465
11
5.7795992125984252
21
-4.8815646456692914
0
LINE
8
BLACK
6
CONTINUOUS
10
5.7795992125984252
20
-4.8815646456692914
11
5.7870982677165355
21
-4.8778151181102363
0
LINE
8
BLACK
6
CONTINUOUS
10
5.7870982677165355
20
-4.8778151181102363
11
5.7983468897637795
21
-4.8778151181102363
0
LINE
8
BLACK
6
CONTINUOUS
10
5.7983468897637795
20
-4.8778151181102363
11
5.8058459448818898
21
-4.8815646456692914
0
LINE
8
BLACK
6
CONTINUOUS
10
5.8058459448818898
20
-4.8815646456692914
11
5.8095954724409449
21
-4.8890637401574804
0
LINE
8
BLACK
6
CONTINUOUS
10
5.8095954724409449
20
-4.8890637401574804
11
5.8095954724409449
21
-4.9303085826771653
0
LINE
8
BLACK
6
CONTINUOUS
10
5.8583393700787401
20
-4.9303085826771653
11
5.8508403149606298
21
-4.9265590551181102
0
LINE
8
BLACK
6
CONTINUOUS
10
5.8508403149606298
20
-4.9265590551181102
11
5.8470907874015747
21
-4.9228094881889763
0
LINE
8
BLACK
6
CONTINUOUS
10
5.8470907874015747
20
-4.9228094881889763
11
5.8433412598425196
21
-4.9153104330708661
0
LINE
8
BLACK
6
CONTINUOUS
10
5.8433412598425196
20
-4.9153104330708661
11
5.8433412598425196
21
-4.8928132677165355
0
LINE
8
BLACK
6
CONTINUOUS
10
5.8433412598425196
20
-4.8928132677165355
11
5.8470907874015747
21
-4.8853141732283465
0
LINE
8
BLACK
6
CONTINUOUS
10
5.8470907874015747
20
-4.8853141732283465
11
5.8508403149606298
21
-4.8815646456692914
0
LINE
8
BLACK
6
CONTINUOUS
10
5.8508403149606298
20
-4.8815646456692914
11
5.8583393700787401
21
-4.8778151181102363
0
LINE
8
BLACK
6
CONTINUOUS
10
5.8583393700787401
20
-4.8778151181102363
11
5.8695879921259841
21
-4.8778151181102363
0
LINE
8
BLACK
6
CONTINUOUS
10
5.8695879921259841
20
-4.8778151181102363
11
5.8770870472440944
21
-4.8815646456692914
0
LINE
8
BLACK
6
CONTINUOUS
10
5.8770870472440944
20
-4.8815646456692914
11
5.8808365748031495
21
-4.8853141732283465
0
LINE
8
BLACK
6
CONTINUOUS
10
5.8808365748031495
20
-4.8853141732283465
11
5.8845861023622046
21
-4.8928132677165355
0
LINE
8
BLACK
6
CONTINUOUS
10
5.8845861023622046
20
-4.8928132677165355
11
5.8845861023622046
21
-4.9153104330708661
0
LINE
8
BLACK
6
CONTINUOUS
10
5.8845861023622046
20
-4.9153104330708661
11
5.8808365748031495
21
-4.9228094881889763
0
LINE
8
BLACK
6
CONTINUOUS
10
5.8808365748031495
20
-4.9228094881889763
11
5.8770870472440944
21
-4.9265590551181102
0
LINE
8
BLACK
6
CONTINUOUS
10
5.8770870472440944
20
-4.9265590551181102
11
5.8695879921259841
21
-4.9303085826771653
0
LINE
8
BLACK
6
CONTINUOUS
10
5.8695879921259841
20
-4.9303085826771653
11
5.8583393700787401
21
-4.9303085826771653
0
LINE
8
BLACK
6
CONTINUOUS
10
5.907083307086614
20
-4.8778151181102363
11
5.9370795275590549
21
-4.8778151181102363
0
LINE
8
BLACK
6
CONTINUOUS
10
5.9183318897637793
20
-4.8515684251968505
11
5.9183318897637793
21
-4.9190599606299212
0
LINE
8
BLACK
6
CONTINUOUS
10
5.9183318897637793
20
-4.9190599606299212
11
5.9220814173228344
21
-4.9265590551181102
0
LINE
8
BLACK
6
CONTINUOUS
10
5.9220814173228344
20
-4.9265590551181102
11
5.9295804724409447
21
-4.9303085826771653
0
LINE
8
BLACK
6
CONTINUOUS
10
5.9295804724409447
20
-4.9303085826771653
11
5.9370795275590549
21
-4.9303085826771653
0
LINE
8
BLACK
6
CONTINUOUS
10
6.0233187795275587
20
-4.8778151181102363
11
6.0233187795275587
21
-4.9565552755905511
0
LINE
8
BLACK
6
CONTINUOUS
10
6.0233187795275587
20
-4.8815646456692914
11
6.0308178346456689
21
-4.8778151181102363
0
LINE
8
BLACK
6
CONTINUOUS
10
6.0308178346456689
20
-4.8778151181102363
11
6.0458159842519681
21
-4.8778151181102363
0
LINE
8
BLACK
6
CONTINUOUS
10
6.0458159842519681
20
-4.8778151181102363
11
6.0533150393700783
21
-4.8815646456692914
0
LINE
8
BLACK
6
CONTINUOUS
10
6.0533150393700783
20
-4.8815646456692914
11
6.0570645669291334
21
-4.8853141732283465
0
LINE
8
BLACK
6
CONTINUOUS
10
6.0570645669291334
20
-4.8853141732283465
11
6.0608140944881885
21
-4.8928132677165355
0
LINE
8
BLACK
6
CONTINUOUS
10
6.0608140944881885
20
-4.8928132677165355
11
6.0608140944881885
21
-4.9153104330708661
0
LINE
8
BLACK
6
CONTINUOUS
10
6.0608140944881885
20
-4.9153104330708661
11
6.0570645669291334
21
-4.9228094881889763
0
LINE
8
BLACK
6
CONTINUOUS
10
6.0570645669291334
20
-4.9228094881889763
11
6.0533150393700783
21
-4.9265590551181102
0
LINE
8
BLACK
6
CONTINUOUS
10
6.0533150393700783
20
-4.9265590551181102
11
6.0458159842519681
21
-4.9303085826771653
0
LINE
8
BLACK
6
CONTINUOUS
10
6.0458159842519681
20
-4.9303085826771653
11
6.0308178346456689
21
-4.9303085826771653
0
LINE
8
BLACK
6
CONTINUOUS
10
6.0308178346456689
20
-4.9303085826771653
11
6.0233187795275587
21
-4.9265590551181102
0
LINE
8
BLACK
6
CONTINUOUS
10
6.1058084645669286
20
-4.9303085826771653
11
6.0983094094488184
21
-4.9265590551181102
0
LINE
8
BLACK
6
CONTINUOUS
10
6.0983094094488184
20
-4.9265590551181102
11
6.0945598818897633
21
-4.9190599606299212
0
LINE
8
BLACK
6
CONTINUOUS
10
6.0945598818897633
20
-4.9190599606299212
11
6.0945598818897633
21
-4.8515684251968505
0
LINE
8
BLACK
6
CONTINUOUS
10
6.1695505118110239
20
-4.9303085826771653
11
6.1695505118110239
21
-4.8890637401574804
0
LINE
8
BLACK
6
CONTINUOUS
10
6.1695505118110239
20
-4.8890637401574804
11
6.1658009842519688
21
-4.8815646456692914
0
LINE
8
BLACK
6
CONTINUOUS
10
6.1658009842519688
20
-4.8815646456692914
11
6.1583019291338585
21
-4.8778151181102363
0
LINE
8
BLACK
6
CONTINUOUS
10
6.1583019291338585
20
-4.8778151181102363
11
6.1433037795275593
21
-4.8778151181102363
0
LINE
8
BLACK
6
CONTINUOUS
10
6.1433037795275593
20
-4.8778151181102363
11
6.1358047244094482
21
-4.8815646456692914
0
LINE
8
BLACK
6
CONTINUOUS
10
6.1695505118110239
20
-4.9265590551181102
11
6.1620514566929137
21
-4.9303085826771653
0
LINE
8
BLACK
6
CONTINUOUS
10
6.1620514566929137
20
-4.9303085826771653
11
6.1433037795275593
21
-4.9303085826771653
0
LINE
8
BLACK
6
CONTINUOUS
10
6.1433037795275593
20
-4.9303085826771653
11
6.1358047244094482
21
-4.9265590551181102
0
LINE
8
BLACK
6
CONTINUOUS
10
6.1358047244094482
20
-4.9265590551181102
11
6.1320551968503931
21
-4.9190599606299212
0
LINE
8
BLACK
6
CONTINUOUS
10
6.1320551968503931
20
-4.9190599606299212
11
6.1320551968503931
21
-4.911560905511811
0
LINE
8
BLACK
6
CONTINUOUS
10
6.1320551968503931
20
-4.911560905511811
11
6.1358047244094482
21
-4.9040618503937008
0
LINE
8
BLACK
6
CONTINUOUS
10
6.1358047244094482
20
-4.9040618503937008
11
6.1433037795275593
21
-4.9003123228346457
0
LINE
8
BLACK
6
CONTINUOUS
10
6.1433037795275593
20
-4.9003123228346457
11
6.1620514566929137
21
-4.9003123228346457
0
LINE
8
BLACK
6
CONTINUOUS
10
6.1620514566929137
20
-4.9003123228346457
11
6.1695505118110239
21
-4.8965627952755906
0
LINE
8
BLACK
6
CONTINUOUS
10
6.1957972440944884
20
-4.8778151181102363
11
6.2257934645669293
21
-4.8778151181102363
0
LINE
8
BLACK
6
CONTINUOUS
10
6.2070458267716537
20
-4.8515684251968505
11
6.2070458267716537
21
-4.9190599606299212
0
LINE
8
BLACK
6
CONTINUOUS
10
6.2070458267716537
20
-4.9190599606299212
11
6.2107953543307088
21
-4.9265590551181102
0
LINE
8
BLACK
6
CONTINUOUS
10
6.2107953543307088
20
-4.9265590551181102
11
6.2182944094488191
21
-4.9303085826771653
0
LINE
8
BLACK
6
CONTINUOUS
10
6.2182944094488191
20
-4.9303085826771653
11
6.2257934645669293
21
-4.9303085826771653
0
LINE
8
BLACK
6
CONTINUOUS
10
6.2820364566929134
20
-4.9265590551181102
11
6.2745374015748032
21
-4.9303085826771653
0
LINE
8
BLACK
6
CONTINUOUS
10
6.2745374015748032
20
-4.9303085826771653
11
6.259539251968504
21
-4.9303085826771653
0
LINE
8
BLACK
6
CONTINUOUS
10
6.259539251968504
20
-4.9303085826771653
11
6.2520401968503938
21
-4.9265590551181102
0
LINE
8
BLACK
6
CONTINUOUS
10
6.2520401968503938
20
-4.9265590551181102
11
6.2482906692913387
21
-4.9190599606299212
0
LINE
8
BLACK
6
CONTINUOUS
10
6.2482906692913387
20
-4.9190599606299212
11
6.2482906692913387
21
-4.8890637401574804
0
LINE
8
BLACK
6
CONTINUOUS
10
6.2482906692913387
20
-4.8890637401574804
11
6.2520401968503938
21
-4.8815646456692914
0
LINE
8
BLACK
6
CONTINUOUS
10
6.2520401968503938
20
-4.8815646456692914
11
6.259539251968504
21
-4.8778151181102363
0
LINE
8
BLACK
6
CONTINUOUS
10
6.259539251968504
20
-4.8778151181102363
11
6.2745374015748032
21
-4.8778151181102363
0
LINE
8
BLACK
6
CONTINUOUS
10
6.2745374015748032
20
-4.8778151181102363
11
6.2820364566929134
21
-4.8815646456692914
0
LINE
8
BLACK
6
CONTINUOUS
10
6.2820364566929134
20
-4.8815646456692914
11
6.2857859842519686
21
-4.8890637401574804
0
LINE
8
BLACK
6
CONTINUOUS
10
6.2857859842519686
20
-4.8890637401574804
11
6.2857859842519686
21
-4.8965627952755906
0
LINE
8
BLACK
6
CONTINUOUS
10
6.2857859842519686
20
-4.8965627952755906
11
6.2482906692913387
21
-4.9040618503937008
0
LINE
8
BLACK
6
CONTINUOUS
10
6.353277559055118
20
-4.9303085826771653
11
6.353277559055118
21
-4.8515684251968505
0
LINE
8
BLACK
6
CONTINUOUS
10
6.353277559055118
20
-4.9265590551181102
11
6.3457785039370078
21
-4.9303085826771653
0
LINE
8
BLACK
6
CONTINUOUS
10
6.3457785039370078
20
-4.9303085826771653
11
6.3307803543307086
21
-4.9303085826771653
0
LINE
8
BLACK
6
CONTINUOUS
10
6.3307803543307086
20
-4.9303085826771653
11
6.3232812992125984
21
-4.9265590551181102
0
LINE
8
BLACK
6
CONTINUOUS
10
6.3232812992125984
20
-4.9265590551181102
11
6.3195317716535433
21
-4.9228094881889763
0
LINE
8
BLACK
6
CONTINUOUS
10
6.3195317716535433
20
-4.9228094881889763
11
6.3157822440944882
21
-4.9153104330708661
0
LINE
8
BLACK
6
CONTINUOUS
10
6.3157822440944882
20
-4.9153104330708661
11
6.3157822440944882
21
-4.8928132677165355
0
LINE
8
BLACK
6
CONTINUOUS
10
6.3157822440944882
20
-4.8928132677165355
11
6.3195317716535433
21
-4.8853141732283465
0
LINE
8
BLACK
6
CONTINUOUS
10
6.3195317716535433
20
-4.8853141732283465
11
6.3232812992125984
21
-4.8815646456692914
0
LINE
8
BLACK
6
CONTINUOUS
10
6.3232812992125984
20
-4.8815646456692914
11
6.3307803543307086
21
-4.8778151181102363
0
LINE
8
BLACK
6
CONTINUOUS
10
6.3307803543307086
20
-4.8778151181102363
11
6.3457785039370078
21
-4.8778151181102363
0
LINE
8
BLACK
6
CONTINUOUS
10
6.3457785039370078
20
-4.8778151181102363
11
6.353277559055118
21
-4.8815646456692914
0
LINE
8
BLACK
6
CONTINUOUS
10
6.3832738188976377
20
-4.9603048031496062
11
6.3870233464566928
21
-4.9565552755905511
0
LINE
8
BLACK
6
CONTINUOUS
10
6.3870233464566928
20
-4.9565552755905511
11
6.394522401574803
21
-4.9453066929133858
0
LINE
8
BLACK
6
CONTINUOUS
10
6.394522401574803
20
-4.9453066929133858
11
6.3982719291338581
21
-4.9378076377952755
0
LINE
8
BLACK
6
CONTINUOUS
10
6.3982719291338581
20
-4.9378076377952755
11
6.4020214566929132
21
-4.9265590551181102
0
LINE
8
BLACK
6
CONTINUOUS
10
6.4020214566929132
20
-4.9265590551181102
11
6.4057709842519683
21
-4.9078113779527559
0
LINE
8
BLACK
6
CONTINUOUS
10
6.4057709842519683
20
-4.9078113779527559
11
6.4057709842519683
21
-4.8928132677165355
0
LINE
8
BLACK
6
CONTINUOUS
10
6.4057709842519683
20
-4.8928132677165355
11
6.4020214566929132
21
-4.8740655905511812
0
LINE
8
BLACK
6
CONTINUOUS
10
6.4020214566929132
20
-4.8740655905511812
11
6.3982719291338581
21
-4.8628170078740158
0
LINE
8
BLACK
6
CONTINUOUS
10
6.3982719291338581
20
-4.8628170078740158
11
6.394522401574803
21
-4.8553179527559056
0
LINE
8
BLACK
6
CONTINUOUS
10
6.394522401574803
20
-4.8553179527559056
11
6.3870233464566928
21
-4.8440693307086615
0
LINE
8
BLACK
6
CONTINUOUS
10
6.3870233464566928
20
-4.8440693307086615
11
6.3832738188976377
21
-4.8403198031496064
  0
ENDSEC
  0
EOF
